STARTFONT 2.1
COMMENT
COMMENT Converted from OpenType font "JF-Dot-Kappa20-0213.ttf" by "otf2bdf 3.0".
COMMENT
FONT -FreeType-JF Dot Kappa 20 0213-Bold-R-Normal--21-150-100-100-P-202-ISO10646-1
SIZE 15 100 100
FONTBOUNDINGBOX 21 21 0 -3
STARTPROPERTIES 19
FOUNDRY "FreeType"
FAMILY_NAME "JF Dot Kappa 20 0213"
WEIGHT_NAME "Bold"
SLANT "R"
SETWIDTH_NAME "Normal"
ADD_STYLE_NAME ""
PIXEL_SIZE 21
POINT_SIZE 150
RESOLUTION_X 100
RESOLUTION_Y 100
SPACING "P"
AVERAGE_WIDTH 202
CHARSET_REGISTRY "ISO10646"
CHARSET_ENCODING "1"
FONT_ASCENT 18
FONT_DESCENT 2
COPYRIGHT "-FreeType-JF Dot Kappa 20 0213-Bold-R-Normal--21-150-100-100-P-202-ISO10646-1"
_OTF_FONTFILE "JF-Dot-Kappa20-0213.ttf"
_OTF_PSNAME "JF-Dot-Kappa-20-0213-Bold"
ENDPROPERTIES
CHARS 7904
STARTCHAR 0020
ENCODING 32
SWIDTH 528 0
DWIDTH 11 0
BBX 0 0 0 0
BITMAP
ENDCHAR
STARTCHAR 0021
ENCODING 33
SWIDTH 528 0
DWIDTH 11 0
BBX 3 16 3 0
BITMAP
40
E0
E0
E0
E0
E0
E0
40
40
40
40
00
00
40
E0
40
ENDCHAR
STARTCHAR 0022
ENCODING 34
SWIDTH 528 0
DWIDTH 11 0
BBX 7 5 1 11
BITMAP
EE
EE
66
44
88
ENDCHAR
STARTCHAR 0023
ENCODING 35
SWIDTH 528 0
DWIDTH 11 0
BBX 9 17 0 -1
BITMAP
1100
1100
1100
1100
7F80
7F80
2200
2200
2200
2200
2200
FF00
FF00
4400
4400
4400
4400
ENDCHAR
STARTCHAR 0024
ENCODING 36
SWIDTH 528 0
DWIDTH 11 0
BBX 9 18 0 -1
BITMAP
0800
0800
3E00
6B00
CB80
C900
E800
7800
3E00
0F00
0B80
0B80
4980
E980
6B00
3E00
0800
0800
ENDCHAR
STARTCHAR 0025
ENCODING 37
SWIDTH 528 0
DWIDTH 11 0
BBX 8 17 1 -1
BITMAP
61
D1
92
92
94
B4
68
08
10
16
16
2D
29
49
49
8B
86
ENDCHAR
STARTCHAR 0026
ENCODING 38
SWIDTH 528 0
DWIDTH 11 0
BBX 11 15 0 0
BITMAP
3C00
6600
6600
6400
2C00
3800
31E0
7880
5880
D880
CD00
CD00
C600
E760
7980
ENDCHAR
STARTCHAR 0027
ENCODING 39
SWIDTH 528 0
DWIDTH 11 0
BBX 3 6 2 10
BITMAP
E0
E0
60
60
40
80
ENDCHAR
STARTCHAR 0028
ENCODING 40
SWIDTH 528 0
DWIDTH 11 0
BBX 5 19 3 -2
BITMAP
08
10
30
20
60
40
C0
C0
C0
C0
C0
C0
C0
40
60
20
30
10
08
ENDCHAR
STARTCHAR 0029
ENCODING 41
SWIDTH 528 0
DWIDTH 11 0
BBX 5 19 1 -2
BITMAP
80
40
60
20
30
10
18
18
18
18
18
18
18
10
30
20
60
40
80
ENDCHAR
STARTCHAR 002A
ENCODING 42
SWIDTH 528 0
DWIDTH 11 0
BBX 7 10 1 3
BITMAP
10
92
D6
7C
10
7C
56
D6
92
10
ENDCHAR
STARTCHAR 002B
ENCODING 43
SWIDTH 528 0
DWIDTH 11 0
BBX 9 10 0 3
BITMAP
0800
0800
0800
0800
FF80
0800
0800
0800
0800
0800
ENDCHAR
STARTCHAR 002C
ENCODING 44
SWIDTH 528 0
DWIDTH 11 0
BBX 3 6 2 -3
BITMAP
E0
E0
60
60
40
80
ENDCHAR
STARTCHAR 002D
ENCODING 45
SWIDTH 528 0
DWIDTH 11 0
BBX 8 1 1 8
BITMAP
FF
ENDCHAR
STARTCHAR 002E
ENCODING 46
SWIDTH 528 0
DWIDTH 11 0
BBX 3 3 2 0
BITMAP
E0
E0
E0
ENDCHAR
STARTCHAR 002F
ENCODING 47
SWIDTH 528 0
DWIDTH 11 0
BBX 9 20 0 -3
BITMAP
0080
0080
0180
0100
0300
0200
0600
0400
0C00
0800
0800
1800
1000
3000
2000
6000
4000
C000
8000
8000
ENDCHAR
STARTCHAR 0030
ENCODING 48
SWIDTH 528 0
DWIDTH 11 0
BBX 8 15 1 0
BITMAP
3C
66
42
C3
C3
C3
C3
C3
C3
C3
C3
C3
42
66
3C
ENDCHAR
STARTCHAR 0031
ENCODING 49
SWIDTH 528 0
DWIDTH 11 0
BBX 6 15 2 0
BITMAP
10
30
F0
30
30
30
30
30
30
30
30
30
30
30
FC
ENDCHAR
STARTCHAR 0032
ENCODING 50
SWIDTH 528 0
DWIDTH 11 0
BBX 8 15 1 0
BITMAP
3C
66
E3
43
03
06
06
0C
08
18
10
21
43
FE
FE
ENDCHAR
STARTCHAR 0033
ENCODING 51
SWIDTH 528 0
DWIDTH 11 0
BBX 8 15 1 0
BITMAP
3C
66
C3
43
03
06
1C
06
07
03
03
43
E3
66
3C
ENDCHAR
STARTCHAR 0034
ENCODING 52
SWIDTH 528 0
DWIDTH 11 0
BBX 8 15 1 0
BITMAP
0E
0E
16
16
26
26
46
46
C6
86
FF
06
06
06
1F
ENDCHAR
STARTCHAR 0035
ENCODING 53
SWIDTH 528 0
DWIDTH 11 0
BBX 8 15 1 0
BITMAP
7F
7F
40
40
40
7C
66
03
03
03
03
43
E3
66
3C
ENDCHAR
STARTCHAR 0036
ENCODING 54
SWIDTH 528 0
DWIDTH 11 0
BBX 8 15 1 0
BITMAP
3C
66
C7
C2
C0
DC
E6
C3
C3
C3
C3
C3
C3
66
3C
ENDCHAR
STARTCHAR 0037
ENCODING 55
SWIDTH 528 0
DWIDTH 11 0
BBX 8 15 1 0
BITMAP
7F
7F
C2
84
04
08
08
08
08
18
18
18
18
18
18
ENDCHAR
STARTCHAR 0038
ENCODING 56
SWIDTH 528 0
DWIDTH 11 0
BBX 8 15 1 0
BITMAP
3C
66
C3
C3
C3
62
3C
46
47
C3
C3
C3
C3
66
3C
ENDCHAR
STARTCHAR 0039
ENCODING 57
SWIDTH 528 0
DWIDTH 11 0
BBX 8 15 1 0
BITMAP
3C
66
C3
C3
C3
C3
C3
67
6B
3B
03
43
E3
66
3C
ENDCHAR
STARTCHAR 003A
ENCODING 58
SWIDTH 528 0
DWIDTH 11 0
BBX 3 12 3 0
BITMAP
E0
E0
E0
00
00
00
00
00
00
E0
E0
E0
ENDCHAR
STARTCHAR 003B
ENCODING 59
SWIDTH 528 0
DWIDTH 11 0
BBX 3 15 3 -3
BITMAP
E0
E0
E0
00
00
00
00
00
00
E0
E0
60
60
40
80
ENDCHAR
STARTCHAR 003C
ENCODING 60
SWIDTH 528 0
DWIDTH 11 0
BBX 7 14 1 0
BITMAP
02
06
0C
18
30
60
C0
E0
60
30
18
0C
06
02
ENDCHAR
STARTCHAR 003D
ENCODING 61
SWIDTH 528 0
DWIDTH 11 0
BBX 8 6 1 4
BITMAP
FF
00
00
00
00
FF
ENDCHAR
STARTCHAR 003E
ENCODING 62
SWIDTH 528 0
DWIDTH 11 0
BBX 7 14 1 0
BITMAP
80
C0
60
30
18
0C
06
04
0C
18
30
60
C0
80
ENDCHAR
STARTCHAR 003F
ENCODING 63
SWIDTH 528 0
DWIDTH 11 0
BBX 9 15 0 0
BITMAP
3E00
6300
C180
E180
4180
0300
0600
0C00
0800
0800
0800
0000
0800
1C00
0800
ENDCHAR
STARTCHAR 0040
ENCODING 64
SWIDTH 528 0
DWIDTH 11 0
BBX 9 17 0 -1
BITMAP
1E00
3300
6100
4080
CA80
9680
B680
B680
B680
B680
B680
B680
9B00
C000
4080
6300
3E00
ENDCHAR
STARTCHAR 0041
ENCODING 65
SWIDTH 528 0
DWIDTH 11 0
BBX 11 15 0 0
BITMAP
0C00
0C00
1E00
1600
1600
1600
2300
2300
2300
2300
3F00
4180
4180
4180
E3E0
ENDCHAR
STARTCHAR 0042
ENCODING 66
SWIDTH 528 0
DWIDTH 11 0
BBX 9 15 0 0
BITMAP
FE00
6300
6180
6180
6180
6300
7E00
6300
6380
6180
6180
6180
6180
6300
FE00
ENDCHAR
STARTCHAR 0043
ENCODING 67
SWIDTH 528 0
DWIDTH 11 0
BBX 9 15 0 0
BITMAP
1C80
7380
6180
E080
C080
C000
C000
C000
C000
C000
C000
E000
6080
7100
1E00
ENDCHAR
STARTCHAR 0044
ENCODING 68
SWIDTH 528 0
DWIDTH 11 0
BBX 9 15 0 0
BITMAP
FC00
6700
6380
6180
6180
6180
6180
6180
6180
6180
6180
6180
6300
6700
FC00
ENDCHAR
STARTCHAR 0045
ENCODING 69
SWIDTH 528 0
DWIDTH 11 0
BBX 9 15 0 0
BITMAP
FF80
6180
6080
6080
6200
6200
7E00
6200
6200
6200
6000
6080
6080
6180
FF80
ENDCHAR
STARTCHAR 0046
ENCODING 70
SWIDTH 528 0
DWIDTH 11 0
BBX 9 15 0 0
BITMAP
FF80
6180
6080
6080
6400
6400
7C00
6400
6400
6400
6000
6000
6000
6000
F800
ENDCHAR
STARTCHAR 0047
ENCODING 71
SWIDTH 528 0
DWIDTH 11 0
BBX 9 15 0 0
BITMAP
1E80
7380
6180
E080
C080
C000
C000
C780
C780
C180
C180
E180
6180
7380
1C80
ENDCHAR
STARTCHAR 0048
ENCODING 72
SWIDTH 528 0
DWIDTH 11 0
BBX 11 15 0 0
BITMAP
F3E0
6180
6180
6180
6180
6180
7F80
6180
6180
6180
6180
6180
6180
6180
F3E0
ENDCHAR
STARTCHAR 0049
ENCODING 73
SWIDTH 528 0
DWIDTH 11 0
BBX 6 15 2 0
BITMAP
FC
30
30
30
30
30
30
30
30
30
30
30
30
30
FC
ENDCHAR
STARTCHAR 004A
ENCODING 74
SWIDTH 528 0
DWIDTH 11 0
BBX 11 15 0 0
BITMAP
0FE0
0300
0300
0300
0300
0300
0300
0300
0300
0300
6300
E300
C300
6600
3C00
ENDCHAR
STARTCHAR 004B
ENCODING 75
SWIDTH 528 0
DWIDTH 11 0
BBX 11 15 0 0
BITMAP
F3E0
6100
6200
6200
6400
6800
7C00
6C00
6E00
6600
6600
6300
6300
6180
F3E0
ENDCHAR
STARTCHAR 004C
ENCODING 76
SWIDTH 528 0
DWIDTH 11 0
BBX 9 15 0 0
BITMAP
F800
6000
6000
6000
6000
6000
6000
6000
6000
6000
6000
6080
6080
6180
FF80
ENDCHAR
STARTCHAR 004D
ENCODING 77
SWIDTH 528 0
DWIDTH 11 0
BBX 11 15 0 0
BITMAP
E1E0
6180
7380
7380
7380
7780
5580
5D80
5D80
5D80
4980
4980
4980
4180
E3E0
ENDCHAR
STARTCHAR 004E
ENCODING 78
SWIDTH 528 0
DWIDTH 11 0
BBX 11 15 0 0
BITMAP
E1E0
7080
7080
5880
5880
4C80
4C80
4680
4680
4680
4380
4380
4180
4180
E080
ENDCHAR
STARTCHAR 004F
ENCODING 79
SWIDTH 528 0
DWIDTH 11 0
BBX 9 15 0 0
BITMAP
3E00
6300
6300
C180
C180
C180
C180
C180
C180
C180
C180
C180
6300
6300
3E00
ENDCHAR
STARTCHAR 0050
ENCODING 80
SWIDTH 528 0
DWIDTH 11 0
BBX 9 15 0 0
BITMAP
FE00
6300
6180
6180
6180
6180
6300
7E00
6000
6000
6000
6000
6000
6000
F000
ENDCHAR
STARTCHAR 0051
ENCODING 81
SWIDTH 528 0
DWIDTH 11 0
BBX 11 17 0 -2
BITMAP
3E00
6300
6300
C180
C180
C180
C180
C180
C180
C180
C180
DD80
6700
6700
3C60
07E0
0380
ENDCHAR
STARTCHAR 0052
ENCODING 82
SWIDTH 528 0
DWIDTH 11 0
BBX 11 15 0 0
BITMAP
FE00
6300
6180
6180
6180
6300
7E00
6C00
6E00
6600
6600
6300
6300
6180
F3E0
ENDCHAR
STARTCHAR 0053
ENCODING 83
SWIDTH 528 0
DWIDTH 11 0
BBX 8 15 1 0
BITMAP
3A
66
C3
C1
E0
70
3C
0E
0F
07
83
83
C3
E6
9C
ENDCHAR
STARTCHAR 0054
ENCODING 84
SWIDTH 528 0
DWIDTH 11 0
BBX 11 15 0 0
BITMAP
FFE0
CCE0
8C60
8C60
0C00
0C00
0C00
0C00
0C00
0C00
0C00
0C00
0C00
0C00
3F00
ENDCHAR
STARTCHAR 0055
ENCODING 85
SWIDTH 528 0
DWIDTH 11 0
BBX 11 15 0 0
BITMAP
F1E0
6080
6080
6080
6080
6080
6080
6080
6080
6080
6080
6080
6080
3100
1E00
ENDCHAR
STARTCHAR 0056
ENCODING 86
SWIDTH 528 0
DWIDTH 11 0
BBX 11 15 0 0
BITMAP
F1E0
6080
6080
3100
3100
3100
3100
1A00
1A00
1A00
1A00
0C00
0C00
0C00
0C00
ENDCHAR
STARTCHAR 0057
ENCODING 87
SWIDTH 528 0
DWIDTH 11 0
BBX 11 15 0 0
BITMAP
F1E0
6080
6480
6480
6480
6480
6E80
6E80
6A80
6A80
7B80
7B80
3100
3100
3100
ENDCHAR
STARTCHAR 0058
ENCODING 88
SWIDTH 528 0
DWIDTH 11 0
BBX 11 15 0 0
BITMAP
F3E0
6180
3100
3200
1A00
1C00
0C00
0E00
1E00
1600
1300
2300
2180
6180
F3E0
ENDCHAR
STARTCHAR 0059
ENCODING 89
SWIDTH 528 0
DWIDTH 11 0
BBX 11 15 0 0
BITMAP
F1E0
6080
6080
3100
3100
1A00
1E00
0C00
0C00
0C00
0C00
0C00
0C00
0C00
3F00
ENDCHAR
STARTCHAR 005A
ENCODING 90
SWIDTH 528 0
DWIDTH 11 0
BBX 9 15 0 0
BITMAP
7F80
6300
4300
4600
0600
0C00
0C00
1800
1800
1800
3000
3080
6080
6180
FF80
ENDCHAR
STARTCHAR 005B
ENCODING 91
SWIDTH 528 0
DWIDTH 11 0
BBX 5 17 3 -1
BITMAP
F8
C0
C0
C0
C0
C0
C0
C0
C0
C0
C0
C0
C0
C0
C0
C0
F8
ENDCHAR
STARTCHAR 005C
ENCODING 92
SWIDTH 528 0
DWIDTH 11 0
BBX 11 15 0 0
BITMAP
F3E0
6080
6180
3100
3300
1A00
7F80
0C00
0C00
0C00
7F80
0C00
0C00
0C00
3F00
ENDCHAR
STARTCHAR 005D
ENCODING 93
SWIDTH 528 0
DWIDTH 11 0
BBX 5 17 2 -1
BITMAP
F8
18
18
18
18
18
18
18
18
18
18
18
18
18
18
18
F8
ENDCHAR
STARTCHAR 005E
ENCODING 94
SWIDTH 528 0
DWIDTH 11 0
BBX 7 4 1 12
BITMAP
10
38
6C
82
ENDCHAR
STARTCHAR 005F
ENCODING 95
SWIDTH 528 0
DWIDTH 11 0
BBX 9 1 0 -1
BITMAP
FF80
ENDCHAR
STARTCHAR 0060
ENCODING 96
SWIDTH 528 0
DWIDTH 11 0
BBX 4 3 3 13
BITMAP
C0
E0
30
ENDCHAR
STARTCHAR 0061
ENCODING 97
SWIDTH 528 0
DWIDTH 11 0
BBX 10 11 1 0
BITMAP
3E00
6300
C300
0300
0300
3F00
6300
C300
C300
C700
7DC0
ENDCHAR
STARTCHAR 0062
ENCODING 98
SWIDTH 528 0
DWIDTH 11 0
BBX 9 15 0 0
BITMAP
E000
6000
6000
6000
6E00
7300
6180
6180
6180
6180
6180
6180
6180
7300
5E00
ENDCHAR
STARTCHAR 0063
ENCODING 99
SWIDTH 528 0
DWIDTH 11 0
BBX 8 11 1 0
BITMAP
3C
62
C3
C0
C0
C0
C0
C0
C1
62
3C
ENDCHAR
STARTCHAR 0064
ENCODING 100
SWIDTH 528 0
DWIDTH 11 0
BBX 10 15 1 0
BITMAP
0700
0300
0300
0300
3B00
6700
C300
C300
C300
C300
C300
C300
C300
6700
3BC0
ENDCHAR
STARTCHAR 0065
ENCODING 101
SWIDTH 528 0
DWIDTH 11 0
BBX 8 11 1 0
BITMAP
3C
66
C3
C3
C3
FF
C0
C0
C1
62
3C
ENDCHAR
STARTCHAR 0066
ENCODING 102
SWIDTH 528 0
DWIDTH 11 0
BBX 8 15 1 0
BITMAP
1E
33
33
30
FE
30
30
30
30
30
30
30
30
30
FC
ENDCHAR
STARTCHAR 0067
ENCODING 103
SWIDTH 528 0
DWIDTH 11 0
BBX 9 15 0 -3
BITMAP
0080
3D80
6200
6300
6300
6300
6300
3E00
4000
2000
5F00
C180
C180
C180
7F00
ENDCHAR
STARTCHAR 0068
ENCODING 104
SWIDTH 528 0
DWIDTH 11 0
BBX 11 15 0 0
BITMAP
E000
6000
6000
6000
6F00
7180
6180
6180
6180
6180
6180
6180
6180
6180
F3E0
ENDCHAR
STARTCHAR 0069
ENCODING 105
SWIDTH 528 0
DWIDTH 11 0
BBX 8 15 1 0
BITMAP
18
18
00
00
78
18
18
18
18
18
18
18
18
18
FF
ENDCHAR
STARTCHAR 006A
ENCODING 106
SWIDTH 528 0
DWIDTH 11 0
BBX 8 18 1 -3
BITMAP
03
03
00
00
1F
03
03
03
03
03
03
03
03
03
03
C3
C6
7C
ENDCHAR
STARTCHAR 006B
ENCODING 107
SWIDTH 528 0
DWIDTH 11 0
BBX 9 15 0 0
BITMAP
E000
6000
6000
6000
6780
6200
6400
6800
6800
7800
6C00
6600
6600
6300
F780
ENDCHAR
STARTCHAR 006C
ENCODING 108
SWIDTH 528 0
DWIDTH 11 0
BBX 8 15 1 0
BITMAP
78
18
18
18
18
18
18
18
18
18
18
18
18
18
FF
ENDCHAR
STARTCHAR 006D
ENCODING 109
SWIDTH 528 0
DWIDTH 11 0
BBX 11 11 0 0
BITMAP
DB00
6D80
6D80
6D80
6D80
6D80
6D80
6D80
6D80
6D80
EDE0
ENDCHAR
STARTCHAR 006E
ENCODING 110
SWIDTH 528 0
DWIDTH 11 0
BBX 11 11 0 0
BITMAP
EF00
7180
6180
6180
6180
6180
6180
6180
6180
6180
F3E0
ENDCHAR
STARTCHAR 006F
ENCODING 111
SWIDTH 528 0
DWIDTH 11 0
BBX 8 11 1 0
BITMAP
3C
66
C3
C3
C3
C3
C3
C3
C3
66
3C
ENDCHAR
STARTCHAR 0070
ENCODING 112
SWIDTH 528 0
DWIDTH 11 0
BBX 9 14 0 -3
BITMAP
EE00
7300
6180
6180
6180
6180
6180
6180
7300
6E00
6000
6000
6000
F000
ENDCHAR
STARTCHAR 0071
ENCODING 113
SWIDTH 528 0
DWIDTH 11 0
BBX 9 14 0 -3
BITMAP
3D00
6700
C300
C300
C300
C300
C300
C300
6700
3B00
0300
0300
0300
0780
ENDCHAR
STARTCHAR 0072
ENCODING 114
SWIDTH 528 0
DWIDTH 11 0
BBX 8 11 1 0
BITMAP
EE
73
63
60
60
60
60
60
60
60
F8
ENDCHAR
STARTCHAR 0073
ENCODING 115
SWIDTH 528 0
DWIDTH 11 0
BBX 8 11 1 0
BITMAP
7D
C7
C3
E0
F8
78
1E
87
C3
E3
BE
ENDCHAR
STARTCHAR 0074
ENCODING 116
SWIDTH 528 0
DWIDTH 11 0
BBX 8 15 1 0
BITMAP
10
10
30
30
FE
30
30
30
30
30
30
30
31
39
1E
ENDCHAR
STARTCHAR 0075
ENCODING 117
SWIDTH 528 0
DWIDTH 11 0
BBX 11 11 0 0
BITMAP
E380
6180
6180
6180
6180
6180
6180
6180
6180
6380
3DE0
ENDCHAR
STARTCHAR 0076
ENCODING 118
SWIDTH 528 0
DWIDTH 11 0
BBX 11 11 0 0
BITMAP
F3E0
6080
6080
3100
3100
3100
3100
1A00
1A00
0C00
0C00
ENDCHAR
STARTCHAR 0077
ENCODING 119
SWIDTH 528 0
DWIDTH 11 0
BBX 11 11 0 0
BITMAP
F3E0
6080
6480
6480
6480
6480
6E80
6A80
7B80
3100
3100
ENDCHAR
STARTCHAR 0078
ENCODING 120
SWIDTH 528 0
DWIDTH 11 0
BBX 9 11 0 0
BITMAP
F780
6300
3200
3400
3C00
1800
0C00
1600
2600
6300
F780
ENDCHAR
STARTCHAR 0079
ENCODING 121
SWIDTH 528 0
DWIDTH 11 0
BBX 9 14 0 -3
BITMAP
F380
6100
6100
3100
3300
3200
1A00
1A00
0C00
0C00
0400
C800
C800
7000
ENDCHAR
STARTCHAR 007A
ENCODING 122
SWIDTH 528 0
DWIDTH 11 0
BBX 8 11 1 0
BITMAP
FF
C6
8C
0C
08
18
18
30
61
63
FF
ENDCHAR
STARTCHAR 007B
ENCODING 123
SWIDTH 528 0
DWIDTH 11 0
BBX 5 20 2 -2
BITMAP
18
30
30
30
30
30
30
20
20
C0
20
20
20
30
30
30
30
30
30
18
ENDCHAR
STARTCHAR 007C
ENCODING 124
SWIDTH 528 0
DWIDTH 11 0
BBX 2 21 4 -3
BITMAP
C0
C0
C0
C0
C0
C0
C0
C0
C0
C0
C0
C0
C0
C0
C0
C0
C0
C0
C0
C0
C0
ENDCHAR
STARTCHAR 007D
ENCODING 125
SWIDTH 528 0
DWIDTH 11 0
BBX 5 20 3 -2
BITMAP
C0
60
60
60
60
60
60
20
20
18
20
20
20
60
60
60
60
60
60
C0
ENDCHAR
STARTCHAR 007E
ENCODING 126
SWIDTH 528 0
DWIDTH 11 0
BBX 9 2 0 16
BITMAP
FF80
FF80
ENDCHAR
STARTCHAR 00A0
ENCODING 160
SWIDTH 1008 0
DWIDTH 21 0
BBX 0 0 0 0
BITMAP
ENDCHAR
STARTCHAR 00A1
ENCODING 161
SWIDTH 1008 0
DWIDTH 21 0
BBX 4 19 8 -2
BITMAP
60
F0
60
00
00
60
60
60
60
F0
F0
F0
F0
F0
F0
F0
F0
F0
60
ENDCHAR
STARTCHAR 00A2
ENCODING 162
SWIDTH 528 0
DWIDTH 11 0
BBX 8 11 1 0
BITMAP
3C
66
C3
C3
C3
FF
C0
C0
C1
62
3C
ENDCHAR
STARTCHAR 00A3
ENCODING 163
SWIDTH 528 0
DWIDTH 11 0
BBX 8 11 1 0
BITMAP
3C
62
C1
60
7C
3C
60
C0
C1
62
3C
ENDCHAR
STARTCHAR 00A4
ENCODING 164
SWIDTH 1008 0
DWIDTH 21 0
BBX 16 16 2 0
BITMAP
8001
47E2
381C
2004
2004
4002
4002
4002
4002
4002
4002
2004
2004
300C
4812
87E1
ENDCHAR
STARTCHAR 00A5
ENCODING 165
SWIDTH 528 0
DWIDTH 11 0
BBX 10 11 1 0
BITMAP
3E00
E300
C300
0300
0300
0F00
7300
C300
C300
C700
7BC0
ENDCHAR
STARTCHAR 00A6
ENCODING 166
SWIDTH 1008 0
DWIDTH 21 0
BBX 2 21 10 -3
BITMAP
C0
C0
C0
C0
C0
C0
C0
C0
00
00
00
C0
C0
C0
C0
C0
C0
C0
C0
C0
C0
ENDCHAR
STARTCHAR 00A7
ENCODING 167
SWIDTH 1008 0
DWIDTH 21 0
BBX 11 19 5 -2
BITMAP
1F00
61C0
C060
C060
7000
3E00
2F80
41C0
C060
C060
F040
7040
3E80
0F80
01C0
C060
C060
70C0
1F00
ENDCHAR
STARTCHAR 00A8
ENCODING 168
SWIDTH 1008 0
DWIDTH 21 0
BBX 11 3 5 15
BITMAP
4040
E0E0
4040
ENDCHAR
STARTCHAR 00A9
ENCODING 169
SWIDTH 1008 0
DWIDTH 21 0
BBX 19 19 1 -2
BITMAP
03F800
0C0600
100100
21F280
470E40
460640
8C0220
8C0220
8C0020
8C0020
8C0020
8C0020
8C0220
460240
470440
21F880
100100
0C0600
03F800
ENDCHAR
STARTCHAR 00AA
ENCODING 170
SWIDTH 1008 0
DWIDTH 21 0
BBX 10 13 2 5
BITMAP
3E00
6380
C380
0380
3F80
6380
C380
C380
C780
7DC0
0000
FFC0
FFC0
ENDCHAR
STARTCHAR 00AB
ENCODING 171
SWIDTH 1008 0
DWIDTH 21 0
BBX 9 10 6 3
BITMAP
3980
6300
CE00
CE00
CE00
CE00
CE00
CE00
6300
3980
ENDCHAR
STARTCHAR 00AC
ENCODING 172
SWIDTH 528 0
DWIDTH 11 0
BBX 10 11 1 0
BITMAP
3B00
6700
6300
C300
C300
C300
C300
C300
C700
6B00
33C0
ENDCHAR
STARTCHAR 00AE
ENCODING 174
SWIDTH 1008 0
DWIDTH 21 0
BBX 19 19 1 -2
BITMAP
03F800
0C0600
100100
2FF880
460440
460640
860620
860420
87F820
867020
867820
861820
861820
460C40
460C40
2F0E80
100100
0C0600
03F800
ENDCHAR
STARTCHAR 00AF
ENCODING 175
SWIDTH 1008 0
DWIDTH 21 0
BBX 11 1 5 17
BITMAP
FFE0
ENDCHAR
STARTCHAR 00B0
ENCODING 176
SWIDTH 1008 0
DWIDTH 21 0
BBX 4 4 2 12
BITMAP
60
90
90
60
ENDCHAR
STARTCHAR 00B1
ENCODING 177
SWIDTH 1008 0
DWIDTH 21 0
BBX 14 15 3 0
BITMAP
0300
0300
0300
0300
0300
FFFC
0300
0300
0300
0300
0300
0300
0000
0000
FFFC
ENDCHAR
STARTCHAR 00B2
ENCODING 178
SWIDTH 1008 0
DWIDTH 21 0
BBX 9 12 2 5
BITMAP
3C00
6600
C380
C380
0600
0C00
1800
3000
4180
FF80
FE00
FE00
ENDCHAR
STARTCHAR 00B3
ENCODING 179
SWIDTH 1008 0
DWIDTH 21 0
BBX 9 12 2 5
BITMAP
3C00
6600
C380
C380
0600
1C00
0600
0380
C380
E600
E400
3C00
ENDCHAR
STARTCHAR 00B4
ENCODING 180
SWIDTH 1008 0
DWIDTH 21 0
BBX 7 4 7 14
BITMAP
1E
3C
70
80
ENDCHAR
STARTCHAR 00B5
ENCODING 181
SWIDTH 528 0
DWIDTH 11 0
BBX 11 11 0 0
BITMAP
F3E0
1200
1200
2100
2180
6180
C0E0
C0E0
C0E0
6180
1E00
ENDCHAR
STARTCHAR 00B6
ENCODING 182
SWIDTH 1008 0
DWIDTH 21 0
BBX 11 20 4 -3
BITMAP
1FE0
7E20
7E20
FE20
FE20
7E20
7E20
1E20
0620
0620
0620
0620
0620
0620
0620
0620
0620
0620
0620
0620
ENDCHAR
STARTCHAR 00B7
ENCODING 183
SWIDTH 1008 0
DWIDTH 21 0
BBX 5 5 8 5
BITMAP
70
F8
F8
F0
70
ENDCHAR
STARTCHAR 00B8
ENCODING 184
SWIDTH 1008 0
DWIDTH 21 0
BBX 7 7 7 -3
BITMAP
18
30
30
1C
86
86
7C
ENDCHAR
STARTCHAR 00B9
ENCODING 185
SWIDTH 1008 0
DWIDTH 21 0
BBX 7 12 2 5
BITMAP
08
18
38
D8
18
18
18
18
18
18
1E
7E
ENDCHAR
STARTCHAR 00BA
ENCODING 186
SWIDTH 1008 0
DWIDTH 21 0
BBX 9 13 2 5
BITMAP
3C00
6600
C380
C380
C380
C380
C380
C380
6600
3C00
0000
FF80
FF80
ENDCHAR
STARTCHAR 00BB
ENCODING 187
SWIDTH 1008 0
DWIDTH 21 0
BBX 9 10 6 3
BITMAP
CE00
6300
3980
3980
3980
3980
3980
3980
6300
CE00
ENDCHAR
STARTCHAR 00BC
ENCODING 188
SWIDTH 1008 0
DWIDTH 21 0
BBX 17 21 2 -3
BITMAP
00C000
01C000
07C000
01C000
01C000
01C000
01C000
07F000
000000
FFFF80
000000
00C000
00C000
01C000
03C000
05C000
09C000
11C000
1FF800
01C000
07F000
ENDCHAR
STARTCHAR 00BD
ENCODING 189
SWIDTH 1008 0
DWIDTH 21 0
BBX 17 21 2 -3
BITMAP
00C000
01C000
07C000
01C000
01C000
01C000
01C000
07F000
000000
FFFF80
000000
03E000
03E000
043000
0C1800
0C1800
003000
00E000
018800
07F800
0FF000
ENDCHAR
STARTCHAR 00BE
ENCODING 190
SWIDTH 1008 0
DWIDTH 21 0
BBX 17 21 2 -3
BITMAP
03F000
0C1800
0C1800
01F000
001800
0C1800
0C1800
07F000
000000
FFFF80
000000
00C000
00C000
01C000
03C000
05C000
09C000
11C000
1FF800
01C000
07F000
ENDCHAR
STARTCHAR 00BF
ENCODING 191
SWIDTH 1008 0
DWIDTH 21 0
BBX 12 19 4 -2
BITMAP
0600
0F00
0600
0000
0000
0600
0600
0600
0600
0E00
0800
3800
6000
C060
C0F0
C070
4020
20C0
1F00
ENDCHAR
STARTCHAR 00C0
ENCODING 192
SWIDTH 1008 0
DWIDTH 21 0
BBX 17 19 2 -1
BITMAP
060000
07C000
00F000
000000
01C000
01C000
02E000
02E000
04E000
043000
083000
083800
081800
1FF800
101800
301C00
200C00
600E00
F83F80
ENDCHAR
STARTCHAR 00C1
ENCODING 193
SWIDTH 1008 0
DWIDTH 21 0
BBX 17 19 2 -1
BITMAP
003000
01F000
038000
000000
01C000
01C000
02E000
02E000
04E000
043000
083000
083800
081800
1FF800
101800
301C00
200C00
600E00
F83F80
ENDCHAR
STARTCHAR 00C2
ENCODING 194
SWIDTH 1008 0
DWIDTH 21 0
BBX 17 19 2 -1
BITMAP
01C000
01C000
022000
000000
01C000
01C000
02E000
02E000
04E000
043000
083000
083800
081800
1FF800
101800
301C00
200C00
600E00
F83F80
ENDCHAR
STARTCHAR 00C3
ENCODING 195
SWIDTH 1008 0
DWIDTH 21 0
BBX 17 19 2 -1
BITMAP
039000
05D000
04E000
000000
01C000
01C000
02E000
02E000
04E000
043000
083000
083800
081800
1FF800
101800
301C00
200C00
600E00
F83F80
ENDCHAR
STARTCHAR 00C4
ENCODING 196
SWIDTH 1008 0
DWIDTH 21 0
BBX 17 19 2 -1
BITMAP
063000
063000
000000
000000
01C000
01C000
02E000
02E000
04E000
043000
083000
083800
081800
1FF800
101800
301C00
200C00
600E00
F83F80
ENDCHAR
STARTCHAR 00C5
ENCODING 197
SWIDTH 1008 0
DWIDTH 21 0
BBX 17 19 2 -1
BITMAP
01C000
022000
022000
01C000
018000
01C000
02E000
02E000
04E000
043000
083000
083800
081800
1FF800
101800
301C00
200C00
600E00
F83F80
ENDCHAR
STARTCHAR 00C6
ENCODING 198
SWIDTH 1008 0
DWIDTH 21 0
BBX 19 17 0 -1
BITMAP
03FFE0
00F860
00B820
01B820
013880
033880
023980
063F80
07F980
043980
0C3880
083880
183800
183820
303820
303860
FCFFE0
ENDCHAR
STARTCHAR 00C7
ENCODING 199
SWIDTH 1008 0
DWIDTH 21 0
BBX 14 19 3 -3
BITMAP
07C8
1838
3018
600C
6004
C000
C000
C000
C000
C000
C000
6004
6008
3030
0FC0
0300
01E0
1830
07E0
ENDCHAR
STARTCHAR 00C8
ENCODING 200
SWIDTH 1008 0
DWIDTH 21 0
BBX 14 19 3 -1
BITMAP
0C00
0F80
01E0
0000
FFFC
300C
3004
3044
3040
31C0
3FC0
31C0
31C0
3040
3040
3004
3004
300C
FFFC
ENDCHAR
STARTCHAR 00C9
ENCODING 201
SWIDTH 1008 0
DWIDTH 21 0
BBX 14 19 3 -1
BITMAP
0060
03E0
0700
0000
FFFC
300C
3004
3044
3040
31C0
3FC0
31C0
31C0
3040
3040
3004
3004
300C
FFFC
ENDCHAR
STARTCHAR 00CA
ENCODING 202
SWIDTH 1008 0
DWIDTH 21 0
BBX 14 19 3 -1
BITMAP
0380
0380
0440
0000
FFFC
300C
3004
3044
3040
31C0
3FC0
31C0
31C0
3040
3040
3004
3004
300C
FFFC
ENDCHAR
STARTCHAR 00CB
ENCODING 203
SWIDTH 1008 0
DWIDTH 21 0
BBX 14 19 3 -1
BITMAP
0C60
0C60
0000
0000
FFFC
300C
3004
3044
3040
31C0
3FC0
31C0
31C0
3040
3040
3004
3004
300C
FFFC
ENDCHAR
STARTCHAR 00CC
ENCODING 204
SWIDTH 1008 0
DWIDTH 21 0
BBX 9 19 6 -1
BITMAP
6000
7C00
0F00
0000
FF80
1C00
1C00
1C00
1C00
1C00
1C00
1C00
1C00
1C00
1C00
1C00
1C00
1C00
FF80
ENDCHAR
STARTCHAR 00CD
ENCODING 205
SWIDTH 1008 0
DWIDTH 21 0
BBX 9 19 6 -1
BITMAP
0300
1F00
7800
0000
FF80
1C00
1C00
1C00
1C00
1C00
1C00
1C00
1C00
1C00
1C00
1C00
1C00
1C00
FF80
ENDCHAR
STARTCHAR 00CE
ENCODING 206
SWIDTH 1008 0
DWIDTH 21 0
BBX 9 19 6 -1
BITMAP
1C00
1C00
2200
0000
FF80
1C00
1C00
1C00
1C00
1C00
1C00
1C00
1C00
1C00
1C00
1C00
1C00
1C00
FF80
ENDCHAR
STARTCHAR 00CF
ENCODING 207
SWIDTH 1008 0
DWIDTH 21 0
BBX 9 19 6 -1
BITMAP
6300
6300
0000
0000
FF80
1C00
1C00
1C00
1C00
1C00
1C00
1C00
1C00
1C00
1C00
1C00
1C00
1C00
FF80
ENDCHAR
STARTCHAR 00D0
ENCODING 208
SWIDTH 1008 0
DWIDTH 21 0
BBX 14 17 3 -1
BITMAP
FF80
3060
3030
3018
3018
300C
300C
FF8C
300C
300C
300C
300C
301C
3018
3030
31E0
FF80
ENDCHAR
STARTCHAR 00D1
ENCODING 209
SWIDTH 1008 0
DWIDTH 21 0
BBX 16 19 2 -1
BITMAP
0390
05D0
04E0
F81F
3C04
2C04
2E04
2784
2384
23C4
21E4
21E4
20E4
20F4
203C
201C
200C
200C
F804
ENDCHAR
STARTCHAR 00D2
ENCODING 210
SWIDTH 1008 0
DWIDTH 21 0
BBX 16 19 2 -1
BITMAP
0600
07C0
00E0
0000
07E0
1818
300C
6006
6006
C003
C003
C003
C003
C003
6006
6006
300C
1818
07E0
ENDCHAR
STARTCHAR 00D3
ENCODING 211
SWIDTH 1008 0
DWIDTH 21 0
BBX 16 19 2 -1
BITMAP
00E0
03E0
0600
0000
07E0
1818
300C
6006
6006
C003
C003
C003
C003
C003
6006
6006
300C
1818
07E0
ENDCHAR
STARTCHAR 00D4
ENCODING 212
SWIDTH 1008 0
DWIDTH 21 0
BBX 16 19 2 -1
BITMAP
0180
03C0
0420
0000
07E0
1818
300C
6006
6006
C003
C003
C003
C003
C003
6006
6006
300C
1818
07E0
ENDCHAR
STARTCHAR 00D5
ENCODING 213
SWIDTH 1008 0
DWIDTH 21 0
BBX 16 19 2 -1
BITMAP
0610
0BD0
08E0
0000
07E0
1818
300C
6006
6006
C003
C003
C003
C003
C003
6006
6006
300C
1818
07E0
ENDCHAR
STARTCHAR 00D6
ENCODING 214
SWIDTH 1008 0
DWIDTH 21 0
BBX 16 19 2 -1
BITMAP
0C30
0C30
0000
0000
07E0
1818
300C
6006
6006
C003
C003
C003
C003
C003
6006
6006
300C
1818
07E0
ENDCHAR
STARTCHAR 00D7
ENCODING 215
SWIDTH 1008 0
DWIDTH 21 0
BBX 11 11 5 2
BITMAP
8020
4040
2080
1100
0E00
0E00
1100
1100
2080
4040
8020
ENDCHAR
STARTCHAR 00D8
ENCODING 216
SWIDTH 1008 0
DWIDTH 21 0
BBX 16 19 2 -2
BITMAP
0002
07E4
1818
300C
6016
6026
C023
C0C3
C183
C183
C203
C203
C403
6406
6806
300C
1818
27E0
4000
ENDCHAR
STARTCHAR 00D9
ENCODING 217
SWIDTH 1008 0
DWIDTH 21 0
BBX 17 19 2 -1
BITMAP
060000
07C000
00F000
000000
FC0F80
300200
300200
300200
300200
300200
300200
300200
300200
300200
300200
180400
180400
0C1800
03E000
ENDCHAR
STARTCHAR 00DA
ENCODING 218
SWIDTH 1008 0
DWIDTH 21 0
BBX 17 19 2 -1
BITMAP
003000
01F000
078000
000000
FC0F80
300200
300200
300200
300200
300200
300200
300200
300200
300200
300200
180400
180400
0C1800
03E000
ENDCHAR
STARTCHAR 00DB
ENCODING 219
SWIDTH 1008 0
DWIDTH 21 0
BBX 17 19 2 -1
BITMAP
00C000
01E000
021000
000000
FC0F80
300200
300200
300200
300200
300200
300200
300200
300200
300200
300200
180400
180400
0C1800
03E000
ENDCHAR
STARTCHAR 00DC
ENCODING 220
SWIDTH 1008 0
DWIDTH 21 0
BBX 17 19 2 -1
BITMAP
061800
061800
000000
000000
FC0F80
300200
300200
300200
300200
300200
300200
300200
300200
300200
300200
180400
180400
0C1800
03E000
ENDCHAR
STARTCHAR 00DD
ENCODING 221
SWIDTH 1008 0
DWIDTH 21 0
BBX 17 19 2 -1
BITMAP
003000
01F000
038000
000000
FE1F80
380600
180C00
0C0800
061000
062000
03A000
03E000
01C000
01C000
01C000
01C000
01C000
01C000
07F000
ENDCHAR
STARTCHAR 00DE
ENCODING 222
SWIDTH 1008 0
DWIDTH 21 0
BBX 13 17 4 -1
BITMAP
FE00
3000
3000
3F80
3060
3030
3018
3018
3018
3018
3038
3030
30E0
3F80
3000
3000
FE00
ENDCHAR
STARTCHAR 00DF
ENCODING 223
SWIDTH 1008 0
DWIDTH 21 0
BBX 14 18 3 -1
BITMAP
0FC0
1830
1018
3008
3018
3030
3060
31C0
3180
31C0
31F0
3070
3038
300C
340C
370C
3318
F9E0
ENDCHAR
STARTCHAR 00E0
ENCODING 224
SWIDTH 1008 0
DWIDTH 21 0
BBX 12 17 5 -1
BITMAP
3000
3E00
0780
0000
0000
1F80
60C0
E0C0
40C0
40C0
07C0
3CC0
60C0
C0C0
C0C0
C1D0
7E60
ENDCHAR
STARTCHAR 00E1
ENCODING 225
SWIDTH 1008 0
DWIDTH 21 0
BBX 12 17 5 -1
BITMAP
0180
0F80
3C00
0000
0000
1F80
60C0
E0C0
40C0
40C0
07C0
3CC0
60C0
C0C0
C0C0
C1D0
7E60
ENDCHAR
STARTCHAR 00E2
ENCODING 226
SWIDTH 1008 0
DWIDTH 21 0
BBX 12 17 5 -1
BITMAP
0E00
0E00
1100
0000
0000
1F80
60C0
E0C0
40C0
40C0
07C0
3CC0
60C0
C0C0
C0C0
C1D0
7E60
ENDCHAR
STARTCHAR 00E3
ENCODING 227
SWIDTH 1008 0
DWIDTH 21 0
BBX 12 17 5 -1
BITMAP
1C80
2E80
2700
0000
0000
1F80
60C0
E0C0
40C0
40C0
07C0
3CC0
60C0
C0C0
C0C0
C1D0
7E60
ENDCHAR
STARTCHAR 00E4
ENCODING 228
SWIDTH 1008 0
DWIDTH 21 0
BBX 12 17 5 -1
BITMAP
3180
3180
0000
0000
0000
1F80
60C0
E0C0
40C0
40C0
07C0
3CC0
60C0
C0C0
C0C0
C1D0
7E60
ENDCHAR
STARTCHAR 00E5
ENCODING 229
SWIDTH 1008 0
DWIDTH 21 0
BBX 12 17 5 -1
BITMAP
0E00
1100
1100
0E00
0000
1F80
60C0
E0C0
40C0
40C0
07C0
3CC0
60C0
C0C0
C0C0
C1D0
7E60
ENDCHAR
STARTCHAR 00E6
ENCODING 230
SWIDTH 1008 0
DWIDTH 21 0
BBX 18 12 1 -1
BITMAP
1F1F00
61F180
E1E0C0
41C0C0
41C0C0
07FFC0
39C000
61C000
C1C000
C1E040
C37080
7C1F00
ENDCHAR
STARTCHAR 00E7
ENCODING 231
SWIDTH 1008 0
DWIDTH 21 0
BBX 11 15 5 -3
BITMAP
1F80
70C0
60E0
C040
C000
C000
C000
C000
6020
7040
1F80
0C00
0780
60C0
1F80
ENDCHAR
STARTCHAR 00E8
ENCODING 232
SWIDTH 1008 0
DWIDTH 21 0
BBX 11 17 5 -1
BITMAP
3C00
3F00
01C0
0000
0000
1F80
70C0
6060
C060
C060
FFE0
C000
C000
C000
6020
7040
1F80
ENDCHAR
STARTCHAR 00E9
ENCODING 233
SWIDTH 1008 0
DWIDTH 21 0
BBX 11 17 5 -1
BITMAP
01C0
0FC0
3C00
0000
0000
1F80
70C0
6060
C060
C060
FFE0
C000
C000
C000
6020
7040
1F80
ENDCHAR
STARTCHAR 00EA
ENCODING 234
SWIDTH 1008 0
DWIDTH 21 0
BBX 11 17 5 -1
BITMAP
0600
0F00
1080
0000
0000
1F80
70C0
6060
C060
C060
FFE0
C000
C000
C000
6020
7040
1F80
ENDCHAR
STARTCHAR 00EB
ENCODING 235
SWIDTH 1008 0
DWIDTH 21 0
BBX 11 17 5 -1
BITMAP
30C0
30C0
0000
0000
0000
1F80
70C0
6060
C060
C060
FFE0
C000
C000
C000
6020
7040
1F80
ENDCHAR
STARTCHAR 00EC
ENCODING 236
SWIDTH 1008 0
DWIDTH 21 0
BBX 7 17 7 -1
BITMAP
C0
F8
1E
00
00
F8
38
38
38
38
38
38
38
38
38
38
FE
ENDCHAR
STARTCHAR 00ED
ENCODING 237
SWIDTH 1008 0
DWIDTH 21 0
BBX 7 17 7 -1
BITMAP
06
3E
F0
00
00
F8
38
38
38
38
38
38
38
38
38
38
FE
ENDCHAR
STARTCHAR 00EE
ENCODING 238
SWIDTH 1008 0
DWIDTH 21 0
BBX 7 17 7 -1
BITMAP
38
38
44
00
00
F8
38
38
38
38
38
38
38
38
38
38
FE
ENDCHAR
STARTCHAR 00EF
ENCODING 239
SWIDTH 1008 0
DWIDTH 21 0
BBX 7 17 7 -1
BITMAP
C6
C6
00
00
00
F8
38
38
38
38
38
38
38
38
38
38
FE
ENDCHAR
STARTCHAR 00F0
ENCODING 240
SWIDTH 1008 0
DWIDTH 21 0
BBX 12 17 5 -1
BITMAP
3030
0EC0
0700
1D80
60C0
07C0
1CC0
2060
6060
4060
C060
C060
C060
C060
60C0
71C0
1F00
ENDCHAR
STARTCHAR 00F1
ENCODING 241
SWIDTH 1008 0
DWIDTH 21 0
BBX 14 17 3 -1
BITMAP
0C40
1740
1380
0000
0000
F7C0
3860
3030
3030
3030
3030
3030
3030
3030
3030
3030
FDFC
ENDCHAR
STARTCHAR 00F2
ENCODING 242
SWIDTH 1008 0
DWIDTH 21 0
BBX 11 17 5 -1
BITMAP
3000
3E00
0780
0000
0000
1F00
71C0
60C0
C060
C060
C060
C060
C060
C060
60C0
71C0
1F00
ENDCHAR
STARTCHAR 00F3
ENCODING 243
SWIDTH 1008 0
DWIDTH 21 0
BBX 11 17 5 -1
BITMAP
0180
0F80
3C00
0000
0000
1F00
71C0
60C0
C060
C060
C060
C060
C060
C060
60C0
71C0
1F00
ENDCHAR
STARTCHAR 00F4
ENCODING 244
SWIDTH 1008 0
DWIDTH 21 0
BBX 11 17 5 -1
BITMAP
0E00
0E00
1100
0000
0000
1F00
71C0
60C0
C060
C060
C060
C060
C060
C060
60C0
71C0
1F00
ENDCHAR
STARTCHAR 00F5
ENCODING 245
SWIDTH 1008 0
DWIDTH 21 0
BBX 11 17 5 -1
BITMAP
1C80
2E80
2700
0000
0000
1F00
71C0
60C0
C060
C060
C060
C060
C060
C060
60C0
71C0
1F00
ENDCHAR
STARTCHAR 00F6
ENCODING 246
SWIDTH 1008 0
DWIDTH 21 0
BBX 11 17 5 -1
BITMAP
3180
3180
0000
0000
0000
1F00
71C0
60C0
C060
C060
C060
C060
C060
C060
60C0
71C0
1F00
ENDCHAR
STARTCHAR 00F7
ENCODING 247
SWIDTH 1008 0
DWIDTH 21 0
BBX 15 12 3 2
BITMAP
0380
0380
0000
0000
0000
FFFE
0000
0000
0000
0000
0380
0380
ENDCHAR
STARTCHAR 00F8
ENCODING 248
SWIDTH 1008 0
DWIDTH 21 0
BBX 11 14 5 -2
BITMAP
0020
1F40
7180
60C0
C160
C260
C660
CE60
CC60
D060
60C0
21C0
5F00
8000
ENDCHAR
STARTCHAR 00F9
ENCODING 249
SWIDTH 1008 0
DWIDTH 21 0
BBX 14 17 3 -1
BITMAP
1800
1F00
03C0
0000
0000
F1F0
3030
3030
3030
3030
3030
3030
3030
3030
3030
1870
0FBC
ENDCHAR
STARTCHAR 00FA
ENCODING 250
SWIDTH 1008 0
DWIDTH 21 0
BBX 14 17 3 -1
BITMAP
01C0
07C0
1C00
0000
0000
F1F0
3030
3030
3030
3030
3030
3030
3030
3030
3030
1870
0FBC
ENDCHAR
STARTCHAR 00FB
ENCODING 251
SWIDTH 1008 0
DWIDTH 21 0
BBX 14 17 3 -1
BITMAP
0700
0700
0980
0000
0000
F1F0
3030
3030
3030
3030
3030
3030
3030
3030
3030
1870
0FBC
ENDCHAR
STARTCHAR 00FC
ENCODING 252
SWIDTH 1008 0
DWIDTH 21 0
BBX 14 17 3 -1
BITMAP
19C0
19C0
0000
0000
0000
F1F0
3030
3030
3030
3030
3030
3030
3030
3030
3030
1870
0FBC
ENDCHAR
STARTCHAR 00FD
ENCODING 253
SWIDTH 1008 0
DWIDTH 21 0
BBX 13 19 4 -3
BITMAP
0060
07E0
1E00
0000
0000
F878
3020
3020
1840
1840
1840
0E80
0E80
0700
0700
0600
C600
E800
7000
ENDCHAR
STARTCHAR 00FE
ENCODING 254
SWIDTH 1008 0
DWIDTH 21 0
BBX 13 19 4 -3
BITMAP
F000
3000
3000
3000
3000
37C0
3870
3030
3018
3018
3018
3018
3018
3018
3030
3860
3780
3000
FE00
ENDCHAR
STARTCHAR 00FF
ENCODING 255
SWIDTH 1008 0
DWIDTH 21 0
BBX 13 19 4 -3
BITMAP
1860
1860
0000
0000
0000
F878
3020
3020
1840
1840
1840
0E80
0E80
0700
0700
0600
C600
E800
7000
ENDCHAR
STARTCHAR 0100
ENCODING 256
SWIDTH 1008 0
DWIDTH 21 0
BBX 17 19 2 -1
BITMAP
1FFC00
000000
018000
01C000
03C000
02E000
02E000
04E000
043000
083000
083000
083800
081800
1FF800
101C00
200C00
200C00
600E00
F83F80
ENDCHAR
STARTCHAR 0101
ENCODING 257
SWIDTH 1008 0
DWIDTH 21 0
BBX 12 16 5 -1
BITMAP
3F80
0000
0000
0000
1F80
60C0
E0C0
40C0
40C0
07C0
3CC0
60C0
C0C0
C0C0
C1D0
7E60
ENDCHAR
STARTCHAR 0102
ENCODING 258
SWIDTH 1008 0
DWIDTH 21 0
BBX 17 19 2 -1
BITMAP
022000
022000
01C000
000000
01C000
01C000
02E000
02E000
04E000
043000
083000
083800
081800
1FF800
101800
301C00
200C00
600E00
F83F80
ENDCHAR
STARTCHAR 0103
ENCODING 259
SWIDTH 1008 0
DWIDTH 21 0
BBX 12 17 5 -1
BITMAP
1080
1080
0F00
0000
0000
1F80
60C0
E0C0
40C0
40C0
07C0
3CC0
60C0
C0C0
C0C0
C1D0
7E60
ENDCHAR
STARTCHAR 0104
ENCODING 260
SWIDTH 1008 0
DWIDTH 21 0
BBX 19 19 2 -3
BITMAP
018000
01C000
03C000
02E000
02E000
04E000
043000
083000
083000
083800
081800
1FF800
101C00
200C00
200C00
600E00
F83F00
000160
0000E0
ENDCHAR
STARTCHAR 0105
ENCODING 261
SWIDTH 1008 0
DWIDTH 21 0
BBX 14 14 5 -3
BITMAP
1F80
60C0
E0C0
40C0
40C0
07C0
3CC0
60C0
C0C0
C0C0
C1D0
7E60
004C
003C
ENDCHAR
STARTCHAR 0106
ENCODING 262
SWIDTH 1008 0
DWIDTH 21 0
BBX 14 19 3 -1
BITMAP
0060
03E0
0F00
0000
07C8
1838
3018
600C
E004
C000
C000
C000
C000
C000
E000
6004
3008
1830
07C0
ENDCHAR
STARTCHAR 0107
ENCODING 263
SWIDTH 1008 0
DWIDTH 21 0
BBX 11 17 5 -1
BITMAP
01C0
0FC0
3C00
0000
0000
1F80
70C0
60E0
C040
C040
C000
C000
C000
C000
6020
7040
1F80
ENDCHAR
STARTCHAR 0108
ENCODING 264
SWIDTH 1008 0
DWIDTH 21 0
BBX 14 19 3 -1
BITMAP
0380
0380
0440
0000
07C8
1838
3018
600C
6004
C000
C000
C000
C000
C000
6000
6004
3008
1830
07C0
ENDCHAR
STARTCHAR 0109
ENCODING 265
SWIDTH 1008 0
DWIDTH 21 0
BBX 11 17 5 -1
BITMAP
0600
0F00
1080
0000
0000
1F80
70C0
60E0
C040
C040
C000
C000
C000
C000
6020
7040
1F80
ENDCHAR
STARTCHAR 010C
ENCODING 268
SWIDTH 1008 0
DWIDTH 21 0
BBX 14 19 3 -1
BITMAP
0440
0380
0380
0000
07C8
1838
3018
600C
E004
C000
C000
C000
C000
C000
E000
6004
3008
1830
07C0
ENDCHAR
STARTCHAR 010D
ENCODING 269
SWIDTH 1008 0
DWIDTH 21 0
BBX 11 17 5 -1
BITMAP
1080
0F00
0600
0000
0000
1F80
70C0
60E0
C040
C040
C000
C000
C000
C000
6020
7040
1F80
ENDCHAR
STARTCHAR 010E
ENCODING 270
SWIDTH 1008 0
DWIDTH 21 0
BBX 14 19 3 -1
BITMAP
0840
0780
0300
0000
FF80
3060
3030
3018
3018
300C
300C
300C
300C
300C
301C
3018
3030
31E0
FF80
ENDCHAR
STARTCHAR 010F
ENCODING 271
SWIDTH 1008 0
DWIDTH 21 0
BBX 13 19 4 -1
BITMAP
1080
0F00
0600
03E0
0060
0060
0060
0060
1F60
70E0
6060
4060
C060
C060
C060
C060
6060
70E0
1F78
ENDCHAR
STARTCHAR 0111
ENCODING 273
SWIDTH 1008 0
DWIDTH 21 0
BBX 14 17 4 -1
BITMAP
03E0
0060
0060
0FFC
0060
0060
1F60
70E0
6060
4060
C060
C060
C060
C060
6060
70E0
1F78
ENDCHAR
STARTCHAR 0112
ENCODING 274
SWIDTH 1008 0
DWIDTH 21 0
BBX 14 19 3 -1
BITMAP
3FF0
0000
0000
FFFC
300C
3004
3004
3040
3040
31C0
3FC0
31C0
31C0
3040
3040
3004
3004
300C
FFFC
ENDCHAR
STARTCHAR 0113
ENCODING 275
SWIDTH 1008 0
DWIDTH 21 0
BBX 11 16 5 -1
BITMAP
3FC0
0000
0000
0000
1F80
70C0
6060
C060
C060
FFE0
C000
C000
C000
6020
7040
1F80
ENDCHAR
STARTCHAR 0118
ENCODING 280
SWIDTH 1008 0
DWIDTH 21 0
BBX 14 19 3 -3
BITMAP
FFFC
300C
3004
3004
3040
3040
31C0
3FC0
31C0
31C0
3040
3040
3004
3004
300C
FFFC
0020
004C
0038
ENDCHAR
STARTCHAR 0119
ENCODING 281
SWIDTH 1008 0
DWIDTH 21 0
BBX 12 14 5 -3
BITMAP
1F80
70C0
6060
C060
C060
FFE0
C000
C000
C000
6020
7040
1F80
00B0
0060
ENDCHAR
STARTCHAR 011A
ENCODING 282
SWIDTH 1008 0
DWIDTH 21 0
BBX 14 19 3 -1
BITMAP
0440
0380
0380
0000
FFFC
300C
3004
3044
3040
31C0
3FC0
31C0
31C0
3040
3040
3004
3004
300C
FFFC
ENDCHAR
STARTCHAR 011B
ENCODING 283
SWIDTH 1008 0
DWIDTH 21 0
BBX 11 17 5 -1
BITMAP
1080
0F00
0600
0000
0000
1F80
70C0
6060
C060
C060
FFE0
C000
C000
C000
6020
7040
1F80
ENDCHAR
STARTCHAR 011C
ENCODING 284
SWIDTH 1008 0
DWIDTH 21 0
BBX 15 19 3 -1
BITMAP
0380
0380
0440
0000
07C8
1838
301C
600C
6004
C000
C000
C07E
C07E
C00C
600C
600C
301C
182C
07C4
ENDCHAR
STARTCHAR 011D
ENCODING 285
SWIDTH 1008 0
DWIDTH 21 0
BBX 14 19 4 -3
BITMAP
0600
0F00
1080
0000
001C
0F2C
30C0
6060
6060
7040
30C0
0F00
1000
1F00
67E0
C070
C030
6030
3FC0
ENDCHAR
STARTCHAR 0124
ENCODING 292
SWIDTH 1008 0
DWIDTH 21 0
BBX 16 19 2 -1
BITMAP
0180
03C0
0420
0000
FC3F
300C
300C
300C
300C
300C
3FFC
300C
300C
300C
300C
300C
300C
300C
FC3F
ENDCHAR
STARTCHAR 0125
ENCODING 293
SWIDTH 1008 0
DWIDTH 21 0
BBX 14 19 4 -1
BITMAP
0380
0380
0640
F000
3000
3000
3000
3000
37C0
3860
3030
3030
3030
3030
3030
3030
3030
3030
FEFC
ENDCHAR
STARTCHAR 0127
ENCODING 295
SWIDTH 1008 0
DWIDTH 21 0
BBX 14 17 4 -1
BITMAP
F000
3000
3000
FF00
3000
3000
37C0
3860
3030
3030
3030
3030
3030
3030
3030
3030
FEFC
ENDCHAR
STARTCHAR 012A
ENCODING 298
SWIDTH 1008 0
DWIDTH 21 0
BBX 9 19 6 -1
BITMAP
FF80
0000
0000
7F00
1C00
1C00
1C00
1C00
1C00
1C00
1C00
1C00
1C00
1C00
1C00
1C00
1C00
1C00
7F00
ENDCHAR
STARTCHAR 012B
ENCODING 299
SWIDTH 1008 0
DWIDTH 21 0
BBX 7 16 7 -1
BITMAP
FE
00
00
00
F8
38
38
38
38
38
38
38
38
38
38
FE
ENDCHAR
STARTCHAR 0134
ENCODING 308
SWIDTH 1008 0
DWIDTH 21 0
BBX 13 19 4 -1
BITMAP
0060
0060
0090
0000
03F8
0060
0060
0060
0060
0060
0060
0060
0060
0060
6060
E060
C0C0
63C0
1F00
ENDCHAR
STARTCHAR 0135
ENCODING 309
SWIDTH 1008 0
DWIDTH 21 0
BBX 10 19 5 -3
BITMAP
0100
0780
0C40
0000
0000
0F80
0180
0180
0180
0180
0180
0180
0180
0180
0180
0180
C180
C700
7C00
ENDCHAR
STARTCHAR 0139
ENCODING 313
SWIDTH 1008 0
DWIDTH 21 0
BBX 14 19 3 -1
BITMAP
0060
03E0
0F00
0000
FC00
3000
3000
3000
3000
3000
3000
3000
3000
3000
3000
3004
3004
300C
FFFC
ENDCHAR
STARTCHAR 013A
ENCODING 314
SWIDTH 1008 0
DWIDTH 21 0
BBX 7 19 7 -1
BITMAP
06
3E
F0
00
F8
38
38
38
38
38
38
38
38
38
38
38
38
38
FE
ENDCHAR
STARTCHAR 013D
ENCODING 317
SWIDTH 1008 0
DWIDTH 21 0
BBX 14 19 3 -1
BITMAP
0840
0780
0300
FC00
3000
3000
3000
3000
3000
3000
3000
3000
3000
3000
3000
3004
3004
300C
FFFC
ENDCHAR
STARTCHAR 013E
ENCODING 318
SWIDTH 1008 0
DWIDTH 21 0
BBX 7 19 7 -1
BITMAP
44
38
38
00
F8
38
38
38
38
38
38
38
38
38
38
38
38
38
FE
ENDCHAR
STARTCHAR 0141
ENCODING 321
SWIDTH 1008 0
DWIDTH 21 0
BBX 15 17 2 -1
BITMAP
7E00
1800
1800
1800
1980
1A00
1C00
1800
3800
7800
5800
9800
1800
1802
1802
1806
7FFE
ENDCHAR
STARTCHAR 0142
ENCODING 322
SWIDTH 1008 0
DWIDTH 21 0
BBX 9 17 6 -1
BITMAP
7C00
1C00
1C00
1C00
1C80
1D00
1E00
1C00
3C00
7C00
5C00
9C00
1C00
1C00
1C00
1C00
7F00
ENDCHAR
STARTCHAR 0143
ENCODING 323
SWIDTH 1008 0
DWIDTH 21 0
BBX 16 19 2 -1
BITMAP
0030
01F0
0380
F81F
3C04
2C04
2E04
2784
2384
23C4
21C4
21E4
21E4
20F4
2034
203C
201C
200C
F804
ENDCHAR
STARTCHAR 0144
ENCODING 324
SWIDTH 1008 0
DWIDTH 21 0
BBX 14 17 3 -1
BITMAP
01C0
07C0
1C00
0000
0000
F7C0
3860
3030
3030
3030
3030
3030
3030
3030
3030
3030
FDFC
ENDCHAR
STARTCHAR 0147
ENCODING 327
SWIDTH 1008 0
DWIDTH 21 0
BBX 16 19 2 -1
BITMAP
0420
03C0
0180
F81F
3C04
2C04
2E04
2784
2384
23C4
21C4
21E4
21E4
20F4
2034
203C
201C
200C
F804
ENDCHAR
STARTCHAR 0148
ENCODING 328
SWIDTH 1008 0
DWIDTH 21 0
BBX 14 17 3 -1
BITMAP
0840
0780
0300
0000
0000
F7C0
3860
3030
3030
3030
3030
3030
3030
3030
3030
3030
FDFC
ENDCHAR
STARTCHAR 014B
ENCODING 331
SWIDTH 1008 0
DWIDTH 21 0
BBX 12 16 4 -3
BITMAP
F7C0
3860
3030
3030
3030
3030
3030
3030
3030
3030
FE30
0030
0030
3030
3060
1F80
ENDCHAR
STARTCHAR 014C
ENCODING 332
SWIDTH 1008 0
DWIDTH 21 0
BBX 16 19 2 -1
BITMAP
1FF8
0000
0000
07E0
1818
300C
6006
6006
C003
C003
C003
C003
C003
C003
6006
6006
300C
1818
07E0
ENDCHAR
STARTCHAR 014D
ENCODING 333
SWIDTH 1008 0
DWIDTH 21 0
BBX 11 16 5 -1
BITMAP
7FC0
0000
0000
0000
1F00
71C0
60C0
C060
C060
C060
C060
C060
C060
60C0
71C0
1F00
ENDCHAR
STARTCHAR 0150
ENCODING 336
SWIDTH 1008 0
DWIDTH 21 0
BBX 16 19 2 -1
BITMAP
0398
0630
08C0
0000
07E0
1818
300C
6006
6006
C003
C003
C003
C003
C003
6006
6006
300C
1818
07E0
ENDCHAR
STARTCHAR 0151
ENCODING 337
SWIDTH 1008 0
DWIDTH 21 0
BBX 11 17 5 -1
BITMAP
1CC0
3180
4600
0000
0000
1F00
71C0
60C0
C060
C060
C060
C060
C060
C060
60C0
71C0
1F00
ENDCHAR
STARTCHAR 0152
ENCODING 338
SWIDTH 1008 0
DWIDTH 21 0
BBX 18 17 1 -1
BITMAP
07FFC0
18E0C0
30E040
60E040
60E100
C0E100
C0E300
C0FF00
C0E300
C0E300
C0E100
C0E100
60E000
60E040
30E040
18E0C0
07FFC0
ENDCHAR
STARTCHAR 0153
ENCODING 339
SWIDTH 1008 0
DWIDTH 21 0
BBX 19 12 1 -1
BITMAP
1E0F80
73D8C0
60F060
C0E060
C0E060
C0FFE0
C0E000
C0E000
C0E000
60F020
73D840
1E0F80
ENDCHAR
STARTCHAR 0154
ENCODING 340
SWIDTH 1008 0
DWIDTH 21 0
BBX 16 19 3 -1
BITMAP
0060
03E0
0F00
0000
FFE0
3018
300C
300C
300C
3018
3FE0
31C0
31C0
3060
3030
3030
3018
301C
FC1F
ENDCHAR
STARTCHAR 0155
ENCODING 341
SWIDTH 1008 0
DWIDTH 21 0
BBX 11 17 5 -1
BITMAP
0180
0F80
3C00
0000
0000
F1C0
36E0
3C40
3000
3000
3000
3000
3000
3000
3000
3000
FE00
ENDCHAR
STARTCHAR 0158
ENCODING 344
SWIDTH 1008 0
DWIDTH 21 0
BBX 16 19 3 -1
BITMAP
0440
0380
0380
0000
FFE0
3018
300C
300C
300C
3018
3FE0
31C0
31C0
3060
3030
3030
3018
301C
FC1F
ENDCHAR
STARTCHAR 0159
ENCODING 345
SWIDTH 1008 0
DWIDTH 21 0
BBX 11 17 5 -1
BITMAP
1080
1080
0F00
0000
0000
F1C0
36E0
3C40
3000
3000
3000
3000
3000
3000
3000
3000
FE00
ENDCHAR
STARTCHAR 015A
ENCODING 346
SWIDTH 1008 0
DWIDTH 21 0
BBX 13 19 4 -1
BITMAP
00E0
07E0
1E00
0000
3F90
60F0
C030
C010
F000
7F00
1FC0
1FF0
03F0
0038
8018
C018
E010
B830
8FC0
ENDCHAR
STARTCHAR 015B
ENCODING 347
SWIDTH 1008 0
DWIDTH 21 0
BBX 10 17 5 -1
BITMAP
0700
1F00
3000
0000
0000
3E80
6780
C080
E000
FC00
7C00
1F00
0780
80C0
C0C0
F180
9F00
ENDCHAR
STARTCHAR 015C
ENCODING 348
SWIDTH 1008 0
DWIDTH 21 0
BBX 13 19 4 -1
BITMAP
0600
0F00
1080
0000
3F90
60F0
C030
C010
F000
7F00
1FC0
1FF0
03F0
0038
8018
C018
E010
B830
8FC0
ENDCHAR
STARTCHAR 015D
ENCODING 349
SWIDTH 1008 0
DWIDTH 21 0
BBX 10 17 5 -1
BITMAP
0C00
1E00
2100
0000
0000
3E80
6780
C080
E000
FC00
7C00
1F00
0780
80C0
C0C0
F180
9F00
ENDCHAR
STARTCHAR 015E
ENCODING 350
SWIDTH 1008 0
DWIDTH 21 0
BBX 13 19 4 -3
BITMAP
3F90
60F0
C030
C010
F000
7F00
1FC0
03F0
0038
8038
8018
C018
E010
B830
8FC0
0600
03C0
3060
0FC0
ENDCHAR
STARTCHAR 015F
ENCODING 351
SWIDTH 1008 0
DWIDTH 21 0
BBX 10 16 5 -3
BITMAP
3E80
6780
C080
E000
7C00
1F00
1F80
0780
80C0
C0C0
F180
9F00
0C00
0780
60C0
1F80
ENDCHAR
STARTCHAR 0160
ENCODING 352
SWIDTH 1008 0
DWIDTH 21 0
BBX 13 19 4 -1
BITMAP
1080
0F00
0600
0000
3F90
60F0
C030
C010
F000
7F00
1FC0
1FF0
03F0
0038
8018
C018
E010
B830
8FC0
ENDCHAR
STARTCHAR 0161
ENCODING 353
SWIDTH 1008 0
DWIDTH 21 0
BBX 10 17 5 -1
BITMAP
2100
1E00
0C00
0000
0000
3E80
6780
C080
E000
FC00
7C00
1F00
0780
80C0
C0C0
F180
9F00
ENDCHAR
STARTCHAR 0162
ENCODING 354
SWIDTH 1008 0
DWIDTH 21 0
BBX 15 19 3 -3
BITMAP
FFFE
C386
8382
8382
0380
0380
0380
0380
0380
0380
0380
0380
0380
0380
0FE0
0300
01E0
1830
07E0
ENDCHAR
STARTCHAR 0163
ENCODING 355
SWIDTH 1008 0
DWIDTH 21 0
BBX 11 19 5 -3
BITMAP
0C00
0C00
0C00
1C00
1C00
FFC0
1C00
1C00
1C00
1C00
1C00
1C00
1C00
0E20
07C0
0C00
0780
20C0
1F80
ENDCHAR
STARTCHAR 0164
ENCODING 356
SWIDTH 1008 0
DWIDTH 21 0
BBX 15 19 3 -1
BITMAP
0440
0380
0380
0000
FFFE
C386
8382
8382
0380
0380
0380
0380
0380
0380
0380
0380
0380
0380
0FE0
ENDCHAR
STARTCHAR 0165
ENCODING 357
SWIDTH 1008 0
DWIDTH 21 0
BBX 11 19 5 -1
BITMAP
2100
1E00
0C00
0000
0C00
0C00
1C00
1C00
FFC0
1C00
1C00
1C00
1C00
1C00
1C00
1C00
1C00
0E20
07C0
ENDCHAR
STARTCHAR 016A
ENCODING 362
SWIDTH 1008 0
DWIDTH 21 0
BBX 17 19 2 -1
BITMAP
1FFC00
000000
000000
FC0F80
300200
300200
300200
300200
300200
300200
300200
300200
300200
300200
300200
180400
180400
0C1800
03E000
ENDCHAR
STARTCHAR 016B
ENCODING 363
SWIDTH 1008 0
DWIDTH 21 0
BBX 14 16 3 -1
BITMAP
3FE0
0000
0000
0000
F1F0
3030
3030
3030
3030
3030
3030
3030
3030
3030
1870
0FBC
ENDCHAR
STARTCHAR 016C
ENCODING 364
SWIDTH 1008 0
DWIDTH 21 0
BBX 17 19 2 -1
BITMAP
021000
01E000
00C000
000000
FC0F80
300200
300200
300200
300200
300200
300200
300200
300200
300200
300200
180400
180400
0C1800
03E000
ENDCHAR
STARTCHAR 016D
ENCODING 365
SWIDTH 1008 0
DWIDTH 21 0
BBX 14 17 3 -1
BITMAP
0980
0700
0700
0000
0000
F1F0
3030
3030
3030
3030
3030
3030
3030
3030
3030
1870
0FBC
ENDCHAR
STARTCHAR 016E
ENCODING 366
SWIDTH 1008 0
DWIDTH 21 0
BBX 17 19 2 -1
BITMAP
01C000
022000
022000
01C000
FC0F80
300200
300200
300200
300200
300200
300200
300200
300200
300200
300200
180400
180400
0C1800
03E000
ENDCHAR
STARTCHAR 016F
ENCODING 367
SWIDTH 1008 0
DWIDTH 21 0
BBX 14 17 3 -1
BITMAP
0700
0980
0980
0700
0000
F1F0
3030
3030
3030
3030
3030
3030
3030
3030
3030
1870
0FBC
ENDCHAR
STARTCHAR 0170
ENCODING 368
SWIDTH 1008 0
DWIDTH 21 0
BBX 17 19 2 -1
BITMAP
039800
063000
08C000
000000
FC0F80
300200
300200
300200
300200
300200
300200
300200
300200
300200
300200
180400
180400
0C1800
03E000
ENDCHAR
STARTCHAR 0171
ENCODING 369
SWIDTH 1008 0
DWIDTH 21 0
BBX 14 17 3 -1
BITMAP
0C60
19C0
2300
0000
0000
F1F0
3030
3030
3030
3030
3030
3030
3030
3030
3030
1870
0FBC
ENDCHAR
STARTCHAR 0179
ENCODING 377
SWIDTH 1008 0
DWIDTH 21 0
BBX 14 19 3 -1
BITMAP
0030
03F0
0F00
0000
3FFC
3018
6030
4060
0060
01C0
0380
0300
0700
0C00
0C00
1804
3004
600C
FFFC
ENDCHAR
STARTCHAR 017A
ENCODING 378
SWIDTH 1008 0
DWIDTH 21 0
BBX 11 17 5 -1
BITMAP
01C0
0FC0
3C00
0000
0000
7FE0
60C0
4180
0700
0700
0700
0E00
1C00
1C20
3020
6060
FFE0
ENDCHAR
STARTCHAR 017B
ENCODING 379
SWIDTH 1008 0
DWIDTH 21 0
BBX 14 19 3 -1
BITMAP
0380
0380
0000
0000
3FFC
3018
6030
4060
0060
01C0
0380
0300
0700
0C00
0C00
1804
3004
600C
FFFC
ENDCHAR
STARTCHAR 017C
ENCODING 380
SWIDTH 1008 0
DWIDTH 21 0
BBX 11 17 5 -1
BITMAP
0600
0F00
0600
0000
0000
7FE0
60C0
4180
0700
0700
0700
0E00
1C00
1C20
3020
6060
FFE0
ENDCHAR
STARTCHAR 017D
ENCODING 381
SWIDTH 1008 0
DWIDTH 21 0
BBX 14 19 3 -1
BITMAP
0420
03C0
0180
0000
3FFC
3018
6030
4060
0060
01C0
0380
0300
0700
0C00
0C00
1804
3004
600C
FFFC
ENDCHAR
STARTCHAR 017E
ENCODING 382
SWIDTH 1008 0
DWIDTH 21 0
BBX 11 17 5 -1
BITMAP
1080
0F00
0600
0000
0000
7FE0
60C0
4180
0700
0700
0700
0E00
1C00
1C20
3020
6060
FFE0
ENDCHAR
STARTCHAR 0193
ENCODING 403
SWIDTH 1008 0
DWIDTH 21 0
BBX 17 18 3 -1
BITMAP
000300
07C480
183580
301D80
600C00
600400
C00000
C00000
C00000
C07E00
C07C00
C00C00
C00C00
600C00
600C00
301C00
182C00
07C400
ENDCHAR
STARTCHAR 01C2
ENCODING 450
SWIDTH 1008 0
DWIDTH 21 0
BBX 8 18 7 -1
BITMAP
18
18
18
18
18
18
FF
18
18
FF
F8
18
18
18
18
18
18
18
ENDCHAR
STARTCHAR 01CD
ENCODING 461
SWIDTH 1008 0
DWIDTH 21 0
BBX 17 19 2 -1
BITMAP
022000
01C000
01C000
000000
01C000
01C000
02E000
02E000
04E000
043000
083000
083800
081800
1FF800
101800
301C00
200C00
600E00
F83F80
ENDCHAR
STARTCHAR 01CE
ENCODING 462
SWIDTH 1008 0
DWIDTH 21 0
BBX 12 17 5 -1
BITMAP
1100
0E00
0E00
0000
0000
1F80
60C0
E0C0
40C0
40C0
07C0
3CC0
60C0
C0C0
C0C0
C1D0
7E60
ENDCHAR
STARTCHAR 01D0
ENCODING 464
SWIDTH 1008 0
DWIDTH 21 0
BBX 7 17 7 -1
BITMAP
44
38
38
00
00
F8
38
38
38
38
38
38
38
38
38
38
FE
ENDCHAR
STARTCHAR 01D1
ENCODING 465
SWIDTH 1008 0
DWIDTH 21 0
BBX 16 19 2 -1
BITMAP
0C00
0F80
01E0
F81F
3C04
2C04
2E04
2784
2384
23C4
21E4
21E4
20E4
20F4
203C
201C
200C
200C
F804
ENDCHAR
STARTCHAR 01D2
ENCODING 466
SWIDTH 1008 0
DWIDTH 21 0
BBX 14 17 3 -1
BITMAP
3000
3C00
0780
0000
0000
F7C0
3860
3030
3030
3030
3030
3030
3030
3030
3030
3030
FDFC
ENDCHAR
STARTCHAR 01D4
ENCODING 468
SWIDTH 1008 0
DWIDTH 21 0
BBX 16 19 2 -1
BITMAP
0420
03C0
0180
0000
07E0
1818
300C
6006
6006
C003
C003
C003
C003
C003
6006
6006
300C
1818
07E0
ENDCHAR
STARTCHAR 01D6
ENCODING 470
SWIDTH 1008 0
DWIDTH 21 0
BBX 11 17 5 -1
BITMAP
1100
0E00
0E00
0000
0000
1F00
71C0
60C0
C060
C060
C060
C060
C060
C060
60C0
71C0
1F00
ENDCHAR
STARTCHAR 01D8
ENCODING 472
SWIDTH 1008 0
DWIDTH 21 0
BBX 14 17 3 -1
BITMAP
0980
0700
0700
0000
0000
F1F0
3030
3030
3030
3030
3030
3030
3030
3030
3030
1870
0FBC
ENDCHAR
STARTCHAR 01DA
ENCODING 474
SWIDTH 1008 0
DWIDTH 21 0
BBX 14 17 3 -1
BITMAP
1FC0
0000
19C0
19C0
0000
F1F0
3030
3030
3030
3030
3030
3030
3030
3030
3030
1870
0FBC
ENDCHAR
STARTCHAR 01DC
ENCODING 476
SWIDTH 1008 0
DWIDTH 21 0
BBX 14 19 3 -1
BITMAP
01C0
07C0
0C00
0000
19C0
19C0
0000
F1F0
3030
3030
3030
3030
3030
3030
3030
3030
3030
1870
0FBC
ENDCHAR
STARTCHAR 01F8
ENCODING 504
SWIDTH 1008 0
DWIDTH 21 0
BBX 19 19 1 -1
BITMAP
030000
03E000
007800
F003E0
300380
380380
3C0580
2C0580
2E0980
260980
271180
271180
231180
23E180
21E180
21C180
20C180
20C180
F807E0
ENDCHAR
STARTCHAR 01F9
ENCODING 505
SWIDTH 1008 0
DWIDTH 21 0
BBX 19 17 1 -1
BITMAP
030000
03E000
007800
000000
000000
E7CF00
38F180
30E180
30E180
30E180
30E180
30E180
30E180
30E180
30E180
30E180
F9F3E0
ENDCHAR
STARTCHAR 01FD
ENCODING 509
SWIDTH 1008 0
DWIDTH 21 0
BBX 18 17 1 -1
BITMAP
007800
01F800
070000
000000
000000
1F1F00
61F180
E1E0C0
41C0C0
41C0C0
07FFC0
39C000
61C000
C1C000
C1E040
C37080
7C1F00
ENDCHAR
STARTCHAR 0250
ENCODING 592
SWIDTH 1008 0
DWIDTH 21 0
BBX 11 12 5 -1
BITMAP
CFC0
7060
6060
6060
6040
60C0
6780
7C00
6040
60E0
60C0
3F00
ENDCHAR
STARTCHAR 0251
ENCODING 593
SWIDTH 1008 0
DWIDTH 21 0
BBX 13 12 4 -1
BITMAP
1F20
70E0
6060
C060
C060
C060
C060
C060
C060
6060
70E0
1F78
ENDCHAR
STARTCHAR 0252
ENCODING 594
SWIDTH 1008 0
DWIDTH 21 0
BBX 13 12 4 -1
BITMAP
F7C0
3870
3030
3018
3018
3018
3018
3018
3018
3030
3870
27C0
ENDCHAR
STARTCHAR 0253
ENCODING 595
SWIDTH 1008 0
DWIDTH 21 0
BBX 12 16 4 -1
BITMAP
0FC0
3060
6060
6000
6000
6F80
70E0
6070
6070
6030
6030
6030
6030
6060
70E0
EF80
ENDCHAR
STARTCHAR 0254
ENCODING 596
SWIDTH 1008 0
DWIDTH 21 0
BBX 11 12 5 -1
BITMAP
3F00
41C0
80C0
0060
0060
0060
0060
0060
4060
E0C0
61C0
3F00
ENDCHAR
STARTCHAR 0255
ENCODING 597
SWIDTH 1008 0
DWIDTH 21 0
BBX 11 14 5 -3
BITMAP
1F80
70C0
60E0
C040
C040
C000
C000
C000
C0C0
6120
7620
1FC0
1000
2000
ENDCHAR
STARTCHAR 0256
ENCODING 598
SWIDTH 1008 0
DWIDTH 21 0
BBX 15 19 4 -3
BITMAP
03E0
0060
0060
0060
0060
1F60
70E0
6060
C060
C060
C060
C060
C060
C060
6060
70E6
1F66
0024
0018
ENDCHAR
STARTCHAR 0257
ENCODING 599
SWIDTH 1008 0
DWIDTH 21 0
BBX 15 17 4 -1
BITMAP
003C
0066
0066
0060
0060
1F60
70E0
6060
C060
C060
C060
C060
C060
C060
6060
70E0
1F78
ENDCHAR
STARTCHAR 0258
ENCODING 600
SWIDTH 1008 0
DWIDTH 21 0
BBX 11 12 5 -1
BITMAP
3F00
61C0
C0C0
C060
C060
FFE0
0060
0060
0060
80C0
41C0
3F00
ENDCHAR
STARTCHAR 0259
ENCODING 601
SWIDTH 1008 0
DWIDTH 21 0
BBX 11 12 5 -1
BITMAP
3F00
41C0
80C0
0060
0060
0060
0060
FFE0
C060
C0C0
61C0
3F00
ENDCHAR
STARTCHAR 025A
ENCODING 602
SWIDTH 1008 0
DWIDTH 21 0
BBX 16 12 3 -1
BITMAP
3F00
43C0
81C0
0060
0078
0078
03E9
1C66
E060
C1C0
63C0
3F00
ENDCHAR
STARTCHAR 025C
ENCODING 604
SWIDTH 1008 0
DWIDTH 21 0
BBX 11 11 5 0
BITMAP
7F80
C040
0060
00C0
0080
3F80
00C0
0060
0060
C0C0
7F00
ENDCHAR
STARTCHAR 025E
ENCODING 606
SWIDTH 1008 0
DWIDTH 21 0
BBX 11 11 5 0
BITMAP
1F80
7040
4060
C0C0
C080
DF80
C0C0
C060
4060
70C0
1F00
ENDCHAR
STARTCHAR 025F
ENCODING 607
SWIDTH 1008 0
DWIDTH 21 0
BBX 11 12 5 -1
BITMAP
0FE0
0180
0180
0180
01E0
0FE0
0180
0180
4180
E180
4100
3E00
ENDCHAR
STARTCHAR 0260
ENCODING 608
SWIDTH 1008 0
DWIDTH 21 0
BBX 14 17 5 -3
BITMAP
0038
1F6C
70EC
6060
C060
C060
C060
C060
C060
E060
70E0
1F60
0060
0060
6060
60C0
3F00
ENDCHAR
STARTCHAR 0261
ENCODING 609
SWIDTH 1008 0
DWIDTH 21 0
BBX 12 16 5 -3
BITMAP
1F70
70E0
6060
C060
C060
C060
C060
C060
E060
70E0
1F60
0060
0060
6060
60C0
3F00
ENDCHAR
STARTCHAR 0264
ENCODING 612
SWIDTH 1008 0
DWIDTH 21 0
BBX 13 11 4 -1
BITMAP
6030
F048
9888
9F88
0F00
0700
0B80
10C0
10C0
18C0
0F80
ENDCHAR
STARTCHAR 0265
ENCODING 613
SWIDTH 1008 0
DWIDTH 21 0
BBX 14 17 4 -1
BITMAP
FEFC
3030
3030
3030
3030
3030
3030
3030
3030
3830
1870
0FB0
0030
0030
0030
0030
003C
ENDCHAR
STARTCHAR 0266
ENCODING 614
SWIDTH 1008 0
DWIDTH 21 0
BBX 14 17 4 -1
BITMAP
07E0
0830
1070
1070
3000
3000
37C0
3860
3030
3030
3030
3030
3030
3030
3030
3030
FEFC
ENDCHAR
STARTCHAR 0267
ENCODING 615
SWIDTH 1008 0
DWIDTH 21 0
BBX 12 19 4 -3
BITMAP
07E0
0830
1070
1070
3000
37C0
3860
3030
3030
3030
3030
3030
3030
FE30
0030
0030
3030
3060
1F80
ENDCHAR
STARTCHAR 0268
ENCODING 616
SWIDTH 1008 0
DWIDTH 21 0
BBX 9 17 6 -1
BITMAP
1800
3C00
1800
0000
0000
7C00
1C00
1C00
1C00
1F80
FF80
1C00
1C00
1C00
1C00
1C00
7F00
ENDCHAR
STARTCHAR 026C
ENCODING 620
SWIDTH 1008 0
DWIDTH 21 0
BBX 12 17 4 -1
BITMAP
1F00
0700
0700
0700
0700
0700
7700
8F00
7FF0
7F00
0700
0700
0700
0700
0700
0700
1FC0
ENDCHAR
STARTCHAR 026D
ENCODING 621
SWIDTH 1008 0
DWIDTH 21 0
BBX 9 19 7 -3
BITMAP
F800
3800
3800
3800
3800
3800
3800
3800
3800
3800
3800
3800
3800
3800
3800
3980
3980
3900
1E00
ENDCHAR
STARTCHAR 026E
ENCODING 622
SWIDTH 1008 0
DWIDTH 21 0
BBX 13 20 3 -3
BITMAP
F000
3000
3000
3000
3FF8
3030
3060
31C0
3380
37C0
37F0
3070
3030
3018
FC18
1018
3818
3030
1870
07C0
ENDCHAR
STARTCHAR 026F
ENCODING 623
SWIDTH 1008 0
DWIDTH 21 0
BBX 19 12 1 -1
BITMAP
FBF7E0
30E180
30E180
30E180
30E180
30E180
30E180
30E180
30E180
30E180
19F380
0E1DE0
ENDCHAR
STARTCHAR 0270
ENCODING 624
SWIDTH 1008 0
DWIDTH 21 0
BBX 19 14 2 -3
BITMAP
FBF7C0
30E180
30E180
30E180
30E180
30E180
30E180
30E180
30E180
30E180
19F380
0E1D80
000180
0007E0
ENDCHAR
STARTCHAR 0271
ENCODING 625
SWIDTH 1008 0
DWIDTH 21 0
BBX 17 14 1 -3
BITMAP
E7CF00
38F180
30E180
30E180
30E180
30E180
30E180
30E180
30E180
30E180
30E180
F9ED80
000D80
000700
ENDCHAR
STARTCHAR 0272
ENCODING 626
SWIDTH 1008 0
DWIDTH 21 0
BBX 16 14 2 -3
BITMAP
3DF0
0E18
0C0C
0C0C
0C0C
0C0C
0C0C
0C0C
0C0C
0C0C
CC0C
CC3F
4800
3000
ENDCHAR
STARTCHAR 0273
ENCODING 627
SWIDTH 1008 0
DWIDTH 21 0
BBX 16 14 3 -3
BITMAP
F7C0
3860
3030
3030
3030
3030
3030
3030
3030
3030
3033
FC33
0012
000C
ENDCHAR
STARTCHAR 0275
ENCODING 629
SWIDTH 1008 0
DWIDTH 21 0
BBX 11 12 5 -1
BITMAP
1F00
71C0
60C0
C060
C060
FFE0
C060
C060
C060
60C0
71C0
1F00
ENDCHAR
STARTCHAR 0279
ENCODING 633
SWIDTH 1008 0
DWIDTH 21 0
BBX 11 12 5 -1
BITMAP
0FE0
0180
0180
0180
0180
0180
0180
0180
0180
4780
ED80
71E0
ENDCHAR
STARTCHAR 027A
ENCODING 634
SWIDTH 1008 0
DWIDTH 21 0
BBX 11 12 5 -1
BITMAP
0FE0
0180
0180
0180
0180
0180
0180
0180
0180
4780
ED80
71E0
ENDCHAR
STARTCHAR 027B
ENCODING 635
SWIDTH 1008 0
DWIDTH 21 0
BBX 13 14 5 -3
BITMAP
0FE0
0180
0180
0180
0180
0180
0180
0180
0180
4780
ED98
7198
0190
00E0
ENDCHAR
STARTCHAR 027D
ENCODING 637
SWIDTH 1008 0
DWIDTH 21 0
BBX 11 14 5 -3
BITMAP
F1C0
36E0
3C40
3000
3000
3000
3000
3000
3000
3000
3180
3180
3100
1E00
ENDCHAR
STARTCHAR 027E
ENCODING 638
SWIDTH 1008 0
DWIDTH 21 0
BBX 11 12 5 -1
BITMAP
0F80
1040
30E0
3040
3040
3000
3000
3000
3000
3000
3000
FE00
ENDCHAR
STARTCHAR 0281
ENCODING 641
SWIDTH 1008 0
DWIDTH 21 0
BBX 13 12 4 -1
BITMAP
FE18
3060
30C0
3380
3380
3380
3FC0
3060
3030
3030
3060
FFC0
ENDCHAR
STARTCHAR 0282
ENCODING 642
SWIDTH 1008 0
DWIDTH 21 0
BBX 10 14 5 -3
BITMAP
3E80
6780
C080
E000
FC00
7C00
1F00
0780
80C0
C0C0
B180
8F00
E000
6000
ENDCHAR
STARTCHAR 0283
ENCODING 643
SWIDTH 1008 0
DWIDTH 21 0
BBX 7 17 7 -1
BITMAP
3C
46
86
C0
C0
70
70
38
38
3C
1C
1C
06
06
C2
C4
78
ENDCHAR
STARTCHAR 0284
ENCODING 644
SWIDTH 1008 0
DWIDTH 21 0
BBX 12 19 3 -3
BITMAP
03E0
0730
0730
0700
0700
0700
0700
0700
0700
0700
0700
0700
0700
0700
1FC0
0700
C700
C700
7C00
ENDCHAR
STARTCHAR 0288
ENCODING 648
SWIDTH 1008 0
DWIDTH 21 0
BBX 11 19 5 -3
BITMAP
0C00
0C00
0C00
1C00
1C00
FFC0
1C00
1C00
1C00
1C00
1C00
1C00
1C00
1C00
1C00
1C00
1C20
0E20
07C0
ENDCHAR
STARTCHAR 0289
ENCODING 649
SWIDTH 1008 0
DWIDTH 21 0
BBX 14 12 3 -1
BITMAP
F1F0
3030
3030
3030
303C
FFFC
3030
3030
3030
3030
1870
0FBC
ENDCHAR
STARTCHAR 028A
ENCODING 650
SWIDTH 1008 0
DWIDTH 21 0
BBX 13 12 4 -1
BITMAP
F078
3060
3060
3060
2070
6030
6030
6030
6030
6030
3060
0F80
ENDCHAR
STARTCHAR 028B
ENCODING 651
SWIDTH 1008 0
DWIDTH 21 0
BBX 12 12 4 -1
BITMAP
F0E0
30D0
3010
3010
3010
3010
3020
3020
3040
3040
1880
0F00
ENDCHAR
STARTCHAR 028C
ENCODING 652
SWIDTH 1008 0
DWIDTH 21 0
BBX 14 12 3 -1
BITMAP
0300
0300
0780
0780
0FC0
09C0
09C0
1060
1060
2030
2030
F87C
ENDCHAR
STARTCHAR 028D
ENCODING 653
SWIDTH 1008 0
DWIDTH 21 0
BBX 18 12 2 -1
BITMAP
040800
040800
0E1C00
0E1C00
0E1C00
0E1C00
0B9600
13A600
13A600
21C300
21C300
F3E7C0
ENDCHAR
STARTCHAR 028E
ENCODING 654
SWIDTH 1008 0
DWIDTH 21 0
BBX 13 14 4 -1
BITMAP
0070
00B8
0318
0300
0700
0700
0F80
0B80
0B80
10C0
10C0
2060
2060
F0F8
ENDCHAR
STARTCHAR 0290
ENCODING 656
SWIDTH 1008 0
DWIDTH 21 0
BBX 14 14 5 -3
BITMAP
7FE0
60C0
4180
0700
0700
0700
0E00
1C00
1C20
3020
6060
FFEC
002C
0018
ENDCHAR
STARTCHAR 0291
ENCODING 657
SWIDTH 1008 0
DWIDTH 21 0
BBX 11 14 5 -3
BITMAP
7FE0
60C0
4180
0700
0700
0700
0E00
1C00
1CC0
3120
6620
FFC0
1000
2000
ENDCHAR
STARTCHAR 0292
ENCODING 658
SWIDTH 1008 0
DWIDTH 21 0
BBX 11 17 5 -3
BITMAP
7FE0
60C0
4180
4700
0E00
1C00
3F00
21C0
21C0
00C0
0060
0060
4060
E060
C0C0
61C0
1F00
ENDCHAR
STARTCHAR 0294
ENCODING 660
SWIDTH 1008 0
DWIDTH 21 0
BBX 12 18 5 -1
BITMAP
1F00
60C0
4060
C030
E030
6030
0060
00C0
0180
0600
0600
0600
0600
0600
0600
0600
0600
1F80
ENDCHAR
STARTCHAR 0295
ENCODING 661
SWIDTH 1008 0
DWIDTH 21 0
BBX 12 18 5 -1
BITMAP
0F80
3060
6020
C030
C070
C060
6000
3000
1C00
0600
0600
0600
0600
0600
0600
0600
0600
1F80
ENDCHAR
STARTCHAR 0298
ENCODING 664
SWIDTH 1008 0
DWIDTH 21 0
BBX 11 11 5 2
BITMAP
1F00
60C0
4040
8020
8E20
8E20
8E20
8020
4040
60C0
1F00
ENDCHAR
STARTCHAR 029D
ENCODING 669
SWIDTH 1008 0
DWIDTH 21 0
BBX 10 19 4 -3
BITMAP
0300
0780
0300
0000
0000
1FC0
0700
0700
0700
0700
0700
0700
0700
0700
0700
0700
DFC0
C800
7000
ENDCHAR
STARTCHAR 02A1
ENCODING 673
SWIDTH 1008 0
DWIDTH 21 0
BBX 12 18 5 -1
BITMAP
1F00
60C0
4060
C030
E030
6030
0060
00C0
0180
0600
07C0
3FC0
0600
0600
0600
0600
0600
1F80
ENDCHAR
STARTCHAR 02A2
ENCODING 674
SWIDTH 1008 0
DWIDTH 21 0
BBX 12 18 5 -1
BITMAP
0F80
3060
6020
C030
C070
C060
6000
3000
1C00
0600
07C0
3FC0
0600
0600
0600
0600
0600
1F80
ENDCHAR
STARTCHAR 02C7
ENCODING 711
SWIDTH 1008 0
DWIDTH 21 0
BBX 7 3 7 15
BITMAP
82
7C
38
ENDCHAR
STARTCHAR 02C8
ENCODING 712
SWIDTH 1008 0
DWIDTH 21 0
BBX 3 5 9 13
BITMAP
E0
E0
E0
E0
E0
ENDCHAR
STARTCHAR 02CC
ENCODING 716
SWIDTH 1008 0
DWIDTH 21 0
BBX 3 4 9 -3
BITMAP
E0
E0
E0
E0
ENDCHAR
STARTCHAR 02D0
ENCODING 720
SWIDTH 1008 0
DWIDTH 21 0
BBX 6 14 7 1
BITMAP
FC
78
78
30
30
00
00
00
30
30
30
78
78
FC
ENDCHAR
STARTCHAR 02D1
ENCODING 721
SWIDTH 1008 0
DWIDTH 21 0
BBX 6 5 7 9
BITMAP
FC
78
78
30
30
ENDCHAR
STARTCHAR 02D8
ENCODING 728
SWIDTH 1008 0
DWIDTH 21 0
BBX 7 3 7 15
BITMAP
82
82
7C
ENDCHAR
STARTCHAR 02D9
ENCODING 729
SWIDTH 1008 0
DWIDTH 21 0
BBX 3 2 9 16
BITMAP
E0
E0
ENDCHAR
STARTCHAR 02DB
ENCODING 731
SWIDTH 1008 0
DWIDTH 21 0
BBX 5 4 14 -3
BITMAP
40
80
98
78
ENDCHAR
STARTCHAR 02DD
ENCODING 733
SWIDTH 1008 0
DWIDTH 21 0
BBX 8 4 7 14
BITMAP
3B
76
44
98
ENDCHAR
STARTCHAR 02DE
ENCODING 734
SWIDTH 1008 0
DWIDTH 21 0
BBX 7 4 7 6
BITMAP
72
BA
9C
9C
ENDCHAR
STARTCHAR 02E5
ENCODING 741
SWIDTH 1008 0
DWIDTH 21 0
BBX 9 21 6 -3
BITMAP
FF80
0080
0080
0080
0080
0080
0080
0080
0080
0080
0080
0080
0080
0080
0080
0080
0080
0080
0080
0080
0080
ENDCHAR
STARTCHAR 02E6
ENCODING 742
SWIDTH 1008 0
DWIDTH 21 0
BBX 9 21 6 -3
BITMAP
0080
0080
0080
0080
0080
FF80
0080
0080
0080
0080
0080
0080
0080
0080
0080
0080
0080
0080
0080
0080
0080
ENDCHAR
STARTCHAR 02E7
ENCODING 743
SWIDTH 1008 0
DWIDTH 21 0
BBX 9 21 6 -3
BITMAP
0080
0080
0080
0080
0080
0080
0080
0080
0080
FF80
0080
0080
0080
0080
0080
0080
0080
0080
0080
0080
0080
ENDCHAR
STARTCHAR 02E8
ENCODING 744
SWIDTH 1008 0
DWIDTH 21 0
BBX 9 21 6 -3
BITMAP
0080
0080
0080
0080
0080
0080
0080
0080
0080
0080
0080
0080
0080
0080
FF80
0080
0080
0080
0080
0080
0080
ENDCHAR
STARTCHAR 02E9
ENCODING 745
SWIDTH 1008 0
DWIDTH 21 0
BBX 9 21 6 -3
BITMAP
0080
0080
0080
0080
0080
0080
0080
0080
0080
0080
0080
0080
0080
0080
0080
0080
0080
0080
0080
0080
FF80
ENDCHAR
STARTCHAR 0300
ENCODING 768
SWIDTH 1008 0
DWIDTH 21 0
BBX 5 4 8 14
BITMAP
E0
70
30
08
ENDCHAR
STARTCHAR 0301
ENCODING 769
SWIDTH 1008 0
DWIDTH 21 0
BBX 5 4 8 14
BITMAP
38
70
60
80
ENDCHAR
STARTCHAR 0302
ENCODING 770
SWIDTH 1008 0
DWIDTH 21 0
BBX 7 3 7 15
BITMAP
38
7C
82
ENDCHAR
STARTCHAR 0303
ENCODING 771
SWIDTH 1008 0
DWIDTH 21 0
BBX 7 3 7 15
BITMAP
72
BA
9C
ENDCHAR
STARTCHAR 0304
ENCODING 772
SWIDTH 1008 0
DWIDTH 21 0
BBX 9 1 6 16
BITMAP
FF80
ENDCHAR
STARTCHAR 0306
ENCODING 774
SWIDTH 1008 0
DWIDTH 21 0
BBX 9 3 6 15
BITMAP
8080
7F00
3E00
ENDCHAR
STARTCHAR 0308
ENCODING 776
SWIDTH 1008 0
DWIDTH 21 0
BBX 7 2 7 15
BITMAP
C6
C6
ENDCHAR
STARTCHAR 030B
ENCODING 779
SWIDTH 1008 0
DWIDTH 21 0
BBX 8 4 7 14
BITMAP
3B
76
44
98
ENDCHAR
STARTCHAR 030C
ENCODING 780
SWIDTH 1008 0
DWIDTH 21 0
BBX 7 3 7 15
BITMAP
82
7C
38
ENDCHAR
STARTCHAR 030F
ENCODING 783
SWIDTH 1008 0
DWIDTH 21 0
BBX 8 4 6 14
BITMAP
DC
6E
22
19
ENDCHAR
STARTCHAR 0318
ENCODING 792
SWIDTH 1008 0
DWIDTH 21 0
BBX 4 5 7 -3
BITMAP
30
30
F0
30
30
ENDCHAR
STARTCHAR 0319
ENCODING 793
SWIDTH 1008 0
DWIDTH 21 0
BBX 4 5 9 -3
BITMAP
C0
C0
F0
C0
C0
ENDCHAR
STARTCHAR 031A
ENCODING 794
SWIDTH 1008 0
DWIDTH 21 0
BBX 4 4 17 14
BITMAP
F0
10
10
10
ENDCHAR
STARTCHAR 031C
ENCODING 796
SWIDTH 1008 0
DWIDTH 21 0
BBX 7 7 7 -3
BITMAP
40
30
30
70
C0
C2
7C
ENDCHAR
STARTCHAR 031D
ENCODING 797
SWIDTH 1008 0
DWIDTH 21 0
BBX 6 3 7 -1
BITMAP
30
30
FC
ENDCHAR
STARTCHAR 031E
ENCODING 798
SWIDTH 1008 0
DWIDTH 21 0
BBX 6 3 7 -3
BITMAP
FC
30
30
ENDCHAR
STARTCHAR 031F
ENCODING 799
SWIDTH 1008 0
DWIDTH 21 0
BBX 6 5 7 -3
BITMAP
30
30
FC
30
30
ENDCHAR
STARTCHAR 0320
ENCODING 800
SWIDTH 1008 0
DWIDTH 21 0
BBX 6 1 7 -1
BITMAP
FC
ENDCHAR
STARTCHAR 0324
ENCODING 804
SWIDTH 1008 0
DWIDTH 21 0
BBX 7 2 7 -3
BITMAP
C6
C6
ENDCHAR
STARTCHAR 0325
ENCODING 805
SWIDTH 1008 0
DWIDTH 21 0
BBX 5 4 8 -3
BITMAP
70
88
88
70
ENDCHAR
STARTCHAR 0329
ENCODING 809
SWIDTH 1008 0
DWIDTH 21 0
BBX 2 4 9 -3
BITMAP
C0
C0
C0
C0
ENDCHAR
STARTCHAR 032A
ENCODING 810
SWIDTH 1008 0
DWIDTH 21 0
BBX 7 3 7 -3
BITMAP
FE
82
82
ENDCHAR
STARTCHAR 032C
ENCODING 812
SWIDTH 1008 0
DWIDTH 21 0
BBX 7 3 7 -3
BITMAP
82
7C
38
ENDCHAR
STARTCHAR 032F
ENCODING 815
SWIDTH 1008 0
DWIDTH 21 0
BBX 7 3 7 -3
BITMAP
7C
82
82
ENDCHAR
STARTCHAR 0330
ENCODING 816
SWIDTH 1008 0
DWIDTH 21 0
BBX 7 3 7 -3
BITMAP
72
BA
9C
ENDCHAR
STARTCHAR 0334
ENCODING 820
SWIDTH 1008 0
DWIDTH 21 0
BBX 7 4 7 6
BITMAP
72
BA
9C
9C
ENDCHAR
STARTCHAR 0339
ENCODING 825
SWIDTH 1008 0
DWIDTH 21 0
BBX 7 7 7 -3
BITMAP
18
30
30
1C
06
86
7C
ENDCHAR
STARTCHAR 033A
ENCODING 826
SWIDTH 1008 0
DWIDTH 21 0
BBX 7 3 7 -3
BITMAP
82
82
FE
ENDCHAR
STARTCHAR 033B
ENCODING 827
SWIDTH 1008 0
DWIDTH 21 0
BBX 7 3 7 -3
BITMAP
FE
82
FE
ENDCHAR
STARTCHAR 033C
ENCODING 828
SWIDTH 1008 0
DWIDTH 21 0
BBX 10 3 5 -3
BITMAP
7780
8C40
8C40
ENDCHAR
STARTCHAR 033D
ENCODING 829
SWIDTH 1008 0
DWIDTH 21 0
BBX 5 4 8 14
BITMAP
88
70
70
88
ENDCHAR
STARTCHAR 0361
ENCODING 865
SWIDTH 1008 0
DWIDTH 21 0
BBX 15 4 6 13
BITMAP
03C0
1FF0
600C
8002
ENDCHAR
STARTCHAR 0391
ENCODING 913
SWIDTH 1008 0
DWIDTH 21 0
BBX 17 17 2 -1
BITMAP
018000
01C000
03C000
02E000
02E000
04E000
043000
043000
081000
081800
0FF800
081800
101800
100C00
200C00
300E00
F83F80
ENDCHAR
STARTCHAR 0392
ENCODING 914
SWIDTH 1008 0
DWIDTH 21 0
BBX 14 17 3 -1
BITMAP
FFE0
3018
300C
300C
300C
300C
3018
3FF0
3030
303C
300C
300C
300C
300C
300C
3018
FFE0
ENDCHAR
STARTCHAR 0393
ENCODING 915
SWIDTH 1008 0
DWIDTH 21 0
BBX 14 17 4 -1
BITMAP
FFFC
300C
3004
3004
3000
3000
3000
3000
3000
3000
3000
3000
3000
3000
3000
3000
FE00
ENDCHAR
STARTCHAR 0394
ENCODING 916
SWIDTH 1008 0
DWIDTH 21 0
BBX 16 17 2 -1
BITMAP
0180
01C0
03C0
02E0
04E0
0430
0430
0810
0818
1018
1018
100C
200C
2006
4006
7FFF
FFFF
ENDCHAR
STARTCHAR 0395
ENCODING 917
SWIDTH 1008 0
DWIDTH 21 0
BBX 14 17 3 -1
BITMAP
FFFC
300C
3004
3004
3040
3040
31C0
3FC0
31C0
31C0
3040
3040
3000
3004
3004
300C
FFFC
ENDCHAR
STARTCHAR 0396
ENCODING 918
SWIDTH 1008 0
DWIDTH 21 0
BBX 14 17 3 -1
BITMAP
7FFC
6018
4030
4060
0060
01C0
0380
0300
0700
0700
0700
0C00
1800
1804
3004
600C
FFFC
ENDCHAR
STARTCHAR 0397
ENCODING 919
SWIDTH 1008 0
DWIDTH 21 0
BBX 16 17 2 -1
BITMAP
FC3F
300C
300C
300C
300C
300C
300C
3FFC
300C
300C
300C
300C
300C
300C
300C
300C
FC3F
ENDCHAR
STARTCHAR 0398
ENCODING 920
SWIDTH 1008 0
DWIDTH 21 0
BBX 16 17 2 -1
BITMAP
07E0
1818
300C
6006
6006
C813
C813
CFF3
CFF3
C813
C813
C813
6006
6006
300C
1818
07E0
ENDCHAR
STARTCHAR 0399
ENCODING 921
SWIDTH 1008 0
DWIDTH 21 0
BBX 9 17 6 -1
BITMAP
FF80
1C00
1C00
1C00
1C00
1C00
1C00
1C00
1C00
1C00
1C00
1C00
1C00
1C00
1C00
1C00
FF80
ENDCHAR
STARTCHAR 039A
ENCODING 922
SWIDTH 1008 0
DWIDTH 21 0
BBX 16 17 3 -1
BITMAP
FC7E
3010
3020
3040
3180
3300
3400
3F00
3380
33C0
31C0
3060
3060
3030
3018
300C
FC3F
ENDCHAR
STARTCHAR 039B
ENCODING 923
SWIDTH 1008 0
DWIDTH 21 0
BBX 17 17 2 -1
BITMAP
018000
01C000
03C000
02E000
02E000
04E000
043000
083000
081800
081800
081800
101800
100C00
200C00
200E00
300600
F83F80
ENDCHAR
STARTCHAR 039C
ENCODING 924
SWIDTH 1008 0
DWIDTH 21 0
BBX 19 17 1 -1
BITMAP
F003E0
300380
380380
380580
2C0580
2C0980
260980
261180
231180
237180
236180
21E180
21E180
20C180
20C180
200180
F807E0
ENDCHAR
STARTCHAR 039D
ENCODING 925
SWIDTH 1008 0
DWIDTH 21 0
BBX 16 17 2 -1
BITMAP
F81F
3C04
2C04
2604
2784
2384
21C4
21C4
20E4
20F4
20F4
2034
201C
201C
200C
2004
F804
ENDCHAR
STARTCHAR 039E
ENCODING 926
SWIDTH 1008 0
DWIDTH 21 0
BBX 14 17 4 -1
BITMAP
FFFC
FFFC
C00C
8004
8004
1020
1020
1FE0
1FE0
1020
1020
1020
8004
8004
C00C
FFFC
FFFC
ENDCHAR
STARTCHAR 039F
ENCODING 927
SWIDTH 1008 0
DWIDTH 21 0
BBX 16 17 2 -1
BITMAP
07E0
1818
300C
6006
6006
C003
C003
C003
C003
C003
C003
C003
6006
6006
300C
1818
07E0
ENDCHAR
STARTCHAR 03A0
ENCODING 928
SWIDTH 1008 0
DWIDTH 21 0
BBX 15 17 3 -1
BITMAP
FFFE
3018
3018
3018
3018
3018
3018
3018
3018
3018
3018
3018
3018
3018
3018
3018
FC7E
ENDCHAR
STARTCHAR 03A1
ENCODING 929
SWIDTH 1008 0
DWIDTH 21 0
BBX 14 17 4 -1
BITMAP
FFF0
3018
300C
300C
300C
300C
3018
3FF0
3000
3000
3000
3000
3000
3000
3000
3000
FE00
ENDCHAR
STARTCHAR 03A3
ENCODING 931
SWIDTH 1008 0
DWIDTH 21 0
BBX 14 17 3 -1
BITMAP
FFFC
600C
3004
1804
0C00
0700
0380
01C0
0300
0400
0400
0800
1004
2004
400C
FFFC
FFFC
ENDCHAR
STARTCHAR 03A4
ENCODING 932
SWIDTH 1008 0
DWIDTH 21 0
BBX 15 17 3 -1
BITMAP
FFFE
C386
8382
8382
0380
0380
0380
0380
0380
0380
0380
0380
0380
0380
0380
0380
0FE0
ENDCHAR
STARTCHAR 03A5
ENCODING 933
SWIDTH 1008 0
DWIDTH 21 0
BBX 17 17 2 -1
BITMAP
0C1800
3E3E00
61C300
41C100
81C080
81C080
01C000
01C000
01C000
01C000
01C000
01C000
01C000
01C000
01C000
01C000
07F000
ENDCHAR
STARTCHAR 03A6
ENCODING 934
SWIDTH 1008 0
DWIDTH 21 0
BBX 17 17 2 -1
BITMAP
07F000
01C000
01C000
0FF800
31C600
61C300
C1C180
C1C180
C1C180
C1C180
C1C180
61C300
31C600
0FF800
01C000
01C000
07F000
ENDCHAR
STARTCHAR 03A7
ENCODING 935
SWIDTH 1008 0
DWIDTH 21 0
BBX 17 17 2 -1
BITMAP
FC1F00
380C00
180800
0C1000
062000
062000
03C000
01C000
02E000
02E000
02E000
043000
081800
081800
100C00
300E00
FC1F80
ENDCHAR
STARTCHAR 03A8
ENCODING 936
SWIDTH 1008 0
DWIDTH 21 0
BBX 19 17 1 -1
BITMAP
03F800
70E1C0
98E320
08E200
0CE600
0CE600
0CE600
0CE600
04E400
06E400
06EC00
03F800
00E000
00E000
00E000
00E000
03F800
ENDCHAR
STARTCHAR 03A9
ENCODING 937
SWIDTH 1008 0
DWIDTH 21 0
BBX 15 17 3 -1
BITMAP
0FE0
3018
600C
4004
C006
C006
C006
4004
600C
6008
2008
1010
8822
8442
C446
FC7E
FC7E
ENDCHAR
STARTCHAR 03B1
ENCODING 945
SWIDTH 1008 0
DWIDTH 21 0
BBX 13 11 4 0
BITMAP
0F18
1098
20B0
40A0
40A0
40E0
C0C0
C0C0
C348
6670
3830
ENDCHAR
STARTCHAR 03B2
ENCODING 946
SWIDTH 1008 0
DWIDTH 21 0
BBX 14 20 3 -3
BITMAP
0070
0188
0304
0704
0C0C
080C
19D8
19E0
3010
3018
2018
2018
6018
6018
6830
4460
C3C0
C000
C000
C000
ENDCHAR
STARTCHAR 03B3
ENCODING 947
SWIDTH 1008 0
DWIDTH 21 0
BBX 14 13 3 -3
BITMAP
3C0C
6318
C330
C320
0360
03C0
0380
0700
0700
0400
0C00
0C00
0C00
ENDCHAR
STARTCHAR 03B4
ENCODING 948
SWIDTH 1008 0
DWIDTH 21 0
BBX 13 17 4 0
BITMAP
0F80
18E0
1030
0838
0618
0300
0380
1EC0
3040
6060
4060
C060
C060
C0C0
C0C0
4380
3E00
ENDCHAR
STARTCHAR 03B5
ENCODING 949
SWIDTH 1008 0
DWIDTH 21 0
BBX 11 11 5 0
BITMAP
1FC0
3060
6000
3000
3F80
1F80
6000
C000
C000
60E0
1F80
ENDCHAR
STARTCHAR 03B6
ENCODING 950
SWIDTH 1008 0
DWIDTH 21 0
BBX 11 20 5 -3
BITMAP
2000
4020
C060
C0C0
3F80
0700
0E00
1C00
3000
6000
4000
C000
C000
E000
7C00
0F00
0180
0180
0180
1F00
ENDCHAR
STARTCHAR 03B7
ENCODING 951
SWIDTH 1008 0
DWIDTH 21 0
BBX 13 14 4 -3
BITMAP
70E0
8B10
0E18
1818
1810
1810
3030
3020
6060
C040
C0C0
00C0
0380
0380
ENDCHAR
STARTCHAR 03B8
ENCODING 952
SWIDTH 1008 0
DWIDTH 21 0
BBX 14 17 4 0
BITMAP
00F0
0708
0E0C
180C
180C
300C
3018
7FF8
6018
6030
4030
C030
C060
C060
C0C0
6380
3E00
ENDCHAR
STARTCHAR 03B9
ENCODING 953
SWIDTH 1008 0
DWIDTH 21 0
BBX 11 11 5 0
BITMAP
1000
3000
3000
6000
6000
6000
C020
C040
C180
7F00
3C00
ENDCHAR
STARTCHAR 03BA
ENCODING 954
SWIDTH 1008 0
DWIDTH 21 0
BBX 12 11 4 0
BITMAP
3060
30F0
3390
2600
2600
3E00
6600
6600
4710
C3E0
C0C0
ENDCHAR
STARTCHAR 03BB
ENCODING 955
SWIDTH 1008 0
DWIDTH 21 0
BBX 13 17 4 0
BITMAP
0700
0380
0080
0080
0080
0080
0380
06C0
0EC0
08C0
18C0
1040
3060
2060
6030
C038
C018
ENDCHAR
STARTCHAR 03BC
ENCODING 956
SWIDTH 1008 0
DWIDTH 21 0
BBX 15 14 3 -3
BITMAP
1810
1810
1030
1020
1020
3020
2060
2040
71C2
5FBC
4F18
C000
C000
8000
ENDCHAR
STARTCHAR 03BD
ENCODING 957
SWIDTH 1008 0
DWIDTH 21 0
BBX 13 11 4 0
BITMAP
6008
2008
3010
3030
2020
2060
20C0
4380
4F00
F800
6000
ENDCHAR
STARTCHAR 03BE
ENCODING 958
SWIDTH 1008 0
DWIDTH 21 0
BBX 12 20 4 -3
BITMAP
00F0
0380
0700
0380
0FF0
1800
3000
3000
1800
7FF0
4000
C000
C000
E000
7E00
07C0
0060
0060
03C0
7F00
ENDCHAR
STARTCHAR 03BF
ENCODING 959
SWIDTH 1008 0
DWIDTH 21 0
BBX 11 11 5 0
BITMAP
0F80
3040
6020
4020
4020
C060
C060
8040
80C0
4180
3E00
ENDCHAR
STARTCHAR 03C0
ENCODING 960
SWIDTH 1008 0
DWIDTH 21 0
BBX 13 12 4 0
BITMAP
0008
7FF0
8840
18C0
1080
1080
3380
2380
6300
4308
C3F0
C0E0
ENDCHAR
STARTCHAR 03C1
ENCODING 961
SWIDTH 1008 0
DWIDTH 21 0
BBX 13 14 4 -3
BITMAP
03C0
0E30
1818
1018
1018
3018
2018
2030
6030
6860
4780
C000
C000
C000
ENDCHAR
STARTCHAR 03C2
ENCODING 962
SWIDTH 1008 0
DWIDTH 21 0
BBX 12 13 5 -3
BITMAP
07C0
1C20
3020
3030
3010
3010
3030
1C70
0E60
0600
C600
8C00
7000
ENDCHAR
STARTCHAR 03C3
ENCODING 963
SWIDTH 1008 0
DWIDTH 21 0
BBX 13 13 5 0
BITMAP
0010
0018
0FF0
3080
6040
4060
4060
C060
C060
C0C0
C0C0
4100
3E00
ENDCHAR
STARTCHAR 03C4
ENCODING 964
SWIDTH 1008 0
DWIDTH 21 0
BBX 13 12 4 0
BITMAP
0008
7FF0
8600
0E00
0800
0800
1800
1800
3020
3040
1F80
0F00
ENDCHAR
STARTCHAR 03C5
ENCODING 965
SWIDTH 1008 0
DWIDTH 21 0
BBX 11 11 5 0
BITMAP
C040
6020
6020
6020
4020
C060
C040
80C0
8780
7F00
3C00
ENDCHAR
STARTCHAR 03C6
ENCODING 966
SWIDTH 1008 0
DWIDTH 21 0
BBX 13 20 4 -3
BITMAP
0060
0060
0040
0040
00C0
0080
1FE0
7310
6318
C718
C718
C718
C630
4670
3FC0
0800
0800
1800
1800
1800
ENDCHAR
STARTCHAR 03C7
ENCODING 967
SWIDTH 1008 0
DWIDTH 21 0
BBX 14 14 3 -3
BITMAP
1C0C
2318
0330
0360
0340
0340
0380
0780
0700
0B00
1B00
3300
6188
C070
ENDCHAR
STARTCHAR 03C8
ENCODING 968
SWIDTH 1008 0
DWIDTH 21 0
BBX 13 20 4 -3
BITMAP
0030
0020
0060
0060
0040
00C0
6088
B088
3388
3318
2310
2310
6730
4620
26C0
1F80
0800
0800
1800
1800
ENDCHAR
STARTCHAR 03C9
ENCODING 969
SWIDTH 1008 0
DWIDTH 21 0
BBX 16 11 3 0
BITMAP
1804
2182
4182
4383
8383
8383
8302
8302
8784
79F8
3070
ENDCHAR
STARTCHAR 0401
ENCODING 1025
SWIDTH 1008 0
DWIDTH 21 0
BBX 15 19 3 -1
BITMAP
1830
1830
0000
FFFC
300C
3006
3002
3040
3040
31C0
3FC0
31C0
31C0
3040
3040
3002
3006
300C
FFFC
ENDCHAR
STARTCHAR 0410
ENCODING 1040
SWIDTH 1008 0
DWIDTH 21 0
BBX 17 17 2 -1
BITMAP
018000
01C000
03C000
02E000
02E000
04E000
043000
083000
081800
081800
0FF800
101800
100C00
100C00
200C00
300E00
F83F80
ENDCHAR
STARTCHAR 0411
ENCODING 1041
SWIDTH 1008 0
DWIDTH 21 0
BBX 14 17 3 -1
BITMAP
FFF8
3018
3008
3008
3000
3000
3000
3FE0
3018
301C
300C
300C
300C
300C
300C
3018
FFE0
ENDCHAR
STARTCHAR 0412
ENCODING 1042
SWIDTH 1008 0
DWIDTH 21 0
BBX 14 17 3 -1
BITMAP
FFC0
3030
3018
3018
3018
3010
3020
3FE0
3018
301C
300C
300C
300C
300C
300C
3018
FFE0
ENDCHAR
STARTCHAR 0413
ENCODING 1043
SWIDTH 1008 0
DWIDTH 21 0
BBX 14 17 4 -1
BITMAP
FFF8
3018
300C
3004
3000
3000
3000
3000
3000
3000
3000
3000
3000
3000
3000
3000
FE00
ENDCHAR
STARTCHAR 0414
ENCODING 1044
SWIDTH 1008 0
DWIDTH 21 0
BBX 16 19 2 -3
BITMAP
1FFF
020C
020C
020C
020C
020C
040C
040C
040C
080C
080C
080C
080C
100C
100C
200C
FFFF
8001
8001
ENDCHAR
STARTCHAR 0415
ENCODING 1045
SWIDTH 1008 0
DWIDTH 21 0
BBX 15 17 3 -1
BITMAP
FFFC
300C
3006
3002
3040
3040
31C0
3FC0
31C0
31C0
3040
3040
3002
3002
3006
300C
FFFC
ENDCHAR
STARTCHAR 0416
ENCODING 1046
SWIDTH 1008 0
DWIDTH 21 0
BBX 19 17 1 -1
BITMAP
63F8C0
D0E160
D0E160
08E200
08E200
08E200
04E400
03F800
06EC00
06EC00
06EC00
0CE600
0CE600
18E300
38E300
30E180
FBFBE0
ENDCHAR
STARTCHAR 0417
ENCODING 1047
SWIDTH 1008 0
DWIDTH 21 0
BBX 13 17 4 -1
BITMAP
3FC0
6070
8030
8018
0018
0030
0070
1FC0
0070
0070
0030
0018
0018
8018
8030
6070
3FC0
ENDCHAR
STARTCHAR 0418
ENCODING 1048
SWIDTH 1008 0
DWIDTH 21 0
BBX 17 17 2 -1
BITMAP
F81F80
300600
300E00
301600
301600
302600
30C600
30C600
318600
318600
318600
320600
340600
340600
380600
300600
FC1F80
ENDCHAR
STARTCHAR 0419
ENCODING 1049
SWIDTH 1008 0
DWIDTH 21 0
BBX 17 19 2 -1
BITMAP
063000
063000
03E000
F81F80
300600
300E00
301600
302600
302600
30C600
30C600
308600
318600
320600
320600
340600
380600
300600
FC1F80
ENDCHAR
STARTCHAR 041A
ENCODING 1050
SWIDTH 1008 0
DWIDTH 21 0
BBX 16 17 3 -1
BITMAP
FC0C
301E
3026
3040
3040
3180
3300
3F00
3380
33C0
31C0
3060
3060
3030
3018
300C
FC3F
ENDCHAR
STARTCHAR 041B
ENCODING 1051
SWIDTH 1008 0
DWIDTH 21 0
BBX 16 17 2 -1
BITMAP
0FFF
020C
020C
020C
020C
020C
020C
020C
040C
040C
040C
040C
040C
080C
C80C
D00C
603F
ENDCHAR
STARTCHAR 041C
ENCODING 1052
SWIDTH 1008 0
DWIDTH 21 0
BBX 21 17 0 -1
BITMAP
7801F0
1801C0
1C01C0
1C02C0
1602C0
1604C0
1304C0
1308C0
1188C0
31B8E0
21B060
20F060
20F060
206060
206060
300060
F801F8
ENDCHAR
STARTCHAR 041D
ENCODING 1053
SWIDTH 1008 0
DWIDTH 21 0
BBX 17 17 2 -1
BITMAP
FC1F80
300600
300600
300600
300600
300600
300600
3FFE00
300600
300600
300600
300600
300600
300600
300600
300600
FC1F80
ENDCHAR
STARTCHAR 041E
ENCODING 1054
SWIDTH 1008 0
DWIDTH 21 0
BBX 17 17 2 -1
BITMAP
07F000
180C00
300600
600300
600300
C00180
C00180
C00180
C00180
C00180
C00180
C00180
600300
600300
300600
180C00
07F000
ENDCHAR
STARTCHAR 041F
ENCODING 1055
SWIDTH 1008 0
DWIDTH 21 0
BBX 16 17 2 -1
BITMAP
FFFF
300C
300C
300C
300C
300C
300C
300C
300C
300C
300C
300C
300C
300C
300C
300C
FC3F
ENDCHAR
STARTCHAR 0420
ENCODING 1056
SWIDTH 1008 0
DWIDTH 21 0
BBX 14 17 3 -1
BITMAP
FFE0
3018
300C
300C
300C
300C
3018
3FE0
3000
3000
3000
3000
3000
3000
3000
3000
FC00
ENDCHAR
STARTCHAR 0421
ENCODING 1057
SWIDTH 1008 0
DWIDTH 21 0
BBX 15 17 3 -1
BITMAP
07F0
181C
300C
6006
6002
C000
C000
C000
C000
C000
C000
C000
6000
6002
3004
1818
07E0
ENDCHAR
STARTCHAR 0422
ENCODING 1058
SWIDTH 1008 0
DWIDTH 21 0
BBX 15 17 3 -1
BITMAP
FFFE
C386
8382
8382
0380
0380
0380
0380
0380
0380
0380
0380
0380
0380
0380
0380
0FE0
ENDCHAR
STARTCHAR 0423
ENCODING 1059
SWIDTH 1008 0
DWIDTH 21 0
BBX 16 17 3 -1
BITMAP
FC3F
7004
3004
1808
1808
0C10
0710
0720
03A0
03C0
03C0
01C0
0180
4180
E300
C400
7800
ENDCHAR
STARTCHAR 0424
ENCODING 1060
SWIDTH 1008 0
DWIDTH 21 0
BBX 17 17 2 -1
BITMAP
07F000
01C000
01C000
0FF800
31C600
61C300
C1C180
C1C180
C1C180
C1C180
C1C180
61C300
31C600
0FF800
01C000
01C000
07F000
ENDCHAR
STARTCHAR 0425
ENCODING 1061
SWIDTH 1008 0
DWIDTH 21 0
BBX 16 17 3 -1
BITMAP
FC1F
380C
1808
0C10
0C10
0720
0340
03C0
01C0
03E0
0360
0460
0430
0818
1018
300C
FC3F
ENDCHAR
STARTCHAR 0426
ENCODING 1062
SWIDTH 1008 0
DWIDTH 21 0
BBX 16 19 2 -3
BITMAP
FC3F
300C
300C
300C
300C
300C
300C
300C
300C
300C
300C
300C
300C
300C
300C
300C
FFFF
0001
0001
ENDCHAR
STARTCHAR 0427
ENCODING 1063
SWIDTH 1008 0
DWIDTH 21 0
BBX 16 17 3 -1
BITMAP
FC3F
300C
300C
300C
300C
300C
300C
300C
301C
383C
182C
07CC
000C
000C
000C
000C
003F
ENDCHAR
STARTCHAR 0428
ENCODING 1064
SWIDTH 1008 0
DWIDTH 21 0
BBX 21 17 0 -1
BITMAP
FDFDF8
307060
307060
307060
307060
307060
307060
307060
307060
307060
307060
307060
307060
307060
307060
307060
FFFFF8
ENDCHAR
STARTCHAR 0429
ENCODING 1065
SWIDTH 1008 0
DWIDTH 21 0
BBX 21 19 0 -3
BITMAP
FDFDF8
307060
307060
307060
307060
307060
307060
307060
307060
307060
307060
307060
307060
307060
307060
307060
FFFFF8
000008
000008
ENDCHAR
STARTCHAR 042A
ENCODING 1066
SWIDTH 1008 0
DWIDTH 21 0
BBX 16 17 2 -1
BITMAP
FF80
CC00
8C00
8C00
0C00
0C00
0C00
0FF8
0C06
0C07
0C03
0C03
0C03
0C03
0C03
0C06
3FF8
ENDCHAR
STARTCHAR 042B
ENCODING 1067
SWIDTH 1008 0
DWIDTH 21 0
BBX 19 17 1 -1
BITMAP
FC07E0
300180
300180
300180
300180
300180
300180
3FC180
307180
307980
301980
301980
301980
301980
301180
307180
FFC7E0
ENDCHAR
STARTCHAR 042C
ENCODING 1068
SWIDTH 1008 0
DWIDTH 21 0
BBX 14 17 3 -1
BITMAP
FC00
3000
3000
3000
3000
3000
3000
3FE0
3018
301C
300C
300C
300C
300C
300C
3018
FFE0
ENDCHAR
STARTCHAR 042D
ENCODING 1069
SWIDTH 1008 0
DWIDTH 21 0
BBX 14 17 4 -1
BITMAP
1FC0
6070
8018
0018
000C
000C
1F0C
279C
00EC
00EC
000C
000C
000C
0018
8018
6070
1FC0
ENDCHAR
STARTCHAR 042E
ENCODING 1070
SWIDTH 1008 0
DWIDTH 21 0
BBX 19 17 1 -1
BITMAP
FC0F00
301980
3070C0
306040
30E060
30E060
30E060
3FE060
30E060
30E060
30E060
30E060
30E060
306040
3070C0
301980
FC0F00
ENDCHAR
STARTCHAR 042F
ENCODING 1071
SWIDTH 1008 0
DWIDTH 21 0
BBX 16 17 3 -1
BITMAP
07FF
180C
300C
300C
300C
300C
180C
07FC
038C
030C
070C
070C
0C0C
080C
100C
200C
C03F
ENDCHAR
STARTCHAR 0430
ENCODING 1072
SWIDTH 1008 0
DWIDTH 21 0
BBX 12 12 5 -1
BITMAP
1F00
6180
E0C0
40C0
40C0
07C0
3CC0
60C0
C0C0
C0C0
C1D0
7E60
ENDCHAR
STARTCHAR 0431
ENCODING 1073
SWIDTH 1008 0
DWIDTH 21 0
BBX 11 18 5 -1
BITMAP
0020
00C0
0F00
3000
6000
4000
DF80
F0C0
C040
C060
C060
C060
C060
C060
C060
4040
60C0
1F00
ENDCHAR
STARTCHAR 0432
ENCODING 1074
SWIDTH 1008 0
DWIDTH 21 0
BBX 11 12 5 -1
BITMAP
FF80
3040
3060
3060
3040
3040
3F80
3060
3060
3060
3060
FFC0
ENDCHAR
STARTCHAR 0433
ENCODING 1075
SWIDTH 1008 0
DWIDTH 21 0
BBX 11 12 5 -1
BITMAP
FFE0
3060
3020
3020
3020
3000
3000
3000
3000
3000
3000
FE00
ENDCHAR
STARTCHAR 0434
ENCODING 1076
SWIDTH 1008 0
DWIDTH 21 0
BBX 13 14 4 -3
BITMAP
3FF8
0860
0860
0860
0860
0860
1060
1060
1060
2060
2060
FFF8
8008
8008
ENDCHAR
STARTCHAR 0435
ENCODING 1077
SWIDTH 1008 0
DWIDTH 21 0
BBX 11 12 5 -1
BITMAP
1F80
70C0
6060
C060
C060
FFE0
C000
C000
C000
6020
7040
1F80
ENDCHAR
STARTCHAR 0436
ENCODING 1078
SWIDTH 1008 0
DWIDTH 21 0
BBX 19 12 1 -1
BITMAP
33F980
78E3C0
24E480
04E400
06EC00
02E800
03F800
06EC00
0CE600
18E300
30E180
FBFBE0
ENDCHAR
STARTCHAR 0437
ENCODING 1079
SWIDTH 1008 0
DWIDTH 21 0
BBX 10 12 6 -1
BITMAP
3F00
4180
80C0
00C0
0080
0180
1F00
0180
00C0
80C0
4180
3F00
ENDCHAR
STARTCHAR 0438
ENCODING 1080
SWIDTH 1008 0
DWIDTH 21 0
BBX 14 12 4 -1
BITMAP
FEFC
3030
3070
30B0
30B0
30B0
3330
3630
3630
3830
3030
FEFC
ENDCHAR
STARTCHAR 0439
ENCODING 1081
SWIDTH 1008 0
DWIDTH 21 0
BBX 14 16 4 -1
BITMAP
1EE0
1860
0FC0
0000
FE7C
3030
3070
30B0
30B0
30B0
3330
3630
3630
3830
3030
F8FC
ENDCHAR
STARTCHAR 043A
ENCODING 1082
SWIDTH 1008 0
DWIDTH 21 0
BBX 13 12 4 -1
BITMAP
FE30
3058
3090
3080
3100
3300
3E00
3700
3380
30C0
3060
F8F8
ENDCHAR
STARTCHAR 043B
ENCODING 1083
SWIDTH 1008 0
DWIDTH 21 0
BBX 13 12 4 -1
BITMAP
1FF8
0660
0660
0660
0660
0660
0660
0860
0860
4860
D060
63F8
ENDCHAR
STARTCHAR 043C
ENCODING 1084
SWIDTH 1008 0
DWIDTH 21 0
BBX 17 12 2 -1
BITMAP
7C3F00
180C00
181C00
1C1C00
143C00
142C00
162C00
22C600
23C600
218600
218600
F81F80
ENDCHAR
STARTCHAR 043D
ENCODING 1085
SWIDTH 1008 0
DWIDTH 21 0
BBX 14 12 3 -1
BITMAP
FDFC
3030
3030
3030
3030
3030
3FF0
3030
3030
3030
3030
FDFC
ENDCHAR
STARTCHAR 043E
ENCODING 1086
SWIDTH 1008 0
DWIDTH 21 0
BBX 11 12 5 -1
BITMAP
1F00
71C0
60C0
C060
C060
C060
C060
C060
C060
60C0
71C0
1F00
ENDCHAR
STARTCHAR 043F
ENCODING 1087
SWIDTH 1008 0
DWIDTH 21 0
BBX 14 12 3 -1
BITMAP
FFFC
3030
3030
3030
3030
3030
3030
3030
3030
3030
3030
FDFC
ENDCHAR
STARTCHAR 0440
ENCODING 1088
SWIDTH 1008 0
DWIDTH 21 0
BBX 13 14 4 -3
BITMAP
F7C0
3870
3030
3018
3018
3018
3018
3018
3030
3870
37C0
3000
3000
FE00
ENDCHAR
STARTCHAR 0441
ENCODING 1089
SWIDTH 1008 0
DWIDTH 21 0
BBX 11 12 5 -1
BITMAP
1F80
70C0
60E0
C040
C040
C000
C000
C000
C000
6020
7040
1F80
ENDCHAR
STARTCHAR 0442
ENCODING 1090
SWIDTH 1008 0
DWIDTH 21 0
BBX 11 12 5 -1
BITMAP
FFE0
CE60
8E20
8E20
8E20
0E00
0E00
0E00
0E00
0E00
0E00
3F80
ENDCHAR
STARTCHAR 0443
ENCODING 1091
SWIDTH 1008 0
DWIDTH 21 0
BBX 13 14 4 -3
BITMAP
F878
3020
3020
1840
1840
1840
0E80
0E80
0700
0700
0600
C600
E800
7000
ENDCHAR
STARTCHAR 0444
ENCODING 1092
SWIDTH 1008 0
DWIDTH 21 0
BBX 15 20 3 -3
BITMAP
0180
0780
0380
0380
0380
0380
3BB8
67CC
C386
C386
C386
C386
C386
C386
67CC
3BB8
0380
0380
0380
0FE0
ENDCHAR
STARTCHAR 0445
ENCODING 1093
SWIDTH 1008 0
DWIDTH 21 0
BBX 13 12 4 -1
BITMAP
F8F8
3020
1840
0E80
0F80
0F00
0700
0780
0BC0
10C0
2060
F8F8
ENDCHAR
STARTCHAR 0446
ENCODING 1094
SWIDTH 1008 0
DWIDTH 21 0
BBX 14 14 4 -3
BITMAP
FEFC
3030
3030
3030
3030
3030
3030
3030
3030
3030
3030
FFFC
0004
0004
ENDCHAR
STARTCHAR 0447
ENCODING 1095
SWIDTH 1008 0
DWIDTH 21 0
BBX 14 12 3 -1
BITMAP
FDFC
3030
3030
3030
3030
3030
3030
3870
1FB0
0030
0030
01FC
ENDCHAR
STARTCHAR 0448
ENCODING 1096
SWIDTH 1008 0
DWIDTH 21 0
BBX 19 12 1 -1
BITMAP
FDF7E0
30E180
30E180
30E180
30E180
30E180
30E180
30E180
30E180
30E180
30E180
FFFFE0
ENDCHAR
STARTCHAR 0449
ENCODING 1097
SWIDTH 1008 0
DWIDTH 21 0
BBX 19 14 1 -3
BITMAP
FDF7E0
30E180
30E180
30E180
30E180
30E180
30E180
30E180
30E180
30E180
30E180
FFFFE0
000020
000020
ENDCHAR
STARTCHAR 044A
ENCODING 1098
SWIDTH 1008 0
DWIDTH 21 0
BBX 14 12 4 -1
BITMAP
FF80
CE00
8E00
8E00
8E00
0E00
0FF0
0E18
0E0C
0E0C
0E18
1FF0
ENDCHAR
STARTCHAR 044B
ENCODING 1099
SWIDTH 1008 0
DWIDTH 21 0
BBX 17 12 2 -1
BITMAP
FC1F80
300600
300600
300600
300600
300600
3F8600
31C600
30E600
30E600
31C600
FF9F80
ENDCHAR
STARTCHAR 044C
ENCODING 1100
SWIDTH 1008 0
DWIDTH 21 0
BBX 12 12 4 -1
BITMAP
FE00
3000
3000
3000
3000
3000
3FC0
3060
3030
3030
3060
FFC0
ENDCHAR
STARTCHAR 044D
ENCODING 1101
SWIDTH 1008 0
DWIDTH 21 0
BBX 11 12 5 -1
BITMAP
7F00
81C0
00C0
0060
1C60
1CE0
2760
0060
0060
00C0
81C0
7F00
ENDCHAR
STARTCHAR 044E
ENCODING 1102
SWIDTH 1008 0
DWIDTH 21 0
BBX 15 12 3 -1
BITMAP
FC78
31CC
3184
3386
3386
3386
3F86
3386
3386
3184
31CC
FC78
ENDCHAR
STARTCHAR 044F
ENCODING 1103
SWIDTH 1008 0
DWIDTH 21 0
BBX 13 12 4 -1
BITMAP
1FF8
3060
6060
6060
7060
3060
1FE0
0E60
0E60
1860
3060
C3F8
ENDCHAR
STARTCHAR 0451
ENCODING 1105
SWIDTH 1008 0
DWIDTH 21 0
BBX 11 16 5 -1
BITMAP
30C0
30C0
0000
0000
1F80
70C0
6060
C060
C060
FFE0
C000
C000
C000
6020
7040
1F80
ENDCHAR
STARTCHAR 1E3E
ENCODING 7742
SWIDTH 1008 0
DWIDTH 21 0
BBX 19 19 1 -1
BITMAP
001800
00F800
01C000
F003E0
300380
380380
3C0580
2C0580
2E0980
260980
271180
271180
231180
23E180
21E180
21C180
20C180
20C180
F807E0
ENDCHAR
STARTCHAR 1E3F
ENCODING 7743
SWIDTH 1008 0
DWIDTH 21 0
BBX 19 17 1 -1
BITMAP
001800
00F800
03C000
000000
000000
E7CF00
38F180
30E180
30E180
30E180
30E180
30E180
30E180
30E180
30E180
30E180
F9F3E0
ENDCHAR
STARTCHAR 1F70
ENCODING 8048
SWIDTH 1008 0
DWIDTH 21 0
BBX 13 17 4 -1
BITMAP
1800
1F00
03C0
0000
0000
1F20
70E0
6060
C060
C060
C060
C060
C060
C060
6060
70E0
1F78
ENDCHAR
STARTCHAR 1F71
ENCODING 8049
SWIDTH 1008 0
DWIDTH 21 0
BBX 13 17 4 -1
BITMAP
00C0
07C0
1E00
0000
0000
1F20
70E0
6060
C060
C060
C060
C060
C060
C060
6060
70E0
1F78
ENDCHAR
STARTCHAR 1F72
ENCODING 8050
SWIDTH 1008 0
DWIDTH 21 0
BBX 11 16 5 0
BITMAP
3000
3E00
0780
0000
0000
3FC0
4060
C000
6000
7F00
3F00
6000
C000
C000
6060
1FC0
ENDCHAR
STARTCHAR 1F73
ENCODING 8051
SWIDTH 1008 0
DWIDTH 21 0
BBX 11 16 5 0
BITMAP
0180
0F80
3C00
0000
0000
3FC0
4060
C000
6000
7F00
3F00
6000
C000
C000
6060
1FC0
ENDCHAR
STARTCHAR 2000
ENCODING 8192
SWIDTH 1008 0
DWIDTH 21 0
BBX 0 0 0 0
BITMAP
ENDCHAR
STARTCHAR 2001
ENCODING 8193
SWIDTH 1008 0
DWIDTH 21 0
BBX 0 0 0 0
BITMAP
ENDCHAR
STARTCHAR 2002
ENCODING 8194
SWIDTH 1008 0
DWIDTH 21 0
BBX 0 0 0 0
BITMAP
ENDCHAR
STARTCHAR 2003
ENCODING 8195
SWIDTH 1008 0
DWIDTH 21 0
BBX 0 0 0 0
BITMAP
ENDCHAR
STARTCHAR 2004
ENCODING 8196
SWIDTH 1008 0
DWIDTH 21 0
BBX 0 0 0 0
BITMAP
ENDCHAR
STARTCHAR 2005
ENCODING 8197
SWIDTH 1008 0
DWIDTH 21 0
BBX 0 0 0 0
BITMAP
ENDCHAR
STARTCHAR 2006
ENCODING 8198
SWIDTH 1008 0
DWIDTH 21 0
BBX 0 0 0 0
BITMAP
ENDCHAR
STARTCHAR 2007
ENCODING 8199
SWIDTH 1008 0
DWIDTH 21 0
BBX 0 0 0 0
BITMAP
ENDCHAR
STARTCHAR 2008
ENCODING 8200
SWIDTH 1008 0
DWIDTH 21 0
BBX 0 0 0 0
BITMAP
ENDCHAR
STARTCHAR 2009
ENCODING 8201
SWIDTH 1008 0
DWIDTH 21 0
BBX 0 0 0 0
BITMAP
ENDCHAR
STARTCHAR 200A
ENCODING 8202
SWIDTH 1008 0
DWIDTH 21 0
BBX 0 0 0 0
BITMAP
ENDCHAR
STARTCHAR 200B
ENCODING 8203
SWIDTH 528 0
DWIDTH 11 0
BBX 0 0 0 0
BITMAP
ENDCHAR
STARTCHAR 200C
ENCODING 8204
SWIDTH 528 0
DWIDTH 11 0
BBX 0 0 0 0
BITMAP
ENDCHAR
STARTCHAR 200D
ENCODING 8205
SWIDTH 528 0
DWIDTH 11 0
BBX 0 0 0 0
BITMAP
ENDCHAR
STARTCHAR 200E
ENCODING 8206
SWIDTH 528 0
DWIDTH 11 0
BBX 0 0 0 0
BITMAP
ENDCHAR
STARTCHAR 200F
ENCODING 8207
SWIDTH 528 0
DWIDTH 11 0
BBX 0 0 0 0
BITMAP
ENDCHAR
STARTCHAR 2010
ENCODING 8208
SWIDTH 1008 0
DWIDTH 21 0
BBX 9 1 6 8
BITMAP
FF80
ENDCHAR
STARTCHAR 2013
ENCODING 8211
SWIDTH 1008 0
DWIDTH 21 0
BBX 7 1 7 12
BITMAP
FE
ENDCHAR
STARTCHAR 2014
ENCODING 8212
SWIDTH 1008 0
DWIDTH 21 0
BBX 21 1 0 8
BITMAP
FFFFF8
ENDCHAR
STARTCHAR 2015
ENCODING 8213
SWIDTH 1008 0
DWIDTH 21 0
BBX 21 1 0 8
BITMAP
FFFFF8
ENDCHAR
STARTCHAR 2016
ENCODING 8214
SWIDTH 1008 0
DWIDTH 21 0
BBX 8 21 7 -3
BITMAP
81
81
81
81
81
81
81
81
81
81
81
81
81
81
81
81
81
81
81
81
81
ENDCHAR
STARTCHAR 2018
ENCODING 8216
SWIDTH 1008 0
DWIDTH 21 0
BBX 3 5 15 13
BITMAP
20
40
C0
E0
E0
ENDCHAR
STARTCHAR 2019
ENCODING 8217
SWIDTH 1008 0
DWIDTH 21 0
BBX 3 5 2 13
BITMAP
E0
E0
60
40
80
ENDCHAR
STARTCHAR 201C
ENCODING 8220
SWIDTH 1008 0
DWIDTH 21 0
BBX 7 5 12 13
BITMAP
22
44
CC
EE
EE
ENDCHAR
STARTCHAR 201D
ENCODING 8221
SWIDTH 1008 0
DWIDTH 21 0
BBX 7 5 2 13
BITMAP
EE
EE
66
44
88
ENDCHAR
STARTCHAR 2020
ENCODING 8224
SWIDTH 1008 0
DWIDTH 21 0
BBX 12 21 4 -3
BITMAP
0600
0F00
0F00
4620
FFF0
4620
0600
0600
3FC0
1F80
0F00
0F00
0F00
0F00
0F00
0F00
0600
0600
0600
0600
0600
ENDCHAR
STARTCHAR 2021
ENCODING 8225
SWIDTH 1008 0
DWIDTH 21 0
BBX 12 21 4 -3
BITMAP
0600
0F00
0F00
4620
FFF0
4620
0F00
0F00
0F00
0600
0600
0700
0F00
0F00
0F00
4620
FFF0
4620
0F00
0F00
0600
ENDCHAR
STARTCHAR 2022
ENCODING 8226
SWIDTH 1008 0
DWIDTH 21 0
BBX 9 9 6 3
BITMAP
3E00
4100
8080
8080
8080
8080
8080
4100
3E00
ENDCHAR
STARTCHAR 2025
ENCODING 8229
SWIDTH 1008 0
DWIDTH 21 0
BBX 14 4 3 6
BITMAP
E01C
E01C
E01C
E01C
ENDCHAR
STARTCHAR 2026
ENCODING 8230
SWIDTH 1008 0
DWIDTH 21 0
BBX 18 4 1 6
BITMAP
E1E1C0
E1E1C0
E1E1C0
E1E1C0
ENDCHAR
STARTCHAR 2030
ENCODING 8240
SWIDTH 1008 0
DWIDTH 21 0
BBX 19 19 1 -2
BITMAP
700800
881000
881000
886000
88C000
88C000
890000
8A0000
720000
04F1C0
0D0A20
090A20
090A20
110A20
210A20
210A20
410A20
810A20
80F1C0
ENDCHAR
STARTCHAR 2032
ENCODING 8242
SWIDTH 1008 0
DWIDTH 21 0
BBX 4 7 3 10
BITMAP
30
20
60
40
40
80
80
ENDCHAR
STARTCHAR 2033
ENCODING 8243
SWIDTH 1008 0
DWIDTH 21 0
BBX 7 7 1 10
BITMAP
36
24
6C
48
48
90
90
ENDCHAR
STARTCHAR 203B
ENCODING 8251
SWIDTH 1008 0
DWIDTH 21 0
BBX 15 15 3 0
BITMAP
8382
4384
2008
1010
0820
0440
C386
C386
C446
0440
0820
1010
2008
4384
8382
ENDCHAR
STARTCHAR 203C
ENCODING 8252
SWIDTH 1008 0
DWIDTH 21 0
BBX 10 19 5 -2
BITMAP
4080
E1C0
E1C0
E1C0
E1C0
E1C0
E1C0
E1C0
E1C0
4080
4080
4080
4080
4080
0000
0000
4080
E1C0
4080
ENDCHAR
STARTCHAR 203E
ENCODING 8254
SWIDTH 1008 0
DWIDTH 21 0
BBX 21 1 0 17
BITMAP
FFFFF8
ENDCHAR
STARTCHAR 203F
ENCODING 8255
SWIDTH 1008 0
DWIDTH 21 0
BBX 15 4 6 -3
BITMAP
8002
600C
1FF0
03C0
ENDCHAR
STARTCHAR 2042
ENCODING 8258
SWIDTH 1008 0
DWIDTH 21 0
BBX 18 21 1 -3
BITMAP
00C000
04C800
06D800
03F000
00C000
03F000
06D800
04C800
00C000
000000
000000
100200
100200
921240
D61AC0
7C0F80
100200
7C0F80
D61AC0
921240
100200
ENDCHAR
STARTCHAR 2047
ENCODING 8263
SWIDTH 1008 0
DWIDTH 21 0
BBX 17 19 2 -2
BITMAP
380E00
441100
862180
862180
C63180
C63180
0C0300
180600
100400
100400
100400
100400
100400
100400
000000
000000
100400
380E00
100400
ENDCHAR
STARTCHAR 2048
ENCODING 8264
SWIDTH 1008 0
DWIDTH 21 0
BBX 15 19 2 -2
BITMAP
3804
440E
860E
860E
C60E
C60E
0C0E
180E
100E
1004
1004
1004
1004
1004
0000
0000
1004
380E
1004
ENDCHAR
STARTCHAR 2049
ENCODING 8265
SWIDTH 1008 0
DWIDTH 21 0
BBX 15 19 4 -2
BITMAP
4038
E044
E086
E086
E0C6
E0C6
E00C
E018
E010
4010
4010
4010
4010
4010
0000
0000
4010
E038
4010
ENDCHAR
STARTCHAR 2051
ENCODING 8273
SWIDTH 1008 0
DWIDTH 21 0
BBX 8 21 6 -3
BITMAP
18
99
DB
7E
18
7E
DB
99
18
00
00
18
18
99
DB
7E
18
7E
DB
99
18
ENDCHAR
STARTCHAR 20AC
ENCODING 8364
SWIDTH 1008 0
DWIDTH 21 0
BBX 16 17 2 -1
BITMAP
01F8
0606
0C00
1800
1800
FFFF
3000
3000
3000
3FFF
FFFF
3000
1800
1800
0C00
0606
01F8
ENDCHAR
STARTCHAR 2103
ENCODING 8451
SWIDTH 1008 0
DWIDTH 21 0
BBX 19 18 1 -1
BITMAP
700000
880000
881E40
88E1C0
71C0E0
030060
030020
060000
060000
060000
060000
060000
060000
030000
030020
01C020
00E0C0
001F00
ENDCHAR
STARTCHAR 210F
ENCODING 8463
SWIDTH 1008 0
DWIDTH 21 0
BBX 14 17 4 -1
BITMAP
0E00
1E00
0E70
0F80
3800
D800
1BC0
1E60
3060
3060
3060
2060
60C0
60C0
40C4
C048
C030
ENDCHAR
STARTCHAR 2113
ENCODING 8467
SWIDTH 1008 0
DWIDTH 21 0
BBX 14 18 3 -1
BITMAP
01E0
0320
0310
0710
0710
0710
0710
0710
0730
0720
0720
0760
0740
0380
0784
0D84
39D8
E070
ENDCHAR
STARTCHAR 2116
ENCODING 8470
SWIDTH 1008 0
DWIDTH 21 0
BBX 21 15 0 0
BITMAP
E1E000
708000
708000
588000
588780
4C8CC0
4CB860
46B860
46B860
46B860
43B860
43B860
41B860
418CD8
E08798
ENDCHAR
STARTCHAR 2121
ENCODING 8481
SWIDTH 1008 0
DWIDTH 21 0
BBX 21 15 0 0
BITMAP
FF7EE0
DB76C0
9972C0
1872C0
1870C0
1870C0
1874C0
187CC0
1874C0
1874C0
1870C0
1872C8
1872C8
1876D8
7E7EF8
ENDCHAR
STARTCHAR 2127
ENCODING 8487
SWIDTH 1008 0
DWIDTH 21 0
BBX 15 17 3 -1
BITMAP
FC7E
FC7E
8442
8442
0820
1010
2008
600C
4004
4006
C006
C006
C006
4004
600C
3018
0FE0
ENDCHAR
STARTCHAR 212B
ENCODING 8491
SWIDTH 1008 0
DWIDTH 21 0
BBX 17 18 2 -1
BITMAP
01C000
022000
022000
01C000
000000
01C000
01C000
02E000
02E000
043000
043000
043000
081800
0FF800
101C00
100C00
300E00
FC3F80
ENDCHAR
STARTCHAR 2135
ENCODING 8501
SWIDTH 1008 0
DWIDTH 21 0
BBX 13 17 4 -1
BITMAP
8020
8020
C030
6030
3018
1828
0E40
0F40
1780
37C0
23C0
60E0
6070
6030
6018
6008
C008
ENDCHAR
STARTCHAR 2153
ENCODING 8531
SWIDTH 1008 0
DWIDTH 21 0
BBX 17 21 2 -3
BITMAP
00C000
01C000
07C000
01C000
01C000
01C000
01C000
07F000
000000
FFFF80
000000
03E000
03E000
0C1000
0C1800
001800
03F000
001800
0C1800
0E1000
03E000
ENDCHAR
STARTCHAR 2154
ENCODING 8532
SWIDTH 1008 0
DWIDTH 21 0
BBX 17 21 2 -3
BITMAP
03E000
043000
0C1800
0C1800
00F000
01C800
061800
0FF800
000000
FFFF80
000000
03E000
03E000
0C1000
0C1800
001800
03F000
001800
0C1800
0E1000
03E000
ENDCHAR
STARTCHAR 2155
ENCODING 8533
SWIDTH 1008 0
DWIDTH 21 0
BBX 17 21 2 -3
BITMAP
00C000
01C000
07C000
01C000
01C000
01C000
01C000
07F000
000000
FFFF80
000000
0FF800
0FF800
0C0000
0C0000
0FE000
0C1000
001800
0C1800
0C1000
03E000
ENDCHAR
STARTCHAR 2160
ENCODING 8544
SWIDTH 1008 0
DWIDTH 21 0
BBX 7 17 7 -1
BITMAP
FE
38
38
38
38
38
38
38
38
38
38
38
38
38
38
38
FE
ENDCHAR
STARTCHAR 2161
ENCODING 8545
SWIDTH 1008 0
DWIDTH 21 0
BBX 13 17 4 -1
BITMAP
FFF8
3060
3060
3060
3060
3060
3060
3060
3060
3060
3060
3060
3060
3060
3060
3060
FFF8
ENDCHAR
STARTCHAR 2162
ENCODING 8546
SWIDTH 1008 0
DWIDTH 21 0
BBX 17 17 2 -1
BITMAP
FFFF80
31C600
31C600
31C600
31C600
31C600
31C600
31C600
31C600
31C600
31C600
31C600
31C600
31C600
31C600
31C600
FFFF80
ENDCHAR
STARTCHAR 2163
ENCODING 8547
SWIDTH 1008 0
DWIDTH 21 0
BBX 18 17 1 -1
BITMAP
FFC7C0
360100
370100
330100
330200
31C200
31C200
31C400
30E400
30E400
30E400
30E800
307800
307800
307800
301000
FC1000
ENDCHAR
STARTCHAR 2164
ENCODING 8548
SWIDTH 1008 0
DWIDTH 21 0
BBX 17 17 2 -1
BITMAP
FC1F80
300200
380200
180400
180400
0C0800
0C0800
060800
061000
079000
039000
03A000
03E000
01E000
01E000
00C000
00C000
ENDCHAR
STARTCHAR 2165
ENCODING 8549
SWIDTH 1008 0
DWIDTH 21 0
BBX 19 17 1 -1
BITMAP
FC7FE0
300980
380980
180980
181180
0C1180
0C1180
0C6180
066180
066180
066180
06C180
03C180
03C180
03C180
010180
0107E0
ENDCHAR
STARTCHAR 2166
ENCODING 8550
SWIDTH 1008 0
DWIDTH 21 0
BBX 18 17 1 -1
BITMAP
F9FFC0
60D980
60D980
60D980
30D980
311980
311980
311980
191980
1A1980
1A1980
1A1980
0E1980
0E1980
0E1980
041980
04FFC0
ENDCHAR
STARTCHAR 2167
ENCODING 8551
SWIDTH 1008 0
DWIDTH 21 0
BBX 19 17 1 -1
BITMAP
F3FFE0
6176C0
6176C0
6176C0
6176C0
2276C0
3276C0
3276C0
3276C0
3476C0
3476C0
1476C0
1C76C0
1C76C0
0C76C0
087640
09FFE0
ENDCHAR
STARTCHAR 2168
ENCODING 8552
SWIDTH 1008 0
DWIDTH 21 0
BBX 17 17 2 -1
BITMAP
FF9F00
6E0C00
660800
638800
639000
63D000
61E000
60E000
60F000
60B000
61B000
61B000
619800
621C00
620C00
660E00
FFDF80
ENDCHAR
STARTCHAR 2169
ENCODING 8553
SWIDTH 1008 0
DWIDTH 21 0
BBX 17 17 2 -1
BITMAP
FC1F00
380C00
180800
0C1000
062000
07A000
03C000
01C000
01E000
03E000
02E000
043000
043800
081800
100C00
300E00
FC1F80
ENDCHAR
STARTCHAR 216A
ENCODING 8554
SWIDTH 1008 0
DWIDTH 21 0
BBX 19 17 1 -1
BITMAP
7CFFE0
387180
186180
0C6180
0CC180
0EC180
070180
030180
03C180
07C180
05C180
05C180
08E180
08F180
107180
307980
FEFFE0
ENDCHAR
STARTCHAR 216B
ENCODING 8555
SWIDTH 1008 0
DWIDTH 21 0
BBX 19 17 1 -1
BITMAP
F9FFE0
70E6C0
30C6C0
18C6C0
1906C0
1D06C0
0E06C0
0606C0
0706C0
0F06C0
0B06C0
0B06C0
09C6C0
11E6C0
10E6C0
30F6C0
FDFFE0
ENDCHAR
STARTCHAR 2170
ENCODING 8560
SWIDTH 1008 0
DWIDTH 21 0
BBX 7 17 7 -1
BITMAP
30
78
30
00
00
F8
38
38
38
38
38
38
38
38
38
38
FE
ENDCHAR
STARTCHAR 2171
ENCODING 8561
SWIDTH 1008 0
DWIDTH 21 0
BBX 13 17 4 -1
BITMAP
2040
70E0
2040
0000
0000
F3E0
3060
3060
3060
3060
3060
3060
3060
3060
3060
3060
FFF8
ENDCHAR
STARTCHAR 2172
ENCODING 8562
SWIDTH 1008 0
DWIDTH 21 0
BBX 17 17 2 -1
BITMAP
218400
73CE00
218400
000000
000000
F7DE00
31C600
31C600
31C600
31C600
31C600
31C600
31C600
31C600
31C600
31C600
FFFF80
ENDCHAR
STARTCHAR 2173
ENCODING 8563
SWIDTH 1008 0
DWIDTH 21 0
BBX 17 17 2 -1
BITMAP
200000
700000
200000
000000
000000
FFC780
338100
338200
31C200
31C400
31C400
30E400
30E800
303800
303800
301000
FC1000
ENDCHAR
STARTCHAR 2174
ENCODING 8564
SWIDTH 1008 0
DWIDTH 21 0
BBX 14 12 4 -1
BITMAP
F87C
3010
3020
1820
1860
1840
0E40
0E80
0780
0780
0300
0300
ENDCHAR
STARTCHAR 2175
ENCODING 8565
SWIDTH 1008 0
DWIDTH 21 0
BBX 17 17 2 -1
BITMAP
000200
000700
000200
000000
000000
F1FF00
602300
60C300
30C300
31C300
318300
198300
1A0300
0E0300
0E0300
040300
040F80
ENDCHAR
STARTCHAR 2176
ENCODING 8566
SWIDTH 1008 0
DWIDTH 21 0
BBX 19 17 1 -1
BITMAP
000880
001DC0
000880
000000
000000
F1FDC0
606CC0
60CCC0
30CCC0
31CCC0
310CC0
190CC0
1A0CC0
0E0CC0
0E0CC0
040CC0
041FE0
ENDCHAR
STARTCHAR 2177
ENCODING 8567
SWIDTH 1008 0
DWIDTH 21 0
BBX 21 17 0 -1
BITMAP
006220
00F770
006220
000000
000000
F7F770
617330
617330
627330
727330
327330
327330
347330
1C7330
1C7330
087330
08FFF8
ENDCHAR
STARTCHAR 2178
ENCODING 8568
SWIDTH 1008 0
DWIDTH 21 0
BBX 18 17 2 -1
BITMAP
200000
700000
200000
000000
000000
F7E7C0
31C100
30E200
303400
303C00
303800
301800
301C00
302E00
30C600
318300
FFE7C0
ENDCHAR
STARTCHAR 2179
ENCODING 8569
SWIDTH 1008 0
DWIDTH 21 0
BBX 13 12 4 -1
BITMAP
F8F8
3020
1840
0E80
0F80
0F00
0700
0780
0BC0
10C0
2060
F8F8
ENDCHAR
STARTCHAR 217A
ENCODING 8570
SWIDTH 1008 0
DWIDTH 21 0
BBX 17 17 2 -1
BITMAP
000400
000E00
000400
000000
000000
F9FE00
302600
18C600
0D8600
0F8600
0E0600
060600
078600
0BC600
11C600
20E600
F9FF80
ENDCHAR
STARTCHAR 217B
ENCODING 8571
SWIDTH 1008 0
DWIDTH 21 0
BBX 21 17 0 -1
BITMAP
000440
000EE0
000440
000000
000000
79FFE0
306660
188660
0D0660
0F0660
0E0660
060660
070660
0B8660
118660
20E660
F9FFF8
ENDCHAR
STARTCHAR 2190
ENCODING 8592
SWIDTH 1008 0
DWIDTH 21 0
BBX 20 8 0 4
BITMAP
040000
080000
300000
FFFFF0
300000
380000
080000
040000
ENDCHAR
STARTCHAR 2191
ENCODING 8593
SWIDTH 1008 0
DWIDTH 21 0
BBX 8 20 6 -2
BITMAP
18
18
3C
3C
5A
99
18
18
18
18
18
18
18
18
18
18
18
18
18
18
ENDCHAR
STARTCHAR 2192
ENCODING 8594
SWIDTH 1008 0
DWIDTH 21 0
BBX 20 8 0 4
BITMAP
000200
000100
0000C0
FFFFF0
0000C0
0001C0
000100
000200
ENDCHAR
STARTCHAR 2193
ENCODING 8595
SWIDTH 1008 0
DWIDTH 21 0
BBX 8 20 6 -2
BITMAP
18
18
18
18
18
18
18
18
18
18
18
18
18
18
99
5A
3C
3C
18
18
ENDCHAR
STARTCHAR 2194
ENCODING 8596
SWIDTH 1008 0
DWIDTH 21 0
BBX 19 8 1 4
BITMAP
040400
080200
300180
FFFFE0
300180
380380
080200
040400
ENDCHAR
STARTCHAR 2196
ENCODING 8598
SWIDTH 1008 0
DWIDTH 21 0
BBX 19 19 1 -2
BITMAP
800000
700000
6C0000
500000
280000
240000
020000
010000
00C000
006000
007000
001000
000800
000400
000200
000100
000080
000040
000020
ENDCHAR
STARTCHAR 2197
ENCODING 8599
SWIDTH 1008 0
DWIDTH 21 0
BBX 19 19 1 -2
BITMAP
000020
000040
000380
000D80
000280
000500
000900
001000
006000
00C000
010000
010000
020000
040000
080000
100000
200000
400000
800000
ENDCHAR
STARTCHAR 2198
ENCODING 8600
SWIDTH 1008 0
DWIDTH 21 0
BBX 19 19 1 -2
BITMAP
800000
400000
200000
100000
080000
040000
020000
010000
00C000
006000
007000
001000
000800
000480
000280
000140
0006C0
0001C0
000020
ENDCHAR
STARTCHAR 2199
ENCODING 8601
SWIDTH 1008 0
DWIDTH 21 0
BBX 19 19 1 -2
BITMAP
000020
000040
000080
000100
000200
000400
000800
001000
006000
00C000
010000
010000
120000
140000
280000
360000
380000
400000
800000
ENDCHAR
STARTCHAR 21C4
ENCODING 8644
SWIDTH 1008 0
DWIDTH 21 0
BBX 20 17 0 -1
BITMAP
000200
000100
0000C0
FFFFF0
0000C0
000100
000200
000000
000000
040000
040000
080000
300000
FFFFF0
300000
080000
040000
ENDCHAR
STARTCHAR 21D2
ENCODING 8658
SWIDTH 1008 0
DWIDTH 21 0
BBX 20 12 0 2
BITMAP
000200
000100
000080
FFFFC0
000020
000010
000020
FFFFE0
FFFFC0
000080
000100
000200
ENDCHAR
STARTCHAR 21D4
ENCODING 8660
SWIDTH 1008 0
DWIDTH 21 0
BBX 20 12 0 2
BITMAP
040200
080100
100080
3FFFC0
400020
800010
400020
7FFFE0
3FFFC0
100080
080100
040200
ENDCHAR
STARTCHAR 21E6
ENCODING 8678
SWIDTH 1008 0
DWIDTH 21 0
BBX 20 12 0 2
BITMAP
040000
0C0000
140000
27FFF0
400010
800010
400010
600010
27FFF0
140000
0C0000
040000
ENDCHAR
STARTCHAR 21E7
ENCODING 8679
SWIDTH 1008 0
DWIDTH 21 0
BBX 18 16 1 0
BITMAP
000200
000200
000700
000700
000A80
001240
000200
000200
000400
000400
000400
000400
000800
001000
01E000
FE0000
ENDCHAR
STARTCHAR 21E8
ENCODING 8680
SWIDTH 1008 0
DWIDTH 21 0
BBX 20 12 1 2
BITMAP
000200
000300
000280
FFFE40
800020
800010
800020
FFFE40
FFFE40
000280
000300
000200
ENDCHAR
STARTCHAR 21E9
ENCODING 8681
SWIDTH 1008 0
DWIDTH 21 0
BBX 12 20 4 -2
BITMAP
0600
0B00
1080
2040
4020
F0F0
1080
1080
1080
1080
1080
1080
1080
1080
1080
1080
1080
1080
1080
1F80
ENDCHAR
STARTCHAR 2200
ENCODING 8704
SWIDTH 1008 0
DWIDTH 21 0
BBX 16 17 2 -1
BITMAP
8001
8001
4002
4002
2004
3FFC
1008
1008
0810
0810
0810
0420
0420
02C0
02C0
0180
0180
ENDCHAR
STARTCHAR 2202
ENCODING 8706
SWIDTH 1008 0
DWIDTH 21 0
BBX 11 17 4 -1
BITMAP
0780
1FC0
2060
0020
0020
0020
0F60
30E0
6060
4040
4040
C0C0
80C0
8380
8380
4700
3E00
ENDCHAR
STARTCHAR 2203
ENCODING 8707
SWIDTH 1008 0
DWIDTH 21 0
BBX 12 14 4 1
BITMAP
FFF0
0010
0010
0010
0010
0010
FFF0
0010
0010
0010
0010
0010
0010
FFF0
ENDCHAR
STARTCHAR 2205
ENCODING 8709
SWIDTH 1008 0
DWIDTH 21 0
BBX 16 16 2 0
BITMAP
0001
07E2
181C
200C
2014
4022
40C2
4182
4202
4402
4402
2804
3004
3818
47E0
8000
ENDCHAR
STARTCHAR 2207
ENCODING 8711
SWIDTH 1008 0
DWIDTH 21 0
BBX 19 18 1 -2
BITMAP
FFFFE0
600040
6000C0
300080
300180
180100
180300
0C0200
0C0600
0E0400
060400
060C00
030800
031800
01D000
01F000
00E000
00E000
ENDCHAR
STARTCHAR 2208
ENCODING 8712
SWIDTH 1008 0
DWIDTH 21 0
BBX 13 12 4 2
BITMAP
0FF8
3000
4000
4000
8000
FFF8
8000
C000
4000
4000
3000
0FF8
ENDCHAR
STARTCHAR 2209
ENCODING 8713
SWIDTH 1008 0
DWIDTH 21 0
BBX 13 16 4 0
BITMAP
0020
0020
0FF8
3040
4040
4080
8080
FFF8
8300
C300
4300
4600
3600
0FF8
0800
0800
ENDCHAR
STARTCHAR 220B
ENCODING 8715
SWIDTH 1008 0
DWIDTH 21 0
BBX 13 12 4 2
BITMAP
FF80
0060
0010
0010
0008
FFF8
0008
0010
0010
0010
0060
FF80
ENDCHAR
STARTCHAR 2212
ENCODING 8722
SWIDTH 1008 0
DWIDTH 21 0
BBX 16 1 2 8
BITMAP
FFFF
ENDCHAR
STARTCHAR 2213
ENCODING 8723
SWIDTH 1008 0
DWIDTH 21 0
BBX 14 15 3 0
BITMAP
FFFC
0000
0000
0300
0300
0300
0300
0300
03FC
FFFC
0300
0300
0300
0300
0300
ENDCHAR
STARTCHAR 221D
ENCODING 8733
SWIDTH 1008 0
DWIDTH 21 0
BBX 18 11 1 2
BITMAP
1C0F00
221080
416040
80C000
80C000
80C000
80C000
80C000
416040
221080
1C0F00
ENDCHAR
STARTCHAR 221E
ENCODING 8734
SWIDTH 1008 0
DWIDTH 21 0
BBX 19 11 1 2
BITMAP
3C0780
4608C0
831060
81D020
80E020
80E020
81F020
817020
C11820
620C40
3C0780
ENDCHAR
STARTCHAR 221F
ENCODING 8735
SWIDTH 1008 0
DWIDTH 21 0
BBX 19 19 1 -2
BITMAP
800000
800000
800000
800000
800000
800000
800000
800000
800000
800000
800000
800000
800000
800000
800000
800000
800000
800000
FFFFE0
ENDCHAR
STARTCHAR 2225
ENCODING 8741
SWIDTH 1008 0
DWIDTH 21 0
BBX 13 21 4 -3
BITMAP
0040
0040
0088
0088
0310
0310
0620
0620
0840
0840
1080
1080
1080
2300
2300
4600
4600
8800
8800
1000
1000
ENDCHAR
STARTCHAR 2226
ENCODING 8742
SWIDTH 1008 0
DWIDTH 21 0
BBX 13 21 4 -3
BITMAP
0040
0040
0088
0088
0310
4310
2620
1620
0840
0E40
1380
1380
1080
2340
2320
4610
4600
8800
8800
1000
1000
ENDCHAR
STARTCHAR 2227
ENCODING 8743
SWIDTH 1008 0
DWIDTH 21 0
BBX 14 15 3 0
BITMAP
0300
0300
0580
0580
0840
0840
1020
1020
2030
2010
2010
4008
4008
8004
8004
ENDCHAR
STARTCHAR 2228
ENCODING 8744
SWIDTH 1008 0
DWIDTH 21 0
BBX 14 15 3 0
BITMAP
8004
8004
4008
4008
2010
2010
1020
1020
1840
0840
0840
0580
0580
0300
0300
ENDCHAR
STARTCHAR 222C
ENCODING 8748
SWIDTH 1008 0
DWIDTH 21 0
BBX 14 21 3 -3
BITMAP
3838
4C4C
8D8C
8180
C1C0
C1C0
6060
6060
7070
3030
3030
3838
3838
1818
1818
0C0C
0C0C
0404
C5C4
C9C8
7070
ENDCHAR
STARTCHAR 222E
ENCODING 8750
SWIDTH 1008 0
DWIDTH 21 0
BBX 7 21 7 -3
BITMAP
3C
46
86
80
C0
C0
70
7C
B2
BA
BA
BA
9A
7C
1C
06
06
02
C2
C4
78
ENDCHAR
STARTCHAR 2234
ENCODING 8756
SWIDTH 1008 0
DWIDTH 21 0
BBX 14 14 3 1
BITMAP
0780
0780
0780
0000
0000
0000
0000
0000
0000
0000
0000
E01C
E01C
E01C
ENDCHAR
STARTCHAR 223D
ENCODING 8765
SWIDTH 1008 0
DWIDTH 21 0
BBX 19 11 1 2
BITMAP
1C0700
200880
401040
806020
806020
80C020
80C020
80C020
410040
220080
1C0700
ENDCHAR
STARTCHAR 2243
ENCODING 8771
SWIDTH 1008 0
DWIDTH 21 0
BBX 18 9 2 4
BITMAP
3C0000
438040
81E040
803080
000F00
000000
000000
000000
FFFFC0
ENDCHAR
STARTCHAR 2245
ENCODING 8773
SWIDTH 1008 0
DWIDTH 21 0
BBX 18 10 2 3
BITMAP
3C0000
438040
81E040
803080
000F00
000000
FFFFC0
FFFFC0
000000
FFFFC0
ENDCHAR
STARTCHAR 2248
ENCODING 8776
SWIDTH 1008 0
DWIDTH 21 0
BBX 18 10 2 3
BITMAP
3C0000
438040
81E040
803080
3C0F00
438040
C3E040
81E040
803080
000F00
ENDCHAR
STARTCHAR 2260
ENCODING 8800
SWIDTH 1008 0
DWIDTH 21 0
BBX 15 14 3 1
BITMAP
0020
0020
0040
0040
FFFE
0180
0300
0300
03FE
FFFE
0400
0400
0800
0800
ENDCHAR
STARTCHAR 2262
ENCODING 8802
SWIDTH 1008 0
DWIDTH 21 0
BBX 16 18 3 -1
BITMAP
0008
0008
0010
FFFF
0020
0040
0040
0180
FFFF
0180
0100
0300
0300
0400
FFFF
0800
1000
1000
ENDCHAR
STARTCHAR 2266
ENCODING 8806
SWIDTH 1008 0
DWIDTH 21 0
BBX 17 15 2 0
BITMAP
000780
00F800
0F8000
F00000
F00000
0F8000
00F800
000780
000780
000000
000000
FFFF80
000000
000000
FFFF80
ENDCHAR
STARTCHAR 2267
ENCODING 8807
SWIDTH 1008 0
DWIDTH 21 0
BBX 17 15 2 0
BITMAP
F00000
0F8000
00F800
000780
000780
00F800
0F8000
F00000
F00000
000000
000000
FFFF80
000000
000000
FFFF80
ENDCHAR
STARTCHAR 226A
ENCODING 8810
SWIDTH 1008 0
DWIDTH 21 0
BBX 19 17 1 -1
BITMAP
000820
0070C0
00C100
030600
040800
187000
20C000
C30000
C30000
E3C000
20C000
187000
040800
030600
00C100
0070C0
000820
ENDCHAR
STARTCHAR 226B
ENCODING 8811
SWIDTH 1008 0
DWIDTH 21 0
BBX 19 17 1 -1
BITMAP
820000
61C000
106000
0C1800
020400
01C300
006080
001860
001860
002080
006080
01C300
020400
0C1800
106000
61C000
820000
ENDCHAR
STARTCHAR 2276
ENCODING 8822
SWIDTH 1008 0
DWIDTH 21 0
BBX 16 17 2 -1
BITMAP
E000
1C00
03C0
0038
0007
0038
03C0
1C07
E038
E040
03C0
1C00
E000
1C00
03C0
0038
0007
ENDCHAR
STARTCHAR 2277
ENCODING 8823
SWIDTH 1008 0
DWIDTH 21 0
BBX 16 17 2 -1
BITMAP
0007
0038
03C0
1C00
E000
1C00
03C0
E038
1C07
1FC7
03C0
0038
0007
0038
03C0
1C00
E000
ENDCHAR
STARTCHAR 2282
ENCODING 8834
SWIDTH 1008 0
DWIDTH 21 0
BBX 15 13 3 1
BITMAP
0FFE
3000
4000
4000
8000
8000
8000
8000
8000
4000
4000
3000
0FFE
ENDCHAR
STARTCHAR 2283
ENCODING 8835
SWIDTH 1008 0
DWIDTH 21 0
BBX 15 13 3 1
BITMAP
FFE0
0018
0004
0004
0002
0002
0002
0002
0002
0004
0004
0018
FFE0
ENDCHAR
STARTCHAR 2284
ENCODING 8836
SWIDTH 1008 0
DWIDTH 21 0
BBX 15 15 3 0
BITMAP
0004
0FFE
3008
4008
4010
8010
8020
8020
8040
8040
4040
4180
3180
0FFE
0300
ENDCHAR
STARTCHAR 2285
ENCODING 8837
SWIDTH 1008 0
DWIDTH 21 0
BBX 15 15 3 0
BITMAP
0180
FFE0
0318
0304
0404
0402
0802
0802
1002
1002
1004
2004
2018
FFE0
4000
ENDCHAR
STARTCHAR 2286
ENCODING 8838
SWIDTH 1008 0
DWIDTH 21 0
BBX 15 14 3 1
BITMAP
0FFE
3000
4000
4000
8000
8000
4000
4000
7000
3000
0FFE
0000
0000
FFFE
ENDCHAR
STARTCHAR 2287
ENCODING 8839
SWIDTH 1008 0
DWIDTH 21 0
BBX 15 14 3 1
BITMAP
FFE0
0018
0004
0004
0002
0002
0004
0004
0008
0018
FFE0
0000
0000
FFFE
ENDCHAR
STARTCHAR 228A
ENCODING 8842
SWIDTH 1008 0
DWIDTH 21 0
BBX 15 16 3 -1
BITMAP
0FFE
3000
4000
4000
8000
8000
4000
4000
7000
3000
0FFE
0180
0180
FFFE
0300
0300
ENDCHAR
STARTCHAR 228B
ENCODING 8843
SWIDTH 1008 0
DWIDTH 21 0
BBX 15 16 3 -1
BITMAP
FFE0
0018
0004
0004
0002
0002
0004
0004
0008
0018
FFE0
0180
0180
FFFE
0300
0300
ENDCHAR
STARTCHAR 2295
ENCODING 8853
SWIDTH 1008 0
DWIDTH 21 0
BBX 18 18 1 -1
BITMAP
03F000
0C0C00
10C200
20C100
40C080
40C080
80C040
80C040
BFFF40
80C040
80C040
80C040
40C080
40C080
20C100
10C200
0C0C00
03F000
ENDCHAR
STARTCHAR 2296
ENCODING 8854
SWIDTH 1008 0
DWIDTH 21 0
BBX 18 18 1 -1
BITMAP
03F000
0C0C00
100200
200100
400080
400080
800040
800040
BFFF40
800040
800040
800040
400080
400080
200100
100200
0C0C00
03F000
ENDCHAR
STARTCHAR 2297
ENCODING 8855
SWIDTH 1008 0
DWIDTH 21 0
BBX 18 18 1 -1
BITMAP
03F000
0C0C00
100200
200100
480480
440880
821040
816040
80C040
816040
827040
821040
440880
480480
200100
100200
0C0C00
03F000
ENDCHAR
STARTCHAR 22BF
ENCODING 8895
SWIDTH 1008 0
DWIDTH 21 0
BBX 19 19 1 -2
BITMAP
000020
000060
0000A0
000120
000220
000420
000820
001020
006020
00C020
010020
010020
020020
040020
080020
100020
200020
400020
FFFFE0
ENDCHAR
STARTCHAR 22DA
ENCODING 8922
SWIDTH 1008 0
DWIDTH 21 0
BBX 16 18 2 -1
BITMAP
F000
0F80
00F8
0007
00F8
0F80
F000
0000
FFFF
0000
000F
000F
01F0
1E00
E000
1E00
01F0
000F
ENDCHAR
STARTCHAR 22DB
ENCODING 8923
SWIDTH 1008 0
DWIDTH 21 0
BBX 16 18 2 -1
BITMAP
F000
0F80
00F8
0007
00F8
0F80
F000
0000
FFFF
0000
000F
000F
01F0
1E00
E000
1E00
01F0
000F
ENDCHAR
STARTCHAR 2305
ENCODING 8965
SWIDTH 1008 0
DWIDTH 21 0
BBX 12 12 4 2
BITMAP
FFF0
0600
0600
0B00
0B00
1080
1080
20C0
2040
2040
4020
4020
ENDCHAR
STARTCHAR 2306
ENCODING 8966
SWIDTH 1008 0
DWIDTH 21 0
BBX 12 13 4 2
BITMAP
FFF0
0000
FFF0
0600
0B00
0B00
1080
1080
20C0
2040
2040
4020
4020
ENDCHAR
STARTCHAR 2312
ENCODING 8978
SWIDTH 1008 0
DWIDTH 21 0
BBX 20 4 0 14
BITMAP
03FC00
1C0380
600060
800010
ENDCHAR
STARTCHAR 2318
ENCODING 8984
SWIDTH 1008 0
DWIDTH 21 0
BBX 15 15 3 0
BITMAP
701C
8822
8822
8822
7FFC
0820
0820
0820
0820
0820
7FFC
8822
8822
8822
701C
ENDCHAR
STARTCHAR 23BE
ENCODING 9150
SWIDTH 1008 0
DWIDTH 21 0
BBX 7 19 9 -1
BITMAP
FE
FE
E0
E0
E0
E0
E0
E0
E0
E0
E0
E0
E0
E0
E0
E0
E0
E0
E0
ENDCHAR
STARTCHAR 23BF
ENCODING 9151
SWIDTH 1008 0
DWIDTH 21 0
BBX 7 19 9 -1
BITMAP
E0
E0
E0
E0
E0
E0
E0
E0
E0
E0
E0
E0
E0
E0
E0
E0
E0
FE
FE
ENDCHAR
STARTCHAR 23C0
ENCODING 9152
SWIDTH 1008 0
DWIDTH 21 0
BBX 13 17 4 1
BITMAP
0700
0700
0700
0700
0F80
3760
4710
4710
8708
8708
8708
8708
8708
4710
4710
3760
0F80
ENDCHAR
STARTCHAR 23C1
ENCODING 9153
SWIDTH 1008 0
DWIDTH 21 0
BBX 21 17 0 1
BITMAP
FFFFF8
FFFFF8
007000
007000
00F800
037600
047100
047100
087080
087080
087080
087080
087080
047100
047100
037600
00F800
ENDCHAR
STARTCHAR 23C2
ENCODING 9154
SWIDTH 1008 0
DWIDTH 21 0
BBX 21 19 0 -1
BITMAP
007000
007000
007000
007000
00F800
037600
047100
047100
087080
087080
087080
087080
087080
047100
047100
037600
00F800
FFFFF8
FFFFF8
ENDCHAR
STARTCHAR 23C3
ENCODING 9155
SWIDTH 1008 0
DWIDTH 21 0
BBX 15 17 3 1
BITMAP
0380
0380
0380
0380
0380
07C0
0BA0
0BA0
1390
1390
1390
2398
2388
2388
4384
4384
FFFE
ENDCHAR
STARTCHAR 23C4
ENCODING 9156
SWIDTH 1008 0
DWIDTH 21 0
BBX 21 17 0 1
BITMAP
FFFFF8
FFFFF8
007000
007000
007000
00F800
017400
017400
027200
027200
027200
047300
047100
047100
087080
087080
1FFFC0
ENDCHAR
STARTCHAR 23C5
ENCODING 9157
SWIDTH 1008 0
DWIDTH 21 0
BBX 21 19 0 -1
BITMAP
007000
007000
007000
007000
007000
00F800
017400
017400
027200
027200
047100
047100
047100
087080
087080
1FFFC0
007000
FFFFF8
FFFFF8
ENDCHAR
STARTCHAR 23C6
ENCODING 9158
SWIDTH 1008 0
DWIDTH 21 0
BBX 17 19 2 -1
BITMAP
01C000
01C000
01C000
01C000
01C000
01C000
01C000
01C000
39C180
7FE180
C3FF00
C3CE00
C1CE00
01C000
01C000
01C000
01C000
01C000
01C000
ENDCHAR
STARTCHAR 23C7
ENCODING 9159
SWIDTH 1008 0
DWIDTH 21 0
BBX 21 19 0 -1
BITMAP
FFFFF8
FFFFF8
007000
007000
007000
007000
007000
007000
0E7060
1FF860
30FFC0
30F380
307380
007000
007000
007000
007000
007000
007000
ENDCHAR
STARTCHAR 23C8
ENCODING 9160
SWIDTH 1008 0
DWIDTH 21 0
BBX 21 19 0 -1
BITMAP
007000
007000
007000
007000
007000
007000
007000
007000
0E7060
1FF860
30FFC0
30F380
307380
007000
007000
007000
007000
FFFFF8
FFFFF8
ENDCHAR
STARTCHAR 23C9
ENCODING 9161
SWIDTH 1008 0
DWIDTH 21 0
BBX 21 19 0 -1
BITMAP
FFFFF8
FFFFF8
007000
007000
007000
007000
007000
007000
007000
007000
007000
007000
007000
007000
007000
007000
007000
007000
007000
ENDCHAR
STARTCHAR 23CA
ENCODING 9162
SWIDTH 1008 0
DWIDTH 21 0
BBX 21 19 0 -1
BITMAP
007000
007000
007000
007000
007000
007000
007000
007000
007000
007000
007000
007000
007000
007000
007000
007000
007000
FFFFF8
FFFFF8
ENDCHAR
STARTCHAR 23CB
ENCODING 9163
SWIDTH 1008 0
DWIDTH 21 0
BBX 7 19 5 -1
BITMAP
FE
FE
0E
0E
0E
0E
0E
0E
0E
0E
0E
0E
0E
0E
0E
0E
0E
0E
0E
ENDCHAR
STARTCHAR 23CC
ENCODING 9164
SWIDTH 1008 0
DWIDTH 21 0
BBX 7 19 5 -1
BITMAP
0E
0E
0E
0E
0E
0E
0E
0E
0E
0E
0E
0E
0E
0E
0E
0E
0E
FE
FE
ENDCHAR
STARTCHAR 23CE
ENCODING 9166
SWIDTH 1008 0
DWIDTH 21 0
BBX 17 18 1 -3
BITMAP
000F80
000880
000880
000880
000880
000880
040880
0C0880
140880
140880
241080
47E100
800100
400600
27F800
140000
0C0000
040000
ENDCHAR
STARTCHAR 2423
ENCODING 9251
SWIDTH 1008 0
DWIDTH 21 0
BBX 13 3 4 0
BITMAP
8008
8008
FFF8
ENDCHAR
STARTCHAR 2460
ENCODING 9312
SWIDTH 1008 0
DWIDTH 21 0
BBX 19 19 1 -2
BITMAP
03F800
0C0600
106100
20E080
41E040
46E040
80E020
80E020
80E020
80E020
80E020
80E020
80E020
40E040
40E040
23F880
100100
0C0600
03F800
ENDCHAR
STARTCHAR 2461
ENCODING 9313
SWIDTH 1008 0
DWIDTH 21 0
BBX 19 19 1 -2
BITMAP
03F800
0C0600
100100
21F080
421840
440C40
860C20
860C20
801820
807020
80F020
80C020
810420
420C40
47F840
27F880
100100
0C0600
03F800
ENDCHAR
STARTCHAR 2462
ENCODING 9314
SWIDTH 1008 0
DWIDTH 21 0
BBX 19 19 1 -2
BITMAP
03F800
0C0600
100100
21F080
421840
460C40
860C20
800C20
80F820
800C20
860E20
860620
860620
440640
420C40
21F880
100100
0C0600
03F800
ENDCHAR
STARTCHAR 2463
ENCODING 9315
SWIDTH 1008 0
DWIDTH 21 0
BBX 19 19 1 -2
BITMAP
03F800
0C0600
107100
207080
40F040
417040
817020
827020
847020
847020
8C7020
887020
9FFE20
407040
407040
23FC80
100100
0C0600
03F800
ENDCHAR
STARTCHAR 2464
ENCODING 9316
SWIDTH 1008 0
DWIDTH 21 0
BBX 19 19 1 -2
BITMAP
03F800
0C0600
100100
27FC80
47F840
460040
860020
87F020
861820
840C20
840C20
800C20
860C20
440840
421840
21E080
100100
0C0600
03F800
ENDCHAR
STARTCHAR 2465
ENCODING 9317
SWIDTH 1008 0
DWIDTH 21 0
BBX 19 19 1 -2
BITMAP
03F800
0C0600
100100
21F880
430C40
460C40
860020
86F020
870C20
860620
860620
860620
860620
420640
430C40
20F880
100100
0C0600
03F800
ENDCHAR
STARTCHAR 2466
ENCODING 9318
SWIDTH 1008 0
DWIDTH 21 0
BBX 19 19 1 -2
BITMAP
03F800
0C0600
100100
27FE80
47FE40
4C0440
880820
800820
801020
801020
801020
807020
806020
40E040
40E040
20E080
100100
0C0600
03F800
ENDCHAR
STARTCHAR 2467
ENCODING 9319
SWIDTH 1008 0
DWIDTH 21 0
BBX 19 19 1 -2
BITMAP
03F800
0C0600
100100
21F080
430840
460C40
860C20
830820
81F020
821820
821C20
860C20
860C20
460C40
431840
21F080
100100
0C0600
03F800
ENDCHAR
STARTCHAR 2468
ENCODING 9320
SWIDTH 1008 0
DWIDTH 21 0
BBX 19 19 1 -2
BITMAP
03F800
0C0600
100100
21F080
461840
4C0840
8C0C20
8C0C20
8C0C20
861C20
87FC20
83EC20
800C20
460C40
460C40
221880
11F100
0C0600
03F800
ENDCHAR
STARTCHAR 2469
ENCODING 9321
SWIDTH 1008 0
DWIDTH 21 0
BBX 19 19 1 -2
BITMAP
03F800
0C0600
100100
221C80
426240
46E340
9EE320
86E320
86E320
86E320
86E320
86E320
86E320
466240
5F1C40
200080
100100
0C0600
03F800
ENDCHAR
STARTCHAR 246A
ENCODING 9322
SWIDTH 1008 0
DWIDTH 21 0
BBX 19 19 1 -2
BITMAP
03F800
0C0600
100100
220480
420440
460C40
9E7C20
860C20
860C20
860C20
860C20
860C20
860C20
460C40
5F7F40
200080
100100
0C0600
03F800
ENDCHAR
STARTCHAR 246B
ENCODING 9323
SWIDTH 1008 0
DWIDTH 21 0
BBX 19 19 1 -2
BITMAP
03F800
0C0600
100100
221C80
426240
46E340
9EE320
860320
860620
860C20
860820
861820
861120
467340
5F7F40
200080
100100
0C0600
03F800
ENDCHAR
STARTCHAR 246C
ENCODING 9324
SWIDTH 1008 0
DWIDTH 21 0
BBX 19 19 1 -2
BITMAP
03F800
0C0600
100100
221C80
426240
46E340
9EE320
860220
860E20
860220
86E320
86E320
86E320
466240
5F1C40
200080
100100
0C0600
03F800
ENDCHAR
STARTCHAR 246D
ENCODING 9325
SWIDTH 1008 0
DWIDTH 21 0
BBX 19 19 1 -2
BITMAP
03F800
0C0600
100100
220C80
420C40
461C40
9E6C20
866C20
86CC20
86CC20
86CF20
86FF20
860C20
460C40
5F7E40
200080
100100
0C0600
03F800
ENDCHAR
STARTCHAR 246E
ENCODING 9326
SWIDTH 1008 0
DWIDTH 21 0
BBX 19 19 1 -2
BITMAP
03F800
0C0600
100100
220080
427F40
467E40
9E7020
867C20
867220
866320
866320
860320
867320
461240
5FCC40
200080
100100
0C0600
03F800
ENDCHAR
STARTCHAR 246F
ENCODING 9327
SWIDTH 1008 0
DWIDTH 21 0
BBX 19 19 1 -2
BITMAP
03F800
0C0600
100100
220C80
421240
467240
9E7020
867C20
867220
867320
867320
867320
867320
461240
5FCC40
200080
100100
0C0600
03F800
ENDCHAR
STARTCHAR 2470
ENCODING 9328
SWIDTH 1008 0
DWIDTH 21 0
BBX 19 19 1 -2
BITMAP
03F800
0C0600
100100
220080
427E40
467E40
9EE420
86C420
860820
860820
860820
861820
861820
461840
5FD840
200080
100100
0C0600
03F800
ENDCHAR
STARTCHAR 2471
ENCODING 9329
SWIDTH 1008 0
DWIDTH 21 0
BBX 19 19 1 -2
BITMAP
03F800
0C0600
100100
227C80
42E640
46E640
9EE620
867420
861820
866C20
866E20
86E620
86E620
46E640
5F7C40
200080
100100
0C0600
03F800
ENDCHAR
STARTCHAR 2472
ENCODING 9330
SWIDTH 1008 0
DWIDTH 21 0
BBX 19 19 1 -2
BITMAP
03F800
0C0600
100100
220080
427C40
46E640
9EE620
86E620
86E620
867E20
867E20
860620
86E620
466440
5F1840
200080
100100
0C0600
03F800
ENDCHAR
STARTCHAR 2473
ENCODING 9331
SWIDTH 1008 0
DWIDTH 21 0
BBX 19 19 1 -2
BITMAP
03F800
0C0600
100100
200080
4E0C40
531240
B37320
B37320
867320
847320
847320
8C7320
897320
5B1240
5F0C40
200080
100100
0C0600
03F800
ENDCHAR
STARTCHAR 24D0
ENCODING 9424
SWIDTH 1008 0
DWIDTH 21 0
BBX 19 19 1 -2
BITMAP
03F800
0C0600
100100
200080
43F840
460C40
860C20
807C20
83CC20
860C20
840C20
8C0C20
8C0C20
461D40
43E640
200080
100100
0C0600
03F800
ENDCHAR
STARTCHAR 24D1
ENCODING 9425
SWIDTH 1008 0
DWIDTH 21 0
BBX 19 19 1 -2
BITMAP
03F800
0C0600
100100
270080
430040
430040
837820
83CC20
830620
830620
830620
830620
830620
430640
43C440
277880
100100
0C0600
03F800
ENDCHAR
STARTCHAR 24D2
ENCODING 9426
SWIDTH 1008 0
DWIDTH 21 0
BBX 19 19 1 -2
BITMAP
03F800
0C0600
100100
200080
41F840
470C40
860E20
8C0420
8C0020
8C0020
8C0020
8C0020
860220
470440
41F840
200080
100100
0C0600
03F800
ENDCHAR
STARTCHAR 24D3
ENCODING 9427
SWIDTH 1008 0
DWIDTH 21 0
BBX 19 19 1 -2
BITMAP
03F800
0C0600
100100
20F880
401840
401840
83D820
867820
8C1820
8C1820
8C1820
8C1820
8C1820
4C1840
447840
23DC80
100100
0C0600
03F800
ENDCHAR
STARTCHAR 24D4
ENCODING 9428
SWIDTH 1008 0
DWIDTH 21 0
BBX 19 19 1 -2
BITMAP
03F800
0C0600
100100
200080
41F840
470C40
860620
8C0620
8FFE20
8C0020
8C0020
8C0020
8C0020
460240
470440
21F880
100100
0C0600
03F800
ENDCHAR
STARTCHAR 24D5
ENCODING 9429
SWIDTH 1008 0
DWIDTH 21 0
BBX 19 19 1 -2
BITMAP
03F800
0C0600
100100
207880
40CC40
41CC40
81C020
81C020
8FF820
81C020
81C020
81C020
81C020
41C040
41C040
27F080
100100
0C0600
03F800
ENDCHAR
STARTCHAR 24D6
ENCODING 9430
SWIDTH 1008 0
DWIDTH 21 0
BBX 19 19 1 -2
BITMAP
03F800
0C0600
100100
21EE80
421640
461840
861820
821020
81E020
820020
83E020
81E020
867820
4C0C40
4C0C40
260880
11F100
0C0600
03F800
ENDCHAR
STARTCHAR 24D7
ENCODING 9431
SWIDTH 1008 0
DWIDTH 21 0
BBX 19 19 1 -2
BITMAP
03F800
0C0600
100100
270080
430040
430040
837820
83CC20
830620
830620
830620
830620
830620
430640
430640
271F80
100100
0C0600
03F800
ENDCHAR
STARTCHAR 24D8
ENCODING 9432
SWIDTH 1008 0
DWIDTH 21 0
BBX 19 19 1 -2
BITMAP
03F800
0C0600
100100
20C080
41E040
40C040
800020
800020
83E020
80E020
80E020
80E020
80E020
40E040
40E040
23F880
100100
0C0600
03F800
ENDCHAR
STARTCHAR 24D9
ENCODING 9433
SWIDTH 1008 0
DWIDTH 21 0
BBX 19 19 1 -2
BITMAP
03F800
0C0600
101100
207880
401040
400040
80F820
801820
801820
801820
801820
801820
801820
461840
461840
23F080
100100
0C0600
03F800
ENDCHAR
STARTCHAR 24DA
ENCODING 9434
SWIDTH 1008 0
DWIDTH 21 0
BBX 19 19 1 -2
BITMAP
03F800
0C0600
100100
2F0080
430040
430040
831E20
831820
837020
83E020
831020
831020
831820
430840
430C40
27DE80
100100
0C0600
03F800
ENDCHAR
STARTCHAR 24DB
ENCODING 9435
SWIDTH 1008 0
DWIDTH 21 0
BBX 19 19 1 -2
BITMAP
03F800
0C0600
100100
23E080
40E040
40E040
80E020
80E020
80E020
80E020
80E020
80E020
80E020
40E040
40E040
23F880
100100
0C0600
03F800
ENDCHAR
STARTCHAR 24DC
ENCODING 9436
SWIDTH 1008 0
DWIDTH 21 0
BBX 19 19 1 -2
BITMAP
03F800
0C0600
100100
200080
400040
7BCE40
9CF320
98E320
98E320
98E320
98E320
98E320
98E320
7DF7C0
400040
200080
100100
0C0600
03F800
ENDCHAR
STARTCHAR 24DD
ENCODING 9437
SWIDTH 1008 0
DWIDTH 21 0
BBX 19 19 1 -2
BITMAP
03F800
0C0600
100100
200080
400040
4F7C40
83C620
830620
830620
830620
830620
830620
830620
4FDF40
400040
200080
100100
0C0600
03F800
ENDCHAR
STARTCHAR 24DE
ENCODING 9438
SWIDTH 1008 0
DWIDTH 21 0
BBX 19 19 1 -2
BITMAP
03F800
0C0600
100100
200080
41F040
471C40
860C20
8C0620
8C0620
8C0620
8C0620
8C0620
860C20
471C40
41F040
200080
100100
0C0600
03F800
ENDCHAR
STARTCHAR 24DF
ENCODING 9439
SWIDTH 1008 0
DWIDTH 21 0
BBX 19 19 1 -2
BITMAP
03F800
0C0600
100100
277880
43CC40
430640
830620
830620
830620
830620
83C420
83C420
837820
430040
430040
230080
13C100
0C0600
03F800
ENDCHAR
STARTCHAR 24E0
ENCODING 9440
SWIDTH 1008 0
DWIDTH 21 0
BBX 19 19 1 -2
BITMAP
03F800
0C0600
100100
23DC80
467840
4C1840
8C1820
8C1820
8C1820
8C1820
8C1820
847820
83D820
401840
401840
201880
107D00
0C0600
03F800
ENDCHAR
STARTCHAR 24E1
ENCODING 9441
SWIDTH 1008 0
DWIDTH 21 0
BBX 19 19 1 -2
BITMAP
03F800
0C0600
100100
200080
400040
47DC40
81E220
81C620
81C620
81C020
81C020
81C020
81C020
41C040
41C040
27F080
100100
0C0600
03F800
ENDCHAR
STARTCHAR 24E2
ENCODING 9442
SWIDTH 1008 0
DWIDTH 21 0
BBX 19 19 1 -2
BITMAP
03F800
0C0600
100100
200080
43F440
461C40
8C0420
8E0020
87E020
81F820
81FC20
801C20
880E20
4C0640
4F0C40
29F880
100100
0C0600
03F800
ENDCHAR
STARTCHAR 24E3
ENCODING 9443
SWIDTH 1008 0
DWIDTH 21 0
BBX 19 19 1 -2
BITMAP
03F800
0C0600
10C100
20C080
41C040
41C040
87F820
81C020
81C020
81C020
81C020
81C020
81C020
41C040
40E440
207880
100100
080600
03F800
ENDCHAR
STARTCHAR 24E4
ENCODING 9444
SWIDTH 1008 0
DWIDTH 21 0
BBX 19 19 1 -2
BITMAP
03F800
0C0600
100100
200080
400040
5E7C40
860C20
860C20
860C20
860C20
860C20
860C20
860C20
431C40
41EF40
200080
100100
0C0600
03F800
ENDCHAR
STARTCHAR 24E5
ENCODING 9445
SWIDTH 1008 0
DWIDTH 21 0
BBX 19 19 1 -2
BITMAP
03F800
0C0600
100100
200080
400040
5F0F40
860420
860420
830420
830820
83C820
81C820
81D020
40F040
40F040
206080
106100
0C0600
03F800
ENDCHAR
STARTCHAR 24E6
ENCODING 9446
SWIDTH 1008 0
DWIDTH 21 0
BBX 19 19 1 -2
BITMAP
03F800
0C0600
100100
200080
400040
7DFBC0
98E120
98E120
8D7220
8D7220
8D7620
8D7420
871C20
471C40
420840
220880
100100
0C0600
03F800
ENDCHAR
STARTCHAR 24E7
ENCODING 9447
SWIDTH 1008 0
DWIDTH 21 0
BBX 19 19 1 -2
BITMAP
03F800
0C0600
100100
200080
5F1F40
460440
830820
81D020
81E020
80E020
817020
817020
821820
440C40
5F1F40
200080
100100
0C0600
03F800
ENDCHAR
STARTCHAR 24E8
ENCODING 9448
SWIDTH 1008 0
DWIDTH 21 0
BBX 19 19 1 -2
BITMAP
03F800
0C0600
100100
200080
4FDF40
430440
830420
81C820
81C820
80D020
80D020
80F020
806020
406040
46C040
24C080
130100
0C0600
03F800
ENDCHAR
STARTCHAR 24E9
ENCODING 9449
SWIDTH 1008 0
DWIDTH 21 0
BBX 19 19 1 -2
BITMAP
03F800
0C0600
100100
200080
47FE40
460C40
841820
807020
806020
80E020
80C220
81C220
830220
460640
4FFE40
200080
100100
0C0600
03F800
ENDCHAR
STARTCHAR 24EB
ENCODING 9451
SWIDTH 1008 0
DWIDTH 21 0
BBX 19 19 1 -2
BITMAP
03F800
0FFE00
1FFF00
3DFB80
7DFBC0
79F3C0
E1C3E0
F9F3E0
F9F3E0
F9F3E0
F9F3E0
F9F3E0
F9F3E0
79F3C0
60C0C0
3FFF80
1FFF00
0FFE00
03F800
ENDCHAR
STARTCHAR 24EC
ENCODING 9452
SWIDTH 1008 0
DWIDTH 21 0
BBX 19 19 1 -2
BITMAP
03F800
0FFE00
1FFF00
3DFF80
7DF1C0
79ECC0
E1CCE0
F9CCE0
F9F9E0
F9FBE0
F9F3E0
F9F3E0
F9E6E0
79CCC0
60C0C0
3FFF80
1FFF00
0FFE00
03F800
ENDCHAR
STARTCHAR 24ED
ENCODING 9453
SWIDTH 1008 0
DWIDTH 21 0
BBX 19 19 1 -2
BITMAP
03F800
0FFE00
1FFF00
3DE380
79D9C0
611CC0
F91CE0
F9FCE0
F9F1E0
F9FCE0
F91CE0
F91CE0
F91CE0
79C9C0
60E3C0
3FFF80
1FFF00
0FFE00
03F800
ENDCHAR
STARTCHAR 24EE
ENCODING 9454
SWIDTH 1008 0
DWIDTH 21 0
BBX 19 19 1 -2
BITMAP
03F800
0FFE00
1FFF00
3DF380
7DF3C0
79E3C0
E1C3E0
F9D3E0
F913E0
F973E0
F973E0
F90060
F9F3E0
79F3C0
60C0C0
3FFF80
1FFF00
0FFE00
03F800
ENDCHAR
STARTCHAR 24EF
ENCODING 9455
SWIDTH 1008 0
DWIDTH 21 0
BBX 19 19 1 -2
BITMAP
03F800
0FFE00
1FFF00
3DFF80
7DC0C0
79C1C0
E1CFE0
F9C1E0
F9CCE0
F9DCE0
F9DCE0
F9FCE0
F9CCE0
79CDC0
60E3C0
3FFF80
1FFF00
0FFE00
03F800
ENDCHAR
STARTCHAR 24F0
ENCODING 9456
SWIDTH 1008 0
DWIDTH 21 0
BBX 19 19 1 -2
BITMAP
03F800
0FFE00
1FFF00
3DFF80
7DE1C0
79CCC0
E1CCE0
F9CFE0
F9C1E0
F9CCE0
F9CCE0
F9CCE0
F9CCE0
79CDC0
60E3C0
3FFF80
1FFF00
0FFE00
03F800
ENDCHAR
STARTCHAR 24F1
ENCODING 9457
SWIDTH 1008 0
DWIDTH 21 0
BBX 19 19 1 -2
BITMAP
03F800
0FFE00
1FFF00
3DFF80
7DC1C0
79C1C0
E11BE0
F97BE0
F9F7E0
F9F7E0
F9E7E0
F9E7E0
F9E7E0
79E7C0
60E7C0
3FFF80
1FFF00
0FFE00
03F800
ENDCHAR
STARTCHAR 24F2
ENCODING 9458
SWIDTH 1008 0
DWIDTH 21 0
BBX 19 19 1 -2
BITMAP
03F800
0FFE00
1FFF00
3FFF80
7DC3C0
7919C0
E119E0
F9CBE0
F9E7E0
F9D3E0
F91BE0
F919E0
F919E0
7919C0
60C3C0
3FFF80
1FFF00
0FFE00
03F800
ENDCHAR
STARTCHAR 24F3
ENCODING 9459
SWIDTH 1008 0
DWIDTH 21 0
BBX 19 19 1 -2
BITMAP
03F800
0FFE00
1FFF00
3FFF80
79E1C0
79CCC0
E1CCE0
F9CCE0
F9CCE0
F9E0E0
F9FCE0
F9FCE0
F9FCE0
79CCC0
79CDC0
206380
1FFF00
0FFE00
03F800
ENDCHAR
STARTCHAR 24F4
ENCODING 9460
SWIDTH 1008 0
DWIDTH 21 0
BBX 19 19 1 -2
BITMAP
03F800
0FFE00
1FFF00
3FFF80
71F1C0
6CEEC0
CCCE60
CCCE60
F9CE60
FBCE60
F3CE60
F3CE60
E6CE60
4CEEC0
40F1C0
3FFF80
1FFF00
0FFE00
03F800
ENDCHAR
STARTCHAR 24F5
ENCODING 9461
SWIDTH 1008 0
DWIDTH 21 0
BBX 21 21 0 -3
BITMAP
03FE00
0C0180
11FC40
260320
483090
507050
91F048
A07028
A07028
A07028
A07028
A07028
A07028
A07028
907048
51FC50
480090
260320
11FC40
0C0180
03FE00
ENDCHAR
STARTCHAR 24F6
ENCODING 9462
SWIDTH 1008 0
DWIDTH 21 0
BBX 21 21 0 -3
BITMAP
03FE00
0C0180
11FC40
260320
48F890
510C50
920648
A30628
A30628
A00C28
A03828
A02028
A0E028
A18228
930248
53FE50
480090
260320
11FC40
0C0180
03FE00
ENDCHAR
STARTCHAR 24F7
ENCODING 9463
SWIDTH 1008 0
DWIDTH 21 0
BBX 21 21 0 -3
BITMAP
03FE00
0C0180
11FC40
260320
48F890
510C50
930648
A30628
A00628
A07C28
A00C28
A00E28
A00628
A30628
930648
518C50
48F890
260320
11FC40
0C0180
03FE00
ENDCHAR
STARTCHAR 24F8
ENCODING 9464
SWIDTH 1008 0
DWIDTH 21 0
BBX 21 21 0 -3
BITMAP
03FE00
0C0180
11FC40
260320
480890
503850
907848
A0B828
A13828
A23828
A43828
A43F28
A7FF28
A03828
903848
51FE50
480090
260320
11FC40
0C0180
03FE00
ENDCHAR
STARTCHAR 24F9
ENCODING 9465
SWIDTH 1008 0
DWIDTH 21 0
BBX 21 21 0 -3
BITMAP
03FE00
0C0180
11FC40
260320
480090
53FC50
930048
A30028
A3F828
A30C28
A20628
A20628
A00628
A30628
920448
510C50
48F090
260320
11FC40
0C0180
03FE00
ENDCHAR
STARTCHAR 24FA
ENCODING 9466
SWIDTH 1008 0
DWIDTH 21 0
BBX 21 21 0 -3
BITMAP
03FE00
0C0180
11FC40
260320
483890
50E050
918048
A30028
A30028
A37C28
A38628
A30628
A30628
A30628
930648
518C50
48F890
260320
11FC40
0C0180
03FE00
ENDCHAR
STARTCHAR 24FB
ENCODING 9467
SWIDTH 1008 0
DWIDTH 21 0
BBX 21 21 0 -3
BITMAP
03FE00
0C0180
11FC40
260320
480090
51FE50
910648
A20628
A00C28
A00828
A03828
A03028
A03028
A07028
907048
507050
480090
260320
11FC40
0C0180
03FE00
ENDCHAR
STARTCHAR 24FC
ENCODING 9468
SWIDTH 1008 0
DWIDTH 21 0
BBX 21 21 0 -3
BITMAP
03FE00
0C0180
11FC40
260320
48F890
518450
930648
A30628
A18428
A0F828
A10C28
A10E28
A30628
A30628
930648
518450
48F890
260320
11FC40
0C0180
03FE00
ENDCHAR
STARTCHAR 24FD
ENCODING 9469
SWIDTH 1008 0
DWIDTH 21 0
BBX 21 21 0 -3
BITMAP
03FE00
0C0180
11FC40
260320
48F890
510C50
930648
A30628
A30628
A30628
A18E28
A19628
A0F628
A00428
900C48
503850
48E090
260320
11FC40
0C0180
03FE00
ENDCHAR
STARTCHAR 24FE
ENCODING 9470
SWIDTH 1008 0
DWIDTH 21 0
BBX 21 21 0 -3
BITMAP
03FE00
0C0180
11FC40
260320
490C90
513A50
937348
AF7328
A37328
A37328
A37328
A37328
A37328
A37328
933648
578C50
480090
260320
11FC40
0C0180
03FE00
ENDCHAR
STARTCHAR 2500
ENCODING 9472
SWIDTH 1008 0
DWIDTH 21 0
BBX 21 1 0 8
BITMAP
FFFFF8
ENDCHAR
STARTCHAR 2501
ENCODING 9473
SWIDTH 1008 0
DWIDTH 21 0
BBX 21 3 0 6
BITMAP
FFFFF8
FFFFF8
FFFFF8
ENDCHAR
STARTCHAR 2502
ENCODING 9474
SWIDTH 1008 0
DWIDTH 21 0
BBX 2 21 9 -3
BITMAP
C0
C0
C0
C0
C0
C0
C0
C0
C0
C0
C0
C0
C0
C0
C0
C0
C0
C0
C0
C0
C0
ENDCHAR
STARTCHAR 2503
ENCODING 9475
SWIDTH 1008 0
DWIDTH 21 0
BBX 3 21 9 -3
BITMAP
E0
E0
E0
E0
E0
E0
E0
E0
E0
E0
E0
E0
E0
E0
E0
E0
E0
E0
E0
E0
E0
ENDCHAR
STARTCHAR 250C
ENCODING 9484
SWIDTH 1008 0
DWIDTH 21 0
BBX 12 12 9 -3
BITMAP
FFF0
C000
C000
C000
C000
C000
C000
C000
C000
C000
C000
C000
ENDCHAR
STARTCHAR 250F
ENCODING 9487
SWIDTH 1008 0
DWIDTH 21 0
BBX 12 12 9 -3
BITMAP
FFF0
FFF0
E000
E000
E000
E000
E000
E000
E000
E000
E000
E000
ENDCHAR
STARTCHAR 2510
ENCODING 9488
SWIDTH 1008 0
DWIDTH 21 0
BBX 11 12 0 -3
BITMAP
FFE0
0060
0060
0060
0060
0060
0060
0060
0060
0060
0060
0060
ENDCHAR
STARTCHAR 2513
ENCODING 9491
SWIDTH 1008 0
DWIDTH 21 0
BBX 12 12 0 -3
BITMAP
FFF0
FFF0
FFF0
0070
0070
0070
0070
0070
0070
0070
0070
0070
ENDCHAR
STARTCHAR 2514
ENCODING 9492
SWIDTH 1008 0
DWIDTH 21 0
BBX 12 10 9 8
BITMAP
C000
C000
C000
C000
C000
C000
C000
C000
C000
FFF0
ENDCHAR
STARTCHAR 2517
ENCODING 9495
SWIDTH 1008 0
DWIDTH 21 0
BBX 12 12 9 6
BITMAP
E000
E000
E000
E000
E000
E000
E000
E000
E000
FFF0
FFF0
FFF0
ENDCHAR
STARTCHAR 2518
ENCODING 9496
SWIDTH 1008 0
DWIDTH 21 0
BBX 11 10 0 8
BITMAP
0060
0060
0060
0060
0060
0060
0060
0060
0060
FFE0
ENDCHAR
STARTCHAR 251B
ENCODING 9499
SWIDTH 1008 0
DWIDTH 21 0
BBX 12 12 0 6
BITMAP
0070
0070
0070
0070
0070
0070
0070
0070
0070
FFF0
FFF0
FFF0
ENDCHAR
STARTCHAR 251C
ENCODING 9500
SWIDTH 1008 0
DWIDTH 21 0
BBX 12 21 9 -3
BITMAP
C000
C000
C000
C000
C000
C000
C000
C000
C000
FFF0
C000
C000
C000
C000
C000
C000
C000
C000
C000
C000
C000
ENDCHAR
STARTCHAR 251D
ENCODING 9501
SWIDTH 1008 0
DWIDTH 21 0
BBX 12 21 9 -3
BITMAP
C000
C000
C000
C000
C000
C000
C000
C000
C000
FFF0
FFF0
C000
C000
C000
C000
C000
C000
C000
C000
C000
C000
ENDCHAR
STARTCHAR 2520
ENCODING 9504
SWIDTH 1008 0
DWIDTH 21 0
BBX 12 21 9 -3
BITMAP
E000
E000
E000
E000
E000
E000
E000
E000
E000
FFF0
E000
E000
E000
E000
E000
E000
E000
E000
E000
E000
E000
ENDCHAR
STARTCHAR 2523
ENCODING 9507
SWIDTH 1008 0
DWIDTH 21 0
BBX 12 21 9 -3
BITMAP
E000
E000
E000
E000
E000
E000
E000
E000
E000
FFF0
FFF0
E000
E000
E000
E000
E000
E000
E000
E000
E000
E000
ENDCHAR
STARTCHAR 2524
ENCODING 9508
SWIDTH 1008 0
DWIDTH 21 0
BBX 11 21 0 -3
BITMAP
0060
0060
0060
0060
0060
0060
0060
0060
0060
FFE0
0060
0060
0060
0060
0060
0060
0060
0060
0060
0060
0060
ENDCHAR
STARTCHAR 2525
ENCODING 9509
SWIDTH 1008 0
DWIDTH 21 0
BBX 11 21 0 -3
BITMAP
0060
0060
0060
0060
0060
0060
0060
0060
0060
FFE0
FFE0
FFE0
0060
0060
0060
0060
0060
0060
0060
0060
0060
ENDCHAR
STARTCHAR 2528
ENCODING 9512
SWIDTH 1008 0
DWIDTH 21 0
BBX 12 21 0 -3
BITMAP
0070
0070
0070
0070
0070
0070
0070
0070
0070
FFF0
0070
0070
0070
0070
0070
0070
0070
0070
0070
0070
0070
ENDCHAR
STARTCHAR 252B
ENCODING 9515
SWIDTH 1008 0
DWIDTH 21 0
BBX 12 21 0 -3
BITMAP
0070
0070
0070
0070
0070
0070
0070
0070
0070
FFF0
FFF0
FFF0
0070
0070
0070
0070
0070
0070
0070
0070
0070
ENDCHAR
STARTCHAR 252C
ENCODING 9516
SWIDTH 1008 0
DWIDTH 21 0
BBX 21 12 0 -3
BITMAP
FFFFF8
006000
006000
006000
006000
006000
006000
006000
006000
006000
006000
006000
ENDCHAR
STARTCHAR 252F
ENCODING 9519
SWIDTH 1008 0
DWIDTH 21 0
BBX 21 12 0 -3
BITMAP
FFFFF8
FFFFF8
FFE000
006000
006000
006000
006000
006000
006000
006000
006000
006000
ENDCHAR
STARTCHAR 2530
ENCODING 9520
SWIDTH 1008 0
DWIDTH 21 0
BBX 21 12 0 -3
BITMAP
FFFFF8
007000
007000
007000
007000
007000
007000
007000
007000
007000
007000
007000
ENDCHAR
STARTCHAR 2533
ENCODING 9523
SWIDTH 1008 0
DWIDTH 21 0
BBX 21 12 0 -3
BITMAP
FFFFF8
FFFFF8
FFF000
007000
007000
007000
007000
007000
007000
007000
007000
007000
ENDCHAR
STARTCHAR 2534
ENCODING 9524
SWIDTH 1008 0
DWIDTH 21 0
BBX 21 10 0 8
BITMAP
006000
006000
006000
006000
006000
006000
006000
006000
006000
FFFFF8
ENDCHAR
STARTCHAR 2537
ENCODING 9527
SWIDTH 1008 0
DWIDTH 21 0
BBX 21 12 0 6
BITMAP
006000
006000
006000
006000
006000
006000
006000
006000
006000
FFFFF8
FFFFF8
FFFFF8
ENDCHAR
STARTCHAR 2538
ENCODING 9528
SWIDTH 1008 0
DWIDTH 21 0
BBX 21 10 0 8
BITMAP
007000
007000
007000
007000
007000
007000
007000
007000
007000
FFFFF8
ENDCHAR
STARTCHAR 253B
ENCODING 9531
SWIDTH 1008 0
DWIDTH 21 0
BBX 21 12 0 6
BITMAP
007000
007000
007000
007000
007000
007000
007000
007000
007000
FFFFF8
FFFFF8
FFFFF8
ENDCHAR
STARTCHAR 253C
ENCODING 9532
SWIDTH 1008 0
DWIDTH 21 0
BBX 21 21 0 -3
BITMAP
006000
006000
006000
006000
006000
006000
006000
006000
006000
FFFFF8
006000
006000
006000
006000
006000
006000
006000
006000
006000
006000
006000
ENDCHAR
STARTCHAR 253F
ENCODING 9535
SWIDTH 1008 0
DWIDTH 21 0
BBX 21 21 0 -3
BITMAP
006000
006000
006000
006000
006000
006000
006000
006000
006000
FFFFF8
FFFFF8
FFE000
006000
006000
006000
006000
006000
006000
006000
006000
006000
ENDCHAR
STARTCHAR 2542
ENCODING 9538
SWIDTH 1008 0
DWIDTH 21 0
BBX 21 21 0 -3
BITMAP
007000
007000
007000
007000
007000
007000
007000
007000
007000
FFFFF8
007000
007000
007000
007000
007000
007000
007000
007000
007000
007000
007000
ENDCHAR
STARTCHAR 254B
ENCODING 9547
SWIDTH 1008 0
DWIDTH 21 0
BBX 21 21 0 -3
BITMAP
007000
007000
007000
007000
007000
007000
007000
007000
007000
FFFFF8
FFFFF8
FFF000
007000
007000
007000
007000
007000
007000
007000
007000
007000
ENDCHAR
STARTCHAR 25A0
ENCODING 9632
SWIDTH 1008 0
DWIDTH 21 0
BBX 19 19 1 -2
BITMAP
FFFFE0
FFFFE0
FFFFE0
FFFFE0
FFFFE0
FFFFE0
FFFFE0
FFFFE0
FFFFE0
FFFFE0
FFFFE0
FFFFE0
FFFFE0
FFFFE0
FFFFE0
FFFFE0
FFFFE0
FFFFE0
FFFFE0
ENDCHAR
STARTCHAR 25A1
ENCODING 9633
SWIDTH 1008 0
DWIDTH 21 0
BBX 19 19 1 -2
BITMAP
FFFFE0
800020
800020
800020
800020
800020
800020
800020
800020
800020
800020
800020
800020
800020
800020
800020
800020
800020
FFFFE0
ENDCHAR
STARTCHAR 25B1
ENCODING 9649
SWIDTH 1008 0
DWIDTH 21 0
BBX 17 9 2 3
BITMAP
1FFF80
100100
100100
200200
200200
600600
400400
400400
FFFC00
ENDCHAR
STARTCHAR 25B2
ENCODING 9650
SWIDTH 1008 0
DWIDTH 21 0
BBX 18 18 1 -1
BITMAP
00C000
00C000
01E000
01E000
03F000
03F000
07F800
07F800
0FFC00
0FFC00
0FFE00
1FFE00
1FFE00
3FFF00
3FFF00
7FFF80
7FFF80
FFFFC0
ENDCHAR
STARTCHAR 25B3
ENCODING 9651
SWIDTH 1008 0
DWIDTH 21 0
BBX 18 18 1 -1
BITMAP
00C000
00C000
016000
016000
021000
021000
040800
040800
080400
080400
100600
100200
100200
200100
200100
400080
400080
FFFFC0
ENDCHAR
STARTCHAR 25B6
ENCODING 9654
SWIDTH 1008 0
DWIDTH 21 0
BBX 18 18 2 -1
BITMAP
800000
E00000
F80000
FE0000
FFC000
FFF000
FFFC00
FFFF00
FFFFC0
FFFF00
FFFC00
FFFC00
FFF000
FFC000
FE0000
F80000
E00000
800000
ENDCHAR
STARTCHAR 25B7
ENCODING 9655
SWIDTH 1008 0
DWIDTH 21 0
BBX 18 18 2 -1
BITMAP
800000
E00000
980000
860000
81C000
803000
800C00
800300
8000C0
800300
800400
800C00
803000
81C000
860000
980000
E00000
800000
ENDCHAR
STARTCHAR 25BC
ENCODING 9660
SWIDTH 1008 0
DWIDTH 21 0
BBX 18 18 1 -2
BITMAP
FFFFC0
7FFF80
7FFF80
3FFF00
3FFF00
1FFE00
1FFE00
0FFC00
0FFC00
0FF800
07F800
07F800
03F000
03F000
01E000
01E000
00C000
00C000
ENDCHAR
STARTCHAR 25BD
ENCODING 9661
SWIDTH 1008 0
DWIDTH 21 0
BBX 18 18 1 -2
BITMAP
FFFFC0
400080
400080
200100
200100
100200
100200
080400
080400
0C0800
040800
040800
021000
021000
016000
016000
00C000
00C000
ENDCHAR
STARTCHAR 25C0
ENCODING 9664
SWIDTH 1008 0
DWIDTH 21 0
BBX 18 18 1 -1
BITMAP
000040
0001C0
0007C0
001FC0
00FFC0
03FFC0
0FFFC0
3FFFC0
FFFFC0
3FFFC0
3FFFC0
0FFFC0
03FFC0
00FFC0
001FC0
0007C0
0001C0
000040
ENDCHAR
STARTCHAR 25C1
ENCODING 9665
SWIDTH 1008 0
DWIDTH 21 0
BBX 18 18 1 -1
BITMAP
000040
0001C0
000640
001840
00E040
030040
0C0040
300040
C00040
300040
3C0040
0C0040
030040
00E040
001840
000640
0001C0
000040
ENDCHAR
STARTCHAR 25C6
ENCODING 9670
SWIDTH 1008 0
DWIDTH 21 0
BBX 20 20 0 -2
BITMAP
006000
00F000
01F800
03FC00
07FE00
0FFF00
1FFF80
3FFFC0
7FFFE0
FFFFF0
7FFFE0
7FFFC0
3FFFC0
1FFF80
0FFF00
07FE00
03FC00
01F800
00F000
006000
ENDCHAR
STARTCHAR 25C7
ENCODING 9671
SWIDTH 1008 0
DWIDTH 21 0
BBX 20 20 0 -2
BITMAP
006000
00B000
010800
020400
040200
080100
100080
200040
400020
800010
400020
600040
200040
100080
080100
040200
020400
010800
00B000
006000
ENDCHAR
STARTCHAR 25C9
ENCODING 9673
SWIDTH 1008 0
DWIDTH 21 0
BBX 19 19 1 -2
BITMAP
03F800
0C0600
100100
21F080
47FC40
4FFE40
8FFE20
9FFF20
9FFF20
9FFF20
9FFF20
9FFF20
8FFE20
4FFE40
47FC40
21F080
100100
0C0600
03F800
ENDCHAR
STARTCHAR 25CB
ENCODING 9675
SWIDTH 1008 0
DWIDTH 21 0
BBX 19 19 1 -2
BITMAP
03F800
0C0600
100100
200080
400040
400040
800020
800020
800020
800020
800020
800020
800020
400040
400040
200080
100100
0C0600
03F800
ENDCHAR
STARTCHAR 25CE
ENCODING 9678
SWIDTH 1008 0
DWIDTH 21 0
BBX 19 19 1 -2
BITMAP
03F800
0C0600
100100
200080
41F040
460C40
840420
880220
880220
880220
880220
880220
840420
460C40
41F040
200080
100100
0C0600
03F800
ENDCHAR
STARTCHAR 25CF
ENCODING 9679
SWIDTH 1008 0
DWIDTH 21 0
BBX 19 19 1 -2
BITMAP
03F800
0FFE00
1FFF00
3FFF80
7FFFC0
7FFFC0
FFFFE0
FFFFE0
FFFFE0
FFFFE0
FFFFE0
FFFFE0
FFFFE0
7FFFC0
7FFFC0
3FFF80
1FFF00
0FFE00
03F800
ENDCHAR
STARTCHAR 25D0
ENCODING 9680
SWIDTH 1008 0
DWIDTH 21 0
BBX 19 19 1 -2
BITMAP
03F800
0FC600
1FC100
3FC080
7FC040
7FC040
FFC020
FFC020
FFC020
FFC020
FFC020
FFC020
FFC020
7FC040
7FC040
3FC080
1FC100
0FC600
03F800
ENDCHAR
STARTCHAR 25D1
ENCODING 9681
SWIDTH 1008 0
DWIDTH 21 0
BBX 19 19 1 -2
BITMAP
03F800
0C7E00
107F00
207F80
407FC0
407FC0
807FE0
807FE0
807FE0
807FE0
807FE0
807FE0
807FE0
407FC0
407FC0
207F80
107F00
0C7E00
03F800
ENDCHAR
STARTCHAR 25D2
ENCODING 9682
SWIDTH 1008 0
DWIDTH 21 0
BBX 19 19 1 -2
BITMAP
03F800
0C0600
100100
200080
400040
400040
800020
800020
800020
FFFFE0
FFFFE0
FFFFE0
FFFFE0
7FFFC0
7FFFC0
3FFF80
1FFF00
0FFE00
03F800
ENDCHAR
STARTCHAR 25D3
ENCODING 9683
SWIDTH 1008 0
DWIDTH 21 0
BBX 19 19 1 -2
BITMAP
03F800
0FFE00
1FFF00
3FFF80
7FFFC0
7FFFC0
FFFFE0
FFFFE0
FFFFE0
800020
800020
800020
800020
400040
400040
200080
100100
0C0600
03F800
ENDCHAR
STARTCHAR 25E6
ENCODING 9702
SWIDTH 1008 0
DWIDTH 21 0
BBX 7 7 7 4
BITMAP
7C
FE
FE
FE
FE
FE
7C
ENDCHAR
STARTCHAR 25EF
ENCODING 9711
SWIDTH 1008 0
DWIDTH 21 0
BBX 21 21 0 -3
BITMAP
03FE00
0C0180
100040
200020
400010
400010
800008
800008
800008
800008
800008
800008
800008
800008
800008
400010
400010
200020
100040
0C0180
03FE00
ENDCHAR
STARTCHAR 2600
ENCODING 9728
SWIDTH 1008 0
DWIDTH 21 0
BBX 19 19 1 -2
BITMAP
006000
006000
206080
100100
08E200
03F800
07FC00
07FC00
EFFE00
0FFEE0
0FFCE0
07FC00
07FC00
03F800
08E200
100100
20C080
00C000
00C000
ENDCHAR
STARTCHAR 2601
ENCODING 9729
SWIDTH 1008 0
DWIDTH 21 0
BBX 18 14 2 0
BITMAP
07C000
0FE000
1FF700
1FFF80
0FFF80
1FFF00
7FFF80
7FFFC0
FFFFC0
FFFFC0
FEFF80
FC3F80
703F00
001E00
ENDCHAR
STARTCHAR 2602
ENCODING 9730
SWIDTH 1008 0
DWIDTH 21 0
BBX 19 20 1 -2
BITMAP
006000
006000
006000
03F800
0FFE00
1FFF00
3FFF80
7FFFC0
FFFFE0
FFFFE0
DC6760
986660
886220
006000
006000
006000
006000
006000
046000
03C000
ENDCHAR
STARTCHAR 2603
ENCODING 9731
SWIDTH 1008 0
DWIDTH 21 0
BBX 19 20 1 -2
BITMAP
040400
106E40
03FF00
8C0E00
100620
137300
537240
100200
49E480
C408C0
280500
30C600
10C200
200100
20C100
200100
20C100
100200
0C0C00
03F000
ENDCHAR
STARTCHAR 2605
ENCODING 9733
SWIDTH 1008 0
DWIDTH 21 0
BBX 18 17 1 -1
BITMAP
00C000
00C000
01E000
01E000
01E000
03F000
FFFFC0
7FFF80
1FFE00
1FFC00
0FFC00
07F800
0FFC00
0F7C00
1E1E00
180600
300300
ENDCHAR
STARTCHAR 2606
ENCODING 9734
SWIDTH 1008 0
DWIDTH 21 0
BBX 18 17 1 -1
BITMAP
00C000
00C000
016000
016000
016000
021000
FE1FC0
600180
100200
180400
080400
040800
08C400
096400
161A00
180600
300300
ENDCHAR
STARTCHAR 260E
ENCODING 9742
SWIDTH 1008 0
DWIDTH 21 0
BBX 19 17 1 -1
BITMAP
1FFF00
7FFFC0
E60DC0
E60CE0
E7FCE0
EFFEE0
0E0E00
1C0700
380380
380380
380380
7803C0
7803C0
7807C0
7E0FC0
7FFFC0
7FFFC0
ENDCHAR
STARTCHAR 2616
ENCODING 9750
SWIDTH 1008 0
DWIDTH 21 0
BBX 19 19 1 -2
BITMAP
00E000
031800
0C0600
100100
100100
100100
100100
200080
200080
200080
200080
200080
400040
400040
400040
400040
800020
800020
FFFFE0
ENDCHAR
STARTCHAR 2617
ENCODING 9751
SWIDTH 1008 0
DWIDTH 21 0
BBX 19 19 1 -2
BITMAP
00E000
03F800
0FFE00
1FFF00
1FFF00
1FFF00
1FFF00
3FFF80
3FFF80
3FFF80
3FFF80
3FFF80
7FFFC0
7FFFC0
7FFFC0
7FFFC0
FFFFE0
FFFFE0
FFFFE0
ENDCHAR
STARTCHAR 261E
ENCODING 9758
SWIDTH 1008 0
DWIDTH 21 0
BBX 21 11 0 2
BITMAP
FC7C00
1783F8
140008
1407F0
140100
140700
140700
140100
140700
170200
FCFC00
ENDCHAR
STARTCHAR 2640
ENCODING 9792
SWIDTH 1008 0
DWIDTH 21 0
BBX 16 20 2 -2
BITMAP
07E0
0810
1008
2004
2004
2004
2004
2004
1008
0810
07E0
0780
0180
0180
FFFF
0180
0180
0180
0180
0180
ENDCHAR
STARTCHAR 2642
ENCODING 9794
SWIDTH 1008 0
DWIDTH 21 0
BBX 19 19 1 -2
BITMAP
007FE0
000060
0000A0
000120
000220
000420
000820
1F1020
20E020
406000
807000
801000
801000
801000
801000
801000
406000
20C000
1F0000
ENDCHAR
STARTCHAR 2660
ENCODING 9824
SWIDTH 1008 0
DWIDTH 21 0
BBX 19 20 1 -3
BITMAP
00E000
01F000
03F800
07FC00
0FFE00
1FFF00
3FFF80
3FFF80
7FFFC0
7FFFC0
7FFFE0
FFFFE0
FFFFE0
FFFFE0
7FFFC0
39F380
01F000
03F800
07FC00
0FFE00
ENDCHAR
STARTCHAR 2661
ENCODING 9825
SWIDTH 1008 0
DWIDTH 21 0
BBX 19 20 1 -3
BITMAP
3C0780
420840
411040
80E020
800020
800020
800020
800020
800020
400040
400040
400040
200080
200080
100100
080200
040400
020800
011000
00E000
ENDCHAR
STARTCHAR 2662
ENCODING 9826
SWIDTH 1008 0
DWIDTH 21 0
BBX 16 21 2 -3
BITMAP
0180
0180
02C0
0420
0420
0810
1008
2004
4002
8001
8001
C003
4002
2004
1008
0810
0420
0420
02C0
0180
0180
ENDCHAR
STARTCHAR 2663
ENCODING 9827
SWIDTH 1008 0
DWIDTH 21 0
BBX 19 20 1 -3
BITMAP
01F000
03F800
07FC00
07FC00
07FC00
03F800
01F000
1DF700
7FFFC0
FFFFE0
FFFFE0
FFFFE0
FFFFE0
FFFFE0
7FFFC0
39F380
01F000
03F800
07FC00
0FFE00
ENDCHAR
STARTCHAR 2664
ENCODING 9828
SWIDTH 1008 0
DWIDTH 21 0
BBX 19 20 1 -3
BITMAP
00E000
011000
020800
040400
080200
100100
200080
200080
400040
400040
800060
800020
800020
811020
471C40
391380
011000
020800
040400
0FFE00
ENDCHAR
STARTCHAR 2665
ENCODING 9829
SWIDTH 1008 0
DWIDTH 21 0
BBX 19 20 1 -3
BITMAP
3C0780
7E0FC0
7F1FC0
FFFFE0
FFFFE0
FFFFE0
FFFFE0
FFFFE0
FFFFE0
7FFFC0
7FFFC0
7FFFC0
3FFF80
3FFF80
1FFF00
0FFE00
07FC00
03F800
01F000
00E000
ENDCHAR
STARTCHAR 2666
ENCODING 9830
SWIDTH 1008 0
DWIDTH 21 0
BBX 16 21 2 -3
BITMAP
0180
0180
03C0
07E0
07E0
0FF0
1FF8
3FFC
7FFE
FFFF
FFFF
FFFE
7FFE
3FFC
1FF8
0FF0
07E0
07E0
03C0
0180
0180
ENDCHAR
STARTCHAR 2667
ENCODING 9831
SWIDTH 1008 0
DWIDTH 21 0
BBX 19 20 1 -3
BITMAP
01F000
020800
040400
040400
040400
020800
011000
1D1700
6208C0
800020
800020
800020
800020
811020
431840
3D1780
011000
020800
040400
0FFE00
ENDCHAR
STARTCHAR 2668
ENCODING 9832
SWIDTH 1008 0
DWIDTH 21 0
BBX 19 18 1 -1
BITMAP
006000
04C200
08C400
09C400
190C00
19CC00
08C400
28C480
4CE640
446240
446260
CCE660
C8C460
C8C460
510840
6000C0
3FFF80
0FFE00
ENDCHAR
STARTCHAR 2669
ENCODING 9833
SWIDTH 1008 0
DWIDTH 21 0
BBX 8 20 5 -2
BITMAP
01
01
01
01
01
01
01
01
01
01
01
01
01
01
01
1F
7F
FE
FE
70
ENDCHAR
STARTCHAR 266A
ENCODING 9834
SWIDTH 1008 0
DWIDTH 21 0
BBX 14 20 3 -2
BITMAP
0300
0300
0380
03C0
03E0
0370
0338
0318
030C
0304
0304
030C
0308
0308
0310
1F20
7F00
FC00
FC00
7000
ENDCHAR
STARTCHAR 266B
ENCODING 9835
SWIDTH 1008 0
DWIDTH 21 0
BBX 17 21 1 -3
BITMAP
000180
000780
007F80
03FF80
03F880
03C080
020080
020080
020080
020080
020080
020080
020080
020080
020080
020780
1E1F80
7E7F00
FC7F00
FC1C00
700000
ENDCHAR
STARTCHAR 266C
ENCODING 9836
SWIDTH 1008 0
DWIDTH 21 0
BBX 17 21 1 -3
BITMAP
000180
000780
007F80
03F880
03C780
027F80
03F880
03C080
020080
020080
020080
020080
020080
020080
020080
020780
1E1F80
7E7F00
FC7F00
FC1C00
700000
ENDCHAR
STARTCHAR 266D
ENCODING 9837
SWIDTH 1008 0
DWIDTH 21 0
BBX 9 20 7 -2
BITMAP
8000
8000
8000
8000
8000
8000
8000
8000
9E00
B300
C180
8180
8180
8180
8300
8600
9C00
B800
C000
8000
ENDCHAR
STARTCHAR 266E
ENCODING 9838
SWIDTH 1008 0
DWIDTH 21 0
BBX 8 21 6 -3
BITMAP
80
80
80
81
8F
FF
F9
81
81
81
81
81
81
9F
FF
E1
81
01
01
01
01
ENDCHAR
STARTCHAR 266F
ENCODING 9839
SWIDTH 1008 0
DWIDTH 21 0
BBX 14 20 3 -2
BITMAP
0020
1020
1020
1020
103C
1FFC
FFE0
F020
1020
1020
1020
103C
103C
1FFC
FFE0
F020
1020
1020
1020
1000
ENDCHAR
STARTCHAR 2713
ENCODING 10003
SWIDTH 1008 0
DWIDTH 21 0
BBX 13 16 5 -1
BITMAP
0008
0018
0010
0030
0060
0040
00C0
8080
8080
8180
C100
4700
6600
2E00
3C00
1C00
ENDCHAR
STARTCHAR 2756
ENCODING 10070
SWIDTH 1008 0
DWIDTH 21 0
BBX 21 21 0 -3
BITMAP
007000
00F800
01FC00
03FE00
07FF00
0BFE80
1DFDC0
3EFBE0
7F77F0
FF8FF8
FF8FF8
FF7FF0
7F77F0
3EFBE0
1DFDC0
0BFE80
07FF00
03FE00
01FC00
00F800
007000
ENDCHAR
STARTCHAR 2776
ENCODING 10102
SWIDTH 1008 0
DWIDTH 21 0
BBX 19 19 1 -2
BITMAP
03F800
0FFE00
1FDF00
3F1F80
7E1FC0
791FC0
FF1FE0
FF1FE0
FF1FE0
FF1FE0
FF1FE0
FF1FE0
FF1FE0
7F1FC0
7F1FC0
380380
1FFF00
0FFE00
03F800
ENDCHAR
STARTCHAR 2777
ENCODING 10103
SWIDTH 1008 0
DWIDTH 21 0
BBX 19 19 1 -2
BITMAP
03F800
0FFE00
1FFF00
3E0F80
7CE7C0
79F3C0
F9F3E0
F9F3E0
FFE7E0
FFCFE0
FF0FE0
FF1FE0
FE7DE0
7DF9C0
7803C0
380780
1FFF00
0FFE00
03F800
ENDCHAR
STARTCHAR 2778
ENCODING 10104
SWIDTH 1008 0
DWIDTH 21 0
BBX 19 19 1 -2
BITMAP
03F800
0FFE00
1FFF00
3E0780
78E3C0
79F3C0
F9F3E0
FFE3E0
FF07E0
FFF3E0
F9F3E0
F9F1E0
F9F1E0
79F1C0
7CE3C0
3E0780
1FFF00
0FFE00
03F800
ENDCHAR
STARTCHAR 2779
ENCODING 10105
SWIDTH 1008 0
DWIDTH 21 0
BBX 19 19 1 -2
BITMAP
03F800
0FFE00
1FCF00
3FCF80
7F0FC0
7E0FC0
FECFE0
FCCFE0
F9CFE0
FBCFE0
F3CFE0
F3CFE0
E001E0
7FCFC0
7FCFC0
3C0380
1FFF00
0FFE00
03F800
ENDCHAR
STARTCHAR 277A
ENCODING 10106
SWIDTH 1008 0
DWIDTH 21 0
BBX 19 19 1 -2
BITMAP
03F800
0FFE00
1FFF00
380380
7807C0
79FFC0
F9FFE0
F80FE0
F9E7E0
FBF3E0
FBF3E0
FFF3E0
FFF3E0
79F3C0
79E7C0
3C0780
1E1F00
0FFE00
03F800
ENDCHAR
STARTCHAR 277B
ENCODING 10107
SWIDTH 1008 0
DWIDTH 21 0
BBX 19 19 1 -2
BITMAP
03F800
0FFE00
1FFF00
3E0780
7CF3C0
79F3C0
F9FFE0
F907E0
F873E0
F9F9E0
F9F9E0
F9F9E0
F9F9E0
79F9C0
7CF3C0
3E0780
1FFF00
0FFE00
03F800
ENDCHAR
STARTCHAR 277C
ENCODING 10108
SWIDTH 1008 0
DWIDTH 21 0
BBX 19 19 1 -2
BITMAP
03F800
0FFE00
1FFF00
380180
7801C0
73F3C0
F7F7E0
FFE7E0
FFCFE0
FFCFE0
FFCFE0
FFCFE0
FF1FE0
7F1FC0
7F1FC0
3F1F80
1F1F00
0FFE00
03F800
ENDCHAR
STARTCHAR 277D
ENCODING 10109
SWIDTH 1008 0
DWIDTH 21 0
BBX 19 19 1 -2
BITMAP
03F800
0FFE00
1FFF00
3E0F80
7CE7C0
79F3C0
F9F3E0
FCE7E0
FE0FE0
FCE7E0
F8F7E0
F9F3E0
F9F3E0
79F3C0
7CE7C0
3E0F80
1FFF00
0FFE00
03F800
ENDCHAR
STARTCHAR 277E
ENCODING 10110
SWIDTH 1008 0
DWIDTH 21 0
BBX 19 19 1 -2
BITMAP
03F800
0FFE00
1FFF00
3C0F80
79E7C0
73F3C0
F3F3E0
F3F3E0
F3F3E0
F8E3E0
FCF3E0
FC13E0
FFF3E0
79F3C0
79F3C0
39E780
1C0F00
0FFE00
03F800
ENDCHAR
STARTCHAR 277F
ENCODING 10111
SWIDTH 1008 0
DWIDTH 21 0
BBX 19 19 1 -2
BITMAP
03F800
0FFE00
1FFF00
33E380
73DDC0
631CC0
C31CE0
F31CE0
F31CE0
F31CE0
F31CE0
F31CE0
F31CE0
73DDC0
40E3C0
3FFF80
1FFF00
0FFE00
03F800
ENDCHAR
STARTCHAR 2934
ENCODING 10548
SWIDTH 1008 0
DWIDTH 21 0
BBX 10 20 5 -3
BITMAP
3F00
2100
2100
2100
2100
2100
2100
2100
2100
2100
2100
2100
2100
2100
2100
E1C0
4080
2100
1600
0C00
ENDCHAR
STARTCHAR 2935
ENCODING 10549
SWIDTH 1008 0
DWIDTH 21 0
BBX 18 16 1 -1
BITMAP
FE0000
01E000
001000
000800
000400
000400
000400
000200
000200
000200
001240
000A80
000700
000700
000200
000200
ENDCHAR
STARTCHAR 29BF
ENCODING 10687
SWIDTH 1008 0
DWIDTH 21 0
BBX 19 19 1 -2
BITMAP
03F800
0C0600
100100
200080
400040
400040
81F020
83F820
83F820
83F820
83F820
83F820
81F020
400040
400040
200080
100100
0C0600
03F800
ENDCHAR
STARTCHAR 29FA
ENCODING 10746
SWIDTH 1008 0
DWIDTH 21 0
BBX 15 16 3 -1
BITMAP
0820
0820
0820
0820
0820
0820
0820
FFFE
F820
0820
0820
0820
0820
0820
0820
0820
ENDCHAR
STARTCHAR 29FB
ENCODING 10747
SWIDTH 1008 0
DWIDTH 21 0
BBX 16 16 2 -1
BITMAP
0990
0990
0990
0990
0990
0990
0990
FFFF
F990
0990
0990
0990
0990
0990
0990
0990
ENDCHAR
STARTCHAR 3000
ENCODING 12288
SWIDTH 1008 0
DWIDTH 21 0
BBX 0 0 0 0
BITMAP
ENDCHAR
STARTCHAR 3001
ENCODING 12289
SWIDTH 1008 0
DWIDTH 21 0
BBX 5 5 1 -2
BITMAP
80
60
30
18
18
ENDCHAR
STARTCHAR 3002
ENCODING 12290
SWIDTH 1008 0
DWIDTH 21 0
BBX 5 5 1 -2
BITMAP
70
88
88
88
70
ENDCHAR
STARTCHAR 3003
ENCODING 12291
SWIDTH 1008 0
DWIDTH 21 0
BBX 10 11 5 2
BITMAP
30C0
30C0
30C0
30C0
30C0
2080
2080
6180
4100
4100
8600
ENDCHAR
STARTCHAR 3005
ENCODING 12293
SWIDTH 1008 0
DWIDTH 21 0
BBX 16 16 2 0
BITMAP
0380
01C0
0380
0202
07FF
0C06
080C
1008
2010
4620
4620
81C0
00E0
0030
0038
0018
ENDCHAR
STARTCHAR 3006
ENCODING 12294
SWIDTH 1008 0
DWIDTH 21 0
BBX 20 20 1 -2
BITMAP
000020
000030
000070
0000C0
000180
03C200
04E400
087800
087800
10EC00
11C600
110600
130600
260000
2C0000
380000
780000
700000
E00000
C00000
ENDCHAR
STARTCHAR 3007
ENCODING 12295
SWIDTH 1008 0
DWIDTH 21 0
BBX 19 16 1 -1
BITMAP
03F800
0E0E00
380380
6000C0
400040
C00060
800020
800020
800020
800020
C00060
400040
6000C0
380380
0E0E00
03F800
ENDCHAR
STARTCHAR 3008
ENCODING 12296
SWIDTH 1008 0
DWIDTH 21 0
BBX 8 21 9 -3
BITMAP
01
03
02
06
0C
08
18
70
60
E0
E0
E0
60
70
18
08
0C
06
02
03
01
ENDCHAR
STARTCHAR 3009
ENCODING 12297
SWIDTH 1008 0
DWIDTH 21 0
BBX 8 21 4 -3
BITMAP
80
C0
40
60
30
10
18
0E
06
07
07
06
06
0E
18
10
30
60
40
C0
80
ENDCHAR
STARTCHAR 300A
ENCODING 12298
SWIDTH 1008 0
DWIDTH 21 0
BBX 12 21 7 -3
BITMAP
0110
0330
0220
0660
1CC0
1880
3980
7300
4200
C600
C600
C600
4200
7300
3980
1880
1CC0
0660
0220
0330
0110
ENDCHAR
STARTCHAR 300B
ENCODING 12299
SWIDTH 1008 0
DWIDTH 21 0
BBX 12 21 2 -3
BITMAP
8800
CC00
4400
6600
3380
1180
19C0
0CE0
0420
0630
0630
0420
0420
0CE0
19C0
1180
3380
6600
4400
CC00
8800
ENDCHAR
STARTCHAR 300C
ENCODING 12300
SWIDTH 1008 0
DWIDTH 21 0
BBX 9 19 9 -1
BITMAP
FF80
E000
E000
E000
E000
E000
E000
E000
E000
E000
E000
E000
E000
E000
E000
E000
E000
E000
E000
ENDCHAR
STARTCHAR 300D
ENCODING 12301
SWIDTH 1008 0
DWIDTH 21 0
BBX 8 19 4 -3
BITMAP
07
07
07
07
07
07
07
07
07
07
07
07
07
07
07
07
07
07
FF
ENDCHAR
STARTCHAR 300E
ENCODING 12302
SWIDTH 1008 0
DWIDTH 21 0
BBX 9 19 9 -1
BITMAP
FF80
C080
DF80
D000
D000
D000
D000
D000
D000
D000
D000
D000
D000
D000
D000
D000
D000
D000
F000
ENDCHAR
STARTCHAR 300F
ENCODING 12303
SWIDTH 1008 0
DWIDTH 21 0
BBX 9 19 3 -3
BITMAP
0780
0580
0580
0580
0580
0580
0580
0580
0580
0580
0580
0580
0580
0580
0580
0580
FD80
8180
FF80
ENDCHAR
STARTCHAR 3010
ENCODING 12304
SWIDTH 1008 0
DWIDTH 21 0
BBX 7 21 10 -3
BITMAP
FE
FC
F8
F0
F0
E0
E0
E0
E0
E0
E0
E0
E0
E0
E0
E0
F0
F0
F8
FC
FE
ENDCHAR
STARTCHAR 3011
ENCODING 12305
SWIDTH 1008 0
DWIDTH 21 0
BBX 7 21 4 -3
BITMAP
FE
7E
3E
1E
1E
0E
0E
0E
0E
0E
0E
0E
0E
0E
0E
0E
1E
1E
3E
7E
FE
ENDCHAR
STARTCHAR 3012
ENCODING 12306
SWIDTH 1008 0
DWIDTH 21 0
BBX 19 18 1 -2
BITMAP
FFFFE0
FFFFE0
000000
000000
000000
FFFFE0
FFFFE0
00E000
00E000
00E000
00E000
00E000
00E000
00E000
00E000
00E000
00E000
00E000
ENDCHAR
STARTCHAR 3013
ENCODING 12307
SWIDTH 1008 0
DWIDTH 21 0
BBX 17 13 2 1
BITMAP
FFFF80
FFFF80
FFFF80
FFFF80
000000
000000
000000
000000
000000
FFFF80
FFFF80
FFFF80
FFFF80
ENDCHAR
STARTCHAR 3014
ENCODING 12308
SWIDTH 1008 0
DWIDTH 21 0
BBX 7 21 10 -3
BITMAP
06
18
F0
E0
E0
E0
E0
E0
E0
E0
E0
E0
E0
E0
E0
E0
E0
E0
F0
18
06
ENDCHAR
STARTCHAR 3015
ENCODING 12309
SWIDTH 1008 0
DWIDTH 21 0
BBX 7 21 4 -3
BITMAP
C0
30
1E
0E
0E
0E
0E
0E
0E
0E
0E
0E
0E
0E
0E
0E
0E
0E
1E
30
C0
ENDCHAR
STARTCHAR 3016
ENCODING 12310
SWIDTH 1008 0
DWIDTH 21 0
BBX 9 21 9 -3
BITMAP
FF80
C100
C200
C200
C400
C400
C800
C800
C800
C800
C800
C800
C800
C800
C800
C400
C400
C200
C200
C100
FF80
ENDCHAR
STARTCHAR 3017
ENCODING 12311
SWIDTH 1008 0
DWIDTH 21 0
BBX 9 21 3 -3
BITMAP
FF80
4180
2180
2180
1180
1180
0980
0980
0980
0980
0980
0980
0980
0980
0980
1180
1180
2180
2180
4180
FF80
ENDCHAR
STARTCHAR 3018
ENCODING 12312
SWIDTH 1008 0
DWIDTH 21 0
BBX 10 21 9 -3
BITMAP
01C0
06C0
1B00
E400
C800
D000
D000
D000
D000
D000
D000
D000
D000
D000
D000
D000
C800
E400
1B00
06C0
01C0
ENDCHAR
STARTCHAR 3019
ENCODING 12313
SWIDTH 1008 0
DWIDTH 21 0
BBX 10 21 2 -3
BITMAP
E000
D800
3600
09C0
04C0
02C0
02C0
02C0
02C0
02C0
02C0
02C0
02C0
02C0
02C0
02C0
04C0
09C0
3600
D800
E000
ENDCHAR
STARTCHAR 301C
ENCODING 12316
SWIDTH 1008 0
DWIDTH 21 0
BBX 20 6 1 4
BITMAP
0F0000
33E010
40F020
C0FC40
807CC0
000F00
ENDCHAR
STARTCHAR 301D
ENCODING 12317
SWIDTH 1008 0
DWIDTH 21 0
BBX 7 7 13 10
BITMAP
D8
48
6C
24
24
12
12
ENDCHAR
STARTCHAR 301F
ENCODING 12319
SWIDTH 1008 0
DWIDTH 21 0
BBX 7 7 1 -2
BITMAP
90
90
48
48
6C
24
36
ENDCHAR
STARTCHAR 3020
ENCODING 12320
SWIDTH 1008 0
DWIDTH 21 0
BBX 21 18 0 -2
BITMAP
1FFFC0
1FFFC0
000000
1FFFC0
1FFFC0
607030
897488
867308
6974B0
6974A0
2974A0
267320
207020
240120
120240
11FC40
0C0180
03FE00
ENDCHAR
STARTCHAR 3033
ENCODING 12339
SWIDTH 1008 0
DWIDTH 21 0
BBX 12 17 4 -3
BITMAP
00C0
0060
0070
0060
00C0
00C0
0380
0300
0700
0600
0800
1000
2000
4000
4000
8000
8000
ENDCHAR
STARTCHAR 3034
ENCODING 12340
SWIDTH 1008 0
DWIDTH 21 0
BBX 15 17 4 -3
BITMAP
00C0
0060
0070
0060
00C0
00C0
0380
0308
0708
0606
0822
1018
2008
4000
4000
8000
8000
ENDCHAR
STARTCHAR 3035
ENCODING 12341
SWIDTH 1008 0
DWIDTH 21 0
BBX 12 17 4 1
BITMAP
8000
8000
4000
4000
2000
1000
0E00
0700
0380
03C0
00C0
00E0
0060
0060
0030
0030
0020
ENDCHAR
STARTCHAR 303B
ENCODING 12347
SWIDTH 1008 0
DWIDTH 21 0
BBX 12 17 5 -2
BITMAP
4000
2000
1C00
0700
00F0
01C0
0E00
3000
4000
4000
8000
8000
C000
7000
1F00
07F0
0070
ENDCHAR
STARTCHAR 303C
ENCODING 12348
SWIDTH 1008 0
DWIDTH 21 0
BBX 19 19 1 -2
BITMAP
FFFFE0
800060
8000A0
800120
800220
800420
800820
801020
806020
80C020
810020
810020
820020
840020
880020
900020
A00020
C00020
FFFFE0
ENDCHAR
STARTCHAR 303D
ENCODING 12349
SWIDTH 1008 0
DWIDTH 21 0
BBX 17 17 3 -1
BITMAP
102000
285000
245000
459000
830800
000800
000800
000C00
000400
000400
000400
000600
000200
000300
000300
000180
000180
ENDCHAR
STARTCHAR 3041
ENCODING 12353
SWIDTH 1008 0
DWIDTH 21 0
BBX 14 16 3 -2
BITMAP
0C00
0400
05F0
FFC0
6800
0840
0FE0
0998
1998
2B8C
4B0C
8C0C
880C
D418
6030
01C0
ENDCHAR
STARTCHAR 3042
ENCODING 12354
SWIDTH 1008 0
DWIDTH 21 0
BBX 18 20 2 -2
BITMAP
060000
038000
038000
021C00
42FE00
7F8000
341000
041800
05FC00
0E3300
14E180
24C180
24C080
4580C0
4200C0
8600C0
8D8180
D80100
700600
003800
ENDCHAR
STARTCHAR 3043
ENCODING 12355
SWIDTH 1008 0
DWIDTH 21 0
BBX 15 13 3 -1
BITMAP
C000
6020
6010
4008
400C
400C
4004
4006
631E
6404
3800
3800
1000
ENDCHAR
STARTCHAR 3044
ENCODING 12356
SWIDTH 1008 0
DWIDTH 21 0
BBX 19 15 1 0
BITMAP
800000
400400
600200
600100
400180
4000C0
4000C0
400060
410060
4101E0
620060
240040
3C0000
380000
180000
ENDCHAR
STARTCHAR 3045
ENCODING 12357
SWIDTH 1008 0
DWIDTH 21 0
BBX 12 16 3 -2
BITMAP
1C00
0380
07C0
0000
0780
D860
6030
6030
0030
0030
0020
0060
0040
0180
0300
1C00
ENDCHAR
STARTCHAR 3046
ENCODING 12358
SWIDTH 1008 0
DWIDTH 21 0
BBX 14 21 4 -3
BITMAP
0E00
03C0
00F0
0730
0000
0000
03E0
8E10
F008
600C
000C
000C
000C
000C
0008
0018
0010
0020
0040
0380
0E00
ENDCHAR
STARTCHAR 3047
ENCODING 12359
SWIDTH 1008 0
DWIDTH 21 0
BBX 15 16 3 -2
BITMAP
0F00
03C0
03C0
0420
41F0
7F30
3060
3080
0180
0300
0F00
1980
3180
6180
C1FE
C07C
ENDCHAR
STARTCHAR 3048
ENCODING 12360
SWIDTH 1008 0
DWIDTH 21 0
BBX 18 20 2 -2
BITMAP
040000
03C000
00F800
003800
01C000
000C00
20FE00
3F8C00
181800
002000
01C000
020000
020000
078000
0CC000
18C000
30C000
60E000
E03FC0
C01F80
ENDCHAR
STARTCHAR 3049
ENCODING 12361
SWIDTH 1008 0
DWIDTH 21 0
BBX 16 16 2 -2
BITMAP
1800
0C18
0C06
09C3
CF84
7C00
0800
08F0
08F0
0B8C
0C06
1806
A806
C9CC
3838
1000
ENDCHAR
STARTCHAR 304A
ENCODING 12362
SWIDTH 1008 0
DWIDTH 21 0
BBX 19 19 1 -2
BITMAP
0C0000
060000
060300
0470C0
05F060
67C0E0
3C0100
040000
040000
047E00
044180
05C180
0600C0
0C00C0
9400C0
E400C0
54E380
0C1E00
080000
ENDCHAR
STARTCHAR 304B
ENCODING 12363
SWIDTH 1008 0
DWIDTH 21 0
BBX 19 19 1 -2
BITMAP
060000
030000
030000
020400
020300
87E080
7E70C0
641040
081060
081060
081060
0811E0
101040
101000
206000
646000
C3E000
C1C000
010000
ENDCHAR
STARTCHAR 304C
ENCODING 12364
SWIDTH 1008 0
DWIDTH 21 0
BBX 20 20 1 -2
BITMAP
000040
060230
030190
030080
020400
020300
87E080
7E70C0
641040
081060
081060
081060
0811E0
101040
101000
206000
646000
C3E000
C1C000
010000
ENDCHAR
STARTCHAR 304D
ENCODING 12365
SWIDTH 1008 0
DWIDTH 21 0
BBX 16 20 3 -2
BITMAP
0700
0380
0380
019C
FFF8
7C40
0067
003E
FFF0
7C10
0018
0018
0008
0FEC
301E
4006
4000
3000
1FF8
07F0
ENDCHAR
STARTCHAR 304E
ENCODING 12366
SWIDTH 1008 0
DWIDTH 21 0
BBX 18 20 3 -2
BITMAP
070100
0380C0
038440
019B00
FFF100
7C4000
006700
003E00
FFF000
7C1000
001800
001800
000800
0FEC00
301E00
400600
400000
300000
1FF800
07F000
ENDCHAR
STARTCHAR 304F
ENCODING 12367
SWIDTH 1008 0
DWIDTH 21 0
BBX 11 20 4 -2
BITMAP
0040
0060
00E0
00C0
0380
0600
1800
6000
8000
8000
6000
7000
3000
0E00
0700
0380
00C0
00C0
0060
0060
ENDCHAR
STARTCHAR 3050
ENCODING 12368
SWIDTH 1008 0
DWIDTH 21 0
BBX 18 20 3 -2
BITMAP
004000
006100
01E8C0
01C640
038200
040000
180000
600000
800000
800000
600000
700000
300000
0C0000
070000
038000
01C000
01C000
006000
006000
ENDCHAR
STARTCHAR 3051
ENCODING 12369
SWIDTH 1008 0
DWIDTH 21 0
BBX 18 21 2 -3
BITMAP
001000
400C00
600600
600600
400400
400780
C4FDC0
83C400
800400
800600
900600
900600
900600
A00400
E00C00
E00C00
600800
401800
401000
002000
00C000
ENDCHAR
STARTCHAR 3052
ENCODING 12370
SWIDTH 1008 0
DWIDTH 21 0
BBX 20 21 1 -3
BITMAP
001040
400C30
600510
6004C0
400440
400780
C4FDC0
83C400
800400
800600
900600
900600
900600
A00400
E00C00
E00C00
600800
401800
401000
006000
00C000
ENDCHAR
STARTCHAR 3053
ENCODING 12371
SWIDTH 1008 0
DWIDTH 21 0
BBX 17 17 2 -2
BITMAP
180000
07FC00
001E00
00F000
018000
000000
000000
000000
000000
000000
400000
800000
800000
C00000
600000
7FFF80
1FFF00
ENDCHAR
STARTCHAR 3054
ENCODING 12372
SWIDTH 1008 0
DWIDTH 21 0
BBX 19 20 2 -2
BITMAP
000080
000260
0001A0
180080
07FC00
001E00
00F000
018000
000000
000000
000000
000000
000000
400000
800000
800000
C00000
600000
7FFF80
1FFF00
ENDCHAR
STARTCHAR 3055
ENCODING 12373
SWIDTH 1008 0
DWIDTH 21 0
BBX 15 20 3 -2
BITMAP
0180
0380
01C8
01C6
004E
FFF8
7C60
0020
0010
0010
07E8
082C
181C
200E
4006
4000
2000
3800
0FF0
03F8
ENDCHAR
STARTCHAR 3056
ENCODING 12374
SWIDTH 1008 0
DWIDTH 21 0
BBX 18 20 3 -2
BITMAP
018100
0384C0
01C340
01C100
004C00
FFF800
7C6000
002000
001000
001000
07E800
082C00
181C00
200E00
400600
400000
200000
380000
0FF000
03F800
ENDCHAR
STARTCHAR 3057
ENCODING 12375
SWIDTH 1008 0
DWIDTH 21 0
BBX 15 19 3 -2
BITMAP
C000
6000
6000
6000
6000
6000
6000
6000
4000
4000
4000
4000
4000
4002
4004
4008
2030
31E0
1F80
ENDCHAR
STARTCHAR 3058
ENCODING 12376
SWIDTH 1008 0
DWIDTH 21 0
BBX 15 19 3 -2
BITMAP
C008
6006
6022
6018
6008
6000
6000
6000
4000
4000
4000
4000
4000
4002
4004
4008
2030
31E0
1F80
ENDCHAR
STARTCHAR 3059
ENCODING 12377
SWIDTH 1008 0
DWIDTH 21 0
BBX 19 21 1 -3
BITMAP
00E000
007800
001800
001800
0011C0
80FFE0
FF1000
701000
01F000
021000
021800
021800
021800
037800
01D800
001000
007000
006000
00C000
010000
020000
ENDCHAR
STARTCHAR 305A
ENCODING 12378
SWIDTH 1008 0
DWIDTH 21 0
BBX 20 21 1 -3
BITMAP
00E040
007A30
001990
001880
0010C0
80FFE0
FF1000
701000
01F000
021000
021800
021800
021800
037800
01D800
001000
007000
006000
00C000
010000
020000
ENDCHAR
STARTCHAR 305B
ENCODING 12379
SWIDTH 1008 0
DWIDTH 21 0
BBX 20 19 1 -2
BITMAP
000C00
000600
000600
0C0400
060400
0604E0
041FF0
87E400
FE0400
740400
746400
046400
041C00
041800
040000
060000
030000
03FF80
00FF00
ENDCHAR
STARTCHAR 305C
ENCODING 12380
SWIDTH 1008 0
DWIDTH 21 0
BBX 21 20 0 -2
BITMAP
000020
000C98
000668
000620
0C0400
060400
0604E0
043FF0
87E400
FE0400
740400
746400
046400
043C00
043800
040000
060000
030000
03FF80
00FF00
ENDCHAR
STARTCHAR 305D
ENCODING 12381
SWIDTH 1008 0
DWIDTH 21 0
BBX 19 19 1 -2
BITMAP
000C00
08F600
0FCC00
061800
006000
00C000
0107C0
02FFE0
8F7000
F8C000
E1C000
610000
010000
020000
020000
010000
01C000
00FC00
001E00
ENDCHAR
STARTCHAR 305E
ENCODING 12382
SWIDTH 1008 0
DWIDTH 21 0
BBX 20 20 1 -2
BITMAP
000040
000C30
08F610
0FCC80
061860
006020
00C000
0107C0
02FFE0
8F7000
F8C000
E1C000
610000
010000
020000
020000
010000
01C000
00FC00
001E00
ENDCHAR
STARTCHAR 305F
ENCODING 12383
SWIDTH 1008 0
DWIDTH 21 0
BBX 18 19 1 -2
BITMAP
0C0000
060000
060000
06E000
87C000
FC1F00
6C01C0
0803C0
080400
180000
100000
100000
100000
300000
210000
610000
61C000
C0FFC0
C01FC0
ENDCHAR
STARTCHAR 3060
ENCODING 12384
SWIDTH 1008 0
DWIDTH 21 0
BBX 19 20 1 -2
BITMAP
000080
0C0060
060220
060180
06E080
87C000
FC1F00
6C01C0
0803C0
080400
180000
100000
100000
100000
300000
210000
610000
61C000
C0FFC0
C01FC0
ENDCHAR
STARTCHAR 3061
ENCODING 12385
SWIDTH 1008 0
DWIDTH 21 0
BBX 17 20 2 -2
BITMAP
0C0000
060000
060000
060000
043800
CDF000
7F8000
080000
080000
180000
10FC00
108300
138300
3C0180
380180
300180
000300
000600
001C00
01E000
ENDCHAR
STARTCHAR 3062
ENCODING 12386
SWIDTH 1008 0
DWIDTH 21 0
BBX 19 20 2 -2
BITMAP
0C0080
060060
060220
060180
043880
CDF000
7F8000
080000
080000
180000
10FC00
108300
138300
3C0180
380180
300180
000300
000600
001C00
01E000
ENDCHAR
STARTCHAR 3063
ENCODING 12387
SWIDTH 1008 0
DWIDTH 21 0
BBX 15 11 3 -2
BITMAP
01F0
8F0C
880E
F806
6006
0006
0006
000C
0018
0060
0780
ENDCHAR
STARTCHAR 3064
ENCODING 12388
SWIDTH 1008 0
DWIDTH 21 0
BBX 19 13 1 1
BITMAP
001E00
01E180
8E00C0
F80060
600060
000060
000060
000040
0000C0
000080
000300
000E00
01F000
ENDCHAR
STARTCHAR 3065
ENCODING 12389
SWIDTH 1008 0
DWIDTH 21 0
BBX 20 18 1 0
BITMAP
000040
000230
000190
000080
000000
001E00
01E180
8E00C0
F80060
600060
000060
000060
000060
0000C0
000080
000300
000E00
01F000
ENDCHAR
STARTCHAR 3066
ENCODING 12390
SWIDTH 1008 0
DWIDTH 21 0
BBX 19 17 1 -1
BITMAP
0003C0
001FE0
83EC00
FC1000
706000
00C000
00C000
010000
010000
010000
010000
010000
00C000
00C000
007000
001E00
000700
ENDCHAR
STARTCHAR 3067
ENCODING 12391
SWIDTH 1008 0
DWIDTH 21 0
BBX 19 17 1 -1
BITMAP
0003C0
001FE0
83EC00
FC1080
706060
00C220
00C180
010080
010000
010000
010000
010000
00C000
00C000
007000
001E00
000700
ENDCHAR
STARTCHAR 3068
ENCODING 12392
SWIDTH 1008 0
DWIDTH 21 0
BBX 13 19 4 -2
BITMAP
3000
1800
1800
1800
1800
1010
1038
1070
13C0
0F00
0800
1800
2000
4000
8000
8000
C000
7FF8
1FF0
ENDCHAR
STARTCHAR 3069
ENCODING 12393
SWIDTH 1008 0
DWIDTH 21 0
BBX 16 19 4 -2
BITMAP
3004
1823
1819
1808
1800
1010
1038
1070
13C0
0F00
0800
1800
2000
4000
8000
8000
C000
7FF8
1FF0
ENDCHAR
STARTCHAR 306A
ENCODING 12394
SWIDTH 1008 0
DWIDTH 21 0
BBX 18 19 2 -2
BITMAP
060000
038000
038000
02E000
7F8600
340180
0403C0
0804C0
180800
100800
100800
300800
600800
E00800
C00800
03FE00
040B80
061980
01F000
ENDCHAR
STARTCHAR 306B
ENCODING 12395
SWIDTH 1008 0
DWIDTH 21 0
BBX 17 18 2 -2
BITMAP
800000
400000
603E00
61C380
400700
400800
800000
800000
800000
900000
900000
D00000
E20000
E20000
E18000
C1FF80
403F80
400000
ENDCHAR
STARTCHAR 306C
ENCODING 12396
SWIDTH 1008 0
DWIDTH 21 0
BBX 20 18 1 -1
BITMAP
007000
001800
001800
201000
30FE00
136380
1CE0C0
08C040
19C060
290060
4F0060
4E0060
460060
840040
8E1F80
DA71E0
706370
001C20
ENDCHAR
STARTCHAR 306D
ENCODING 12397
SWIDTH 1008 0
DWIDTH 21 0
BBX 20 21 1 -3
BITMAP
0C0000
060000
060000
040000
040000
070F00
DE71C0
76C0C0
050060
0E0060
0C0060
0C0060
1C0060
340060
340040
640FC0
E410E0
D418B0
0C0F10
0C0000
080000
ENDCHAR
STARTCHAR 306E
ENCODING 12398
SWIDTH 1008 0
DWIDTH 21 0
BBX 19 16 1 -1
BITMAP
01FC00
06C300
086180
10E0C0
20C040
41C060
410060
830060
820060
820060
860060
4400C0
780080
300180
000600
007800
ENDCHAR
STARTCHAR 306F
ENCODING 12399
SWIDTH 1008 0
DWIDTH 21 0
BBX 18 19 2 -2
BITMAP
800C00
400600
600600
600400
4205C0
43FF00
C1C400
800400
800400
800400
900400
900400
900400
A00400
A1FE00
E20780
E38DC0
41F880
400000
ENDCHAR
STARTCHAR 3070
ENCODING 12400
SWIDTH 1008 0
DWIDTH 21 0
BBX 20 20 1 -2
BITMAP
000040
800D30
4006D0
600640
600400
4205C0
43FF00
C1C400
800400
800400
800400
900400
900400
900400
A00400
E1FE00
E20780
E30DC0
41F880
400000
ENDCHAR
STARTCHAR 3071
ENCODING 12401
SWIDTH 1008 0
DWIDTH 21 0
BBX 20 20 1 -2
BITMAP
000060
800C90
400690
600660
600400
4205C0
43FF00
C1C400
800400
800400
800400
900400
900400
900400
A00400
E1FE00
E20780
E30DC0
41F880
400000
ENDCHAR
STARTCHAR 3072
ENCODING 12402
SWIDTH 1008 0
DWIDTH 21 0
BBX 19 18 1 -2
BITMAP
030400
0F0400
FA0600
640200
0C0300
080380
1002C0
1002E0
200260
200660
200400
200400
200400
200800
301800
187000
1FE000
070000
ENDCHAR
STARTCHAR 3073
ENCODING 12403
SWIDTH 1008 0
DWIDTH 21 0
BBX 20 20 1 -2
BITMAP
000040
000030
030410
0F0480
FA0660
640220
0C0300
080380
1002C0
1002E0
200260
200660
200400
200400
200400
200800
301800
187000
1FE000
070000
ENDCHAR
STARTCHAR 3074
ENCODING 12404
SWIDTH 1008 0
DWIDTH 21 0
BBX 20 19 1 -2
BITMAP
000060
030490
0F0490
FA0660
640200
0C0300
080380
1002C0
1002E0
200260
200660
200400
200400
200400
200800
301800
187000
1FE000
070000
ENDCHAR
STARTCHAR 3075
ENCODING 12405
SWIDTH 1008 0
DWIDTH 21 0
BBX 19 18 1 -1
BITMAP
010000
00C000
006000
007000
00F000
01C000
020000
020000
010000
00C000
00FC00
00FC00
03E380
8C70C0
B07060
F073E0
63F060
60E000
ENDCHAR
STARTCHAR 3076
ENCODING 12406
SWIDTH 1008 0
DWIDTH 21 0
BBX 19 18 1 -1
BITMAP
010080
00C060
006220
007180
00F080
01C000
020000
020000
010000
00C000
00FC00
00FC00
03E380
8C70C0
B07060
F073E0
63F060
60E000
ENDCHAR
STARTCHAR 3077
ENCODING 12407
SWIDTH 1008 0
DWIDTH 21 0
BBX 19 18 1 -1
BITMAP
010000
00C180
006240
007240
00F180
01C000
020000
020000
010000
00C000
00FC00
00FC00
03E380
8C70C0
B07060
F073E0
63F060
60E000
ENDCHAR
STARTCHAR 3078
ENCODING 12408
SWIDTH 1008 0
DWIDTH 21 0
BBX 19 12 1 1
BITMAP
070000
08C000
186000
107000
301000
E01800
C01C00
400C00
000600
000300
0001C0
0000E0
ENDCHAR
STARTCHAR 3079
ENCODING 12409
SWIDTH 1008 0
DWIDTH 21 0
BBX 19 16 1 1
BITMAP
000080
000060
000220
000180
070080
08C000
186000
107000
301000
E01800
C01C00
400C00
000600
000300
0001C0
0000E0
ENDCHAR
STARTCHAR 307A
ENCODING 12410
SWIDTH 1008 0
DWIDTH 21 0
BBX 19 15 1 1
BITMAP
000300
000480
000480
070300
08C000
186000
107000
301000
E01800
C01C00
400C00
000600
000300
0001C0
0000E0
ENDCHAR
STARTCHAR 307B
ENCODING 12411
SWIDTH 1008 0
DWIDTH 21 0
BBX 18 19 2 -2
BITMAP
C00000
61CF80
60F900
400C00
400C00
40C400
C38580
81FF00
800400
800400
900400
900400
900400
A00400
E1FE00
E20780
E38CC0
41F840
400000
ENDCHAR
STARTCHAR 307C
ENCODING 12412
SWIDTH 1008 0
DWIDTH 21 0
BBX 20 19 1 -2
BITMAP
C00000
61CF40
60F830
400C90
400C60
40C420
C30580
81FF00
800400
800400
900400
900400
900400
A00400
E1FE00
E20780
E30CC0
41F840
400000
ENDCHAR
STARTCHAR 307D
ENCODING 12413
SWIDTH 1008 0
DWIDTH 21 0
BBX 20 19 1 -2
BITMAP
C00000
61CF60
60F890
400C90
400C60
40C400
C30580
81FF00
800400
800400
900400
900400
900400
A00400
E1FE00
E20780
E30CC0
41F840
400000
ENDCHAR
STARTCHAR 307E
ENCODING 12414
SWIDTH 1008 0
DWIDTH 21 0
BBX 17 20 2 -2
BITMAP
01C000
00E000
00C000
01FF00
FEC380
70C400
00C000
08C000
30CE00
1FFC00
00C000
00C000
00C000
00C000
00C000
00E000
3FFC00
60EF00
61C300
1F8000
ENDCHAR
STARTCHAR 307F
ENCODING 12415
SWIDTH 1008 0
DWIDTH 21 0
BBX 19 18 1 -2
BITMAP
10E000
1FF000
0C6000
00E000
00C300
00C180
010180
010180
0FF900
3E0100
320700
440380
8C02C0
980460
700460
000800
001000
00E000
ENDCHAR
STARTCHAR 3080
ENCODING 12416
SWIDTH 1008 0
DWIDTH 21 0
BBX 19 19 1 -2
BITMAP
180000
0E0000
060000
050000
E7C180
7C0240
040260
0402E0
3C0260
4C0220
4C0220
440200
4C0100
780100
380100
100180
180380
0FFF00
07FC00
ENDCHAR
STARTCHAR 3081
ENCODING 12417
SWIDTH 1008 0
DWIDTH 21 0
BBX 19 18 1 -1
BITMAP
007000
001800
001800
201000
31FC00
167300
186080
18E0C0
28C040
450060
450060
470060
820060
870040
8D00C0
580180
300600
007800
ENDCHAR
STARTCHAR 3082
ENCODING 12418
SWIDTH 1008 0
DWIDTH 21 0
BBX 15 21 3 -3
BITMAP
0C00
0700
0700
0700
C400
7400
1F80
2800
4800
4808
3804
3FC4
1FC4
1382
1002
1002
1002
1004
080C
0FF8
03E0
ENDCHAR
STARTCHAR 3083
ENCODING 12419
SWIDTH 1008 0
DWIDTH 21 0
BBX 16 16 2 -2
BITMAP
0200
01E0
20C0
11B8
09C6
0E03
1C03
FC22
E426
4618
0200
0380
0180
01C0
01C0
01C0
ENDCHAR
STARTCHAR 3084
ENCODING 12420
SWIDTH 1008 0
DWIDTH 21 0
BBX 19 19 1 -2
BITMAP
01C000
007000
001800
307000
180F00
0C70C0
05C060
060060
9A0060
F310C0
E31FC0
610F00
01C000
00C000
00E000
00E000
007000
007000
007000
ENDCHAR
STARTCHAR 3085
ENCODING 12421
SWIDTH 1008 0
DWIDTH 21 0
BBX 15 17 1 -3
BITMAP
01C0
0260
0260
85F0
466C
4C66
5466
5466
5466
6466
6466
6264
21F8
00C0
01C0
0100
0200
ENDCHAR
STARTCHAR 3086
ENCODING 12422
SWIDTH 1008 0
DWIDTH 21 0
BBX 19 20 1 -3
BITMAP
007800
00CC00
010C00
817E00
43CD80
660CC0
6A0C40
4A0C60
520C60
520C60
530840
510840
6118C0
60D980
207E00
201000
007000
006000
00C000
010000
ENDCHAR
STARTCHAR 3087
ENCODING 12423
SWIDTH 1008 0
DWIDTH 21 0
BBX 13 15 3 -2
BITMAP
0400
0380
0380
0300
0378
03C0
0300
0300
0300
0300
0300
7FC0
8370
C738
7810
ENDCHAR
STARTCHAR 3088
ENCODING 12424
SWIDTH 1008 0
DWIDTH 21 0
BBX 15 20 3 -2
BITMAP
0300
0180
01C0
01C0
0180
018C
01BE
01E0
0180
0180
0180
0180
0180
0180
0180
7FC0
C1B8
818E
C386
7C00
ENDCHAR
STARTCHAR 3089
ENCODING 12425
SWIDTH 1008 0
DWIDTH 21 0
BBX 15 20 4 -2
BITMAP
0800
0700
00C0
0060
0FE0
3000
4000
4000
4000
C000
C3F0
C20C
CE0C
D004
E006
C006
0004
000C
0038
07C0
ENDCHAR
STARTCHAR 308A
ENCODING 12426
SWIDTH 1008 0
DWIDTH 21 0
BBX 13 21 4 -3
BITMAP
8000
40C0
6720
6830
6810
5018
5018
D018
A018
A018
E018
C010
4010
4010
4030
0020
0060
0040
0080
0300
0E00
ENDCHAR
STARTCHAR 308B
ENCODING 12427
SWIDTH 1008 0
DWIDTH 21 0
BBX 16 19 3 -2
BITMAP
0030
31F8
1F30
1860
01C0
0380
0300
0400
0BF0
1C0C
100E
3006
6002
E003
C003
07C3
0C66
0C2C
07F0
ENDCHAR
STARTCHAR 308C
ENCODING 12428
SWIDTH 1008 0
DWIDTH 21 0
BBX 20 21 1 -3
BITMAP
0C0000
060000
060000
040000
040000
070E00
DE7300
76C300
050300
0E0300
0C0200
0C0200
1C0200
340400
340400
640400
E40610
D40660
0C03C0
0C0000
080000
ENDCHAR
STARTCHAR 308D
ENCODING 12429
SWIDTH 1008 0
DWIDTH 21 0
BBX 16 19 3 -2
BITMAP
0030
23F8
3F30
1860
01C0
0180
0300
0400
0DF0
1F0C
180E
3806
7003
E003
C003
0002
0006
0018
03E0
ENDCHAR
STARTCHAR 308E
ENCODING 12430
SWIDTH 1008 0
DWIDTH 21 0
BBX 15 16 2 -2
BITMAP
1800
0C00
0800
0C00
D8F0
7B8C
0C06
0806
0802
1802
2802
6806
C80C
A818
18E0
1000
ENDCHAR
STARTCHAR 308F
ENCODING 12431
SWIDTH 1008 0
DWIDTH 21 0
BBX 19 21 1 -3
BITMAP
0C0000
060000
060000
040000
040000
070000
DE1E00
76E180
0500C0
0E0040
0C0060
0C0060
1C0060
340060
340040
6400C0
E40080
D40300
0C1C00
0C0000
080000
ENDCHAR
STARTCHAR 3090
ENCODING 12432
SWIDTH 1008 0
DWIDTH 21 0
BBX 18 18 2 -2
BITMAP
001800
1FFC00
0C1800
003000
002000
00C000
03FC00
0D8700
118180
238180
220080
4600C0
C400C0
8800C0
983880
F0C580
60E300
003C00
ENDCHAR
STARTCHAR 3091
ENCODING 12433
SWIDTH 1008 0
DWIDTH 21 0
BBX 19 20 1 -3
BITMAP
000800
07FC00
037000
006000
00C000
01F800
070600
1C0300
19C300
02E200
02EE00
026C00
01F000
010000
060000
180F00
7718C0
E1E060
C0E1E0
000200
ENDCHAR
STARTCHAR 3092
ENCODING 12434
SWIDTH 1008 0
DWIDTH 21 0
BBX 16 20 3 -2
BITMAP
0400
0380
0380
0300
85F0
FF80
6402
0803
1F06
3398
61E0
41C0
C3C0
C5C0
09C0
1180
2000
3000
1FF8
0FF0
ENDCHAR
STARTCHAR 3093
ENCODING 12435
SWIDTH 1008 0
DWIDTH 21 0
BBX 19 19 1 -2
BITMAP
01C000
00E000
00E000
01C000
010000
030000
020000
040000
040000
0BC000
0FC020
0CC020
186020
306040
306040
606080
601180
C01F00
C00E00
ENDCHAR
STARTCHAR 3094
ENCODING 12436
SWIDTH 1008 0
DWIDTH 21 0
BBX 18 21 3 -3
BITMAP
0C0100
03C0C0
01F440
073300
000100
000000
03E000
8C1000
F00800
600C00
000C00
000C00
000C00
000C00
000800
001800
001000
002000
004000
038000
0C0000
ENDCHAR
STARTCHAR 3095
ENCODING 12437
SWIDTH 1008 0
DWIDTH 21 0
BBX 16 16 1 -2
BITMAP
0C00
0600
0410
0408
8FC4
F8E2
4862
5063
1063
1063
206F
20C2
60C0
C900
C700
0200
ENDCHAR
STARTCHAR 3096
ENCODING 12438
SWIDTH 1008 0
DWIDTH 21 0
BBX 16 17 1 -3
BITMAP
01C0
4070
6018
4010
401E
C9F3
8610
8610
8010
9018
9018
A010
A070
4060
4060
40C0
0100
ENDCHAR
STARTCHAR 309B
ENCODING 12443
SWIDTH 1008 0
DWIDTH 21 0
BBX 7 6 1 12
BITMAP
08
84
46
62
22
20
ENDCHAR
STARTCHAR 309C
ENCODING 12444
SWIDTH 1008 0
DWIDTH 21 0
BBX 5 5 1 11
BITMAP
70
88
88
88
70
ENDCHAR
STARTCHAR 309D
ENCODING 12445
SWIDTH 1008 0
DWIDTH 21 0
BBX 9 10 6 3
BITMAP
8000
4000
2000
3800
1C00
0F00
0F80
0380
0F80
3800
ENDCHAR
STARTCHAR 309E
ENCODING 12446
SWIDTH 1008 0
DWIDTH 21 0
BBX 13 13 6 3
BITMAP
0020
0118
00C8
8040
4000
2000
3800
1C00
0F00
0F80
0380
0F80
3800
ENDCHAR
STARTCHAR 309F
ENCODING 12447
SWIDTH 1008 0
DWIDTH 21 0
BBX 17 20 2 -2
BITMAP
038000
01C000
01C000
01CE00
01B180
01C200
038400
020000
06F000
078800
0C0400
080400
080400
180400
100400
300C00
600800
C01800
C23000
01C000
ENDCHAR
STARTCHAR 30A0
ENCODING 12448
SWIDTH 1008 0
DWIDTH 21 0
BBX 7 6 7 5
BITMAP
FE
00
00
00
FE
FE
ENDCHAR
STARTCHAR 30A1
ENCODING 12449
SWIDTH 1008 0
DWIDTH 21 0
BBX 14 14 3 -2
BITMAP
0018
FFFC
701C
0430
0340
0340
0300
0700
0700
0400
0C00
0800
1000
2000
ENDCHAR
STARTCHAR 30A2
ENCODING 12450
SWIDTH 1008 0
DWIDTH 21 0
BBX 18 18 2 -2
BITMAP
000300
80FFC0
FFC180
700300
01C400
00E800
00E000
00C000
01C000
01C000
01C000
018000
038000
020000
060000
040000
080000
100000
ENDCHAR
STARTCHAR 30A3
ENCODING 12451
SWIDTH 1008 0
DWIDTH 21 0
BBX 13 15 2 -2
BITMAP
0010
0018
0030
00E0
01C0
0380
0380
0780
09C0
31C0
C1C0
01C0
01C0
01C0
0180
ENDCHAR
STARTCHAR 30A4
ENCODING 12452
SWIDTH 1008 0
DWIDTH 21 0
BBX 16 20 2 -2
BITMAP
0004
0003
0003
0006
000C
0018
0030
00E0
01A0
0630
0830
1030
3030
C030
0030
0030
0030
0030
0030
0020
ENDCHAR
STARTCHAR 30A5
ENCODING 12453
SWIDTH 1008 0
DWIDTH 21 0
BBX 14 16 3 -2
BITMAP
0700
0380
0380
0318
C7FC
7C18
6018
6018
6018
4010
0030
0060
0040
0180
0700
1800
ENDCHAR
STARTCHAR 30A6
ENCODING 12454
SWIDTH 1008 0
DWIDTH 21 0
BBX 17 19 3 -2
BITMAP
038000
01C000
01C000
818300
C1FF80
FF8300
C00300
C00300
C00600
C00600
C00400
400400
000C00
000800
001000
002000
004000
038000
0C0000
ENDCHAR
STARTCHAR 30A7
ENCODING 12455
SWIDTH 1008 0
DWIDTH 21 0
BBX 16 12 2 -1
BITMAP
0018
3FFC
1980
01C0
01C0
01C0
0180
0180
0180
07FE
F807
6000
ENDCHAR
STARTCHAR 30A8
ENCODING 12456
SWIDTH 1008 0
DWIDTH 21 0
BBX 19 14 1 0
BITMAP
000E00
3FFF00
1CC000
00E000
00E000
00E000
00C000
00C000
00C000
00C000
00C000
01FFC0
FE01E0
700000
ENDCHAR
STARTCHAR 30A9
ENCODING 12457
SWIDTH 1008 0
DWIDTH 21 0
BBX 15 16 3 -2
BITMAP
01C0
0060
0060
0060
004C
FFFE
61C0
61C0
03C0
0740
0C40
1040
2040
C5C0
03C0
0180
ENDCHAR
STARTCHAR 30AA
ENCODING 12458
SWIDTH 1008 0
DWIDTH 21 0
BBX 19 20 1 -2
BITMAP
001000
001800
000C00
000C00
000800
0009C0
FFFFE0
781800
007800
00E800
01C800
010800
030800
060800
0C0800
180800
200800
C0D800
007800
001000
ENDCHAR
STARTCHAR 30AB
ENCODING 12459
SWIDTH 1008 0
DWIDTH 21 0
BBX 18 19 1 -2
BITMAP
01C000
00E000
00E000
00E000
00C180
00FFC0
7FC080
39C180
030180
030180
020100
060100
040300
0C0300
080200
100600
20EC00
401C00
801800
ENDCHAR
STARTCHAR 30AC
ENCODING 12460
SWIDTH 1008 0
DWIDTH 21 0
BBX 20 20 1 -2
BITMAP
000040
01C030
00E110
00E0C0
00E040
00C180
00FFC0
7FC080
39C180
030180
030180
020100
060100
040300
0C0300
080200
100600
20EC00
401C00
801800
ENDCHAR
STARTCHAR 30AD
ENCODING 12461
SWIDTH 1008 0
DWIDTH 21 0
BBX 19 19 1 -2
BITMAP
030000
01C000
01C000
00CF00
00FC00
7FC000
38E000
0060C0
0067E0
00F800
07E000
076000
F87000
701000
001000
001800
001800
001800
001800
ENDCHAR
STARTCHAR 30AE
ENCODING 12462
SWIDTH 1008 0
DWIDTH 21 0
BBX 20 20 1 -2
BITMAP
000040
030130
01C0D0
01C040
00CF00
00FC00
7FC000
38E000
0060C0
0067E0
00F800
07E000
076000
F87000
701000
001000
001800
001800
001800
001800
ENDCHAR
STARTCHAR 30AF
ENCODING 12463
SWIDTH 1008 0
DWIDTH 21 0
BBX 16 19 3 -2
BITMAP
0700
0380
0706
073F
0DC2
0C06
1806
200C
400C
8018
8010
0010
0030
0060
01C0
0380
0400
1800
6000
ENDCHAR
STARTCHAR 30B0
ENCODING 12464
SWIDTH 1008 0
DWIDTH 21 0
BBX 19 20 2 -2
BITMAP
000080
060060
038120
0604C0
063F40
0DC200
0C0600
180600
200C00
400C00
801800
801000
001000
003000
00E000
01C000
038000
040000
180000
600000
ENDCHAR
STARTCHAR 30B1
ENCODING 12465
SWIDTH 1008 0
DWIDTH 21 0
BBX 19 19 1 -2
BITMAP
060000
030000
030000
060000
0601C0
0C7FE0
0FE800
180C00
300C00
400800
C00800
801800
001000
007000
006000
00C000
010000
020000
0C0000
ENDCHAR
STARTCHAR 30B2
ENCODING 12466
SWIDTH 1008 0
DWIDTH 21 0
BBX 20 20 1 -2
BITMAP
000040
060230
030190
030080
060000
0601C0
0C7FE0
0FE800
180C00
300C00
400800
C00800
801800
001000
007000
006000
00C000
010000
020000
0C0000
ENDCHAR
STARTCHAR 30B3
ENCODING 12467
SWIDTH 1008 0
DWIDTH 21 0
BBX 17 13 2 1
BITMAP
000300
7FFF80
380300
000300
000200
000200
000600
000400
000400
000400
000600
FFFE00
700600
ENDCHAR
STARTCHAR 30B4
ENCODING 12468
SWIDTH 1008 0
DWIDTH 21 0
BBX 19 17 2 1
BITMAP
000080
000460
000320
000100
000600
7FFF80
380300
000300
000200
000200
000600
000400
000400
000400
000600
FFFE00
700600
ENDCHAR
STARTCHAR 30B5
ENCODING 12469
SWIDTH 1008 0
DWIDTH 21 0
BBX 19 19 1 -2
BITMAP
000C00
0C0600
060600
060600
0606C0
867FE0
FFE600
660600
060600
060400
060400
060400
020C00
000800
001800
001000
006000
00C000
030000
ENDCHAR
STARTCHAR 30B6
ENCODING 12470
SWIDTH 1008 0
DWIDTH 21 0
BBX 20 20 1 -2
BITMAP
000040
000D30
0C06D0
060640
060600
0606C0
867FE0
FFE600
660600
060600
060400
060400
060400
020C00
000800
001800
001000
006000
00C000
030000
ENDCHAR
STARTCHAR 30B7
ENCODING 12471
SWIDTH 1008 0
DWIDTH 21 0
BBX 17 17 3 -2
BITMAP
300000
0C0000
070000
070000
000080
C00100
300200
180600
180400
180C00
001800
003000
006000
03C000
8F8000
7C0000
700000
ENDCHAR
STARTCHAR 30B8
ENCODING 12472
SWIDTH 1008 0
DWIDTH 21 0
BBX 17 19 3 -2
BITMAP
000200
001180
300C80
0C0400
070000
070000
000080
C00100
300200
180600
180400
180C00
001800
003000
006000
03C000
8F8000
7C0000
700000
ENDCHAR
STARTCHAR 30B9
ENCODING 12473
SWIDTH 1008 0
DWIDTH 21 0
BBX 17 16 2 -1
BITMAP
000C00
3FFE00
1E0C00
001800
003000
003000
00E000
01E000
019000
019000
020C00
040600
080300
100380
200180
C00100
ENDCHAR
STARTCHAR 30BA
ENCODING 12474
SWIDTH 1008 0
DWIDTH 21 0
BBX 19 19 2 -1
BITMAP
000080
000260
0001A0
000C80
3FFE00
1C0C00
001800
003000
003000
00E000
01E000
019000
019000
020C00
040600
080300
100380
200180
C00100
ENDCHAR
STARTCHAR 30BB
ENCODING 12475
SWIDTH 1008 0
DWIDTH 21 0
BBX 19 17 1 -1
BITMAP
060000
030000
030000
030000
0301C0
021FE0
03F0C0
FE0300
720600
720E00
020800
020000
020000
020000
03C000
01FF80
007F80
ENDCHAR
STARTCHAR 30BC
ENCODING 12476
SWIDTH 1008 0
DWIDTH 21 0
BBX 20 19 1 -1
BITMAP
000040
000030
060110
0300C0
030040
030000
0301C0
021FE0
03F0C0
FE0300
720600
720E00
020800
020000
020000
020000
03C000
01FF80
007F80
ENDCHAR
STARTCHAR 30BD
ENCODING 12477
SWIDTH 1008 0
DWIDTH 21 0
BBX 15 18 3 -2
BITMAP
0008
8006
4006
3006
300C
180C
180C
1018
0018
0010
0030
0020
0060
01C0
0380
0700
0800
3000
ENDCHAR
STARTCHAR 30BE
ENCODING 12478
SWIDTH 1008 0
DWIDTH 21 0
BBX 19 20 2 -2
BITMAP
000080
000260
0009A0
800480
400600
300600
300C00
180C00
180C00
101800
001800
001000
003000
002000
00E000
01C000
038000
060000
080000
300000
ENDCHAR
STARTCHAR 30BF
ENCODING 12479
SWIDTH 1008 0
DWIDTH 21 0
BBX 16 19 3 -2
BITMAP
0700
0380
0706
073F
0DC2
0C06
1806
270C
41CC
8078
8070
0030
0030
0060
01C0
0380
0400
1800
6000
ENDCHAR
STARTCHAR 30C0
ENCODING 12480
SWIDTH 1008 0
DWIDTH 21 0
BBX 19 20 2 -2
BITMAP
000080
060060
038120
0606C0
063F40
0DC200
0C0600
180600
260C00
41CC00
80F800
80F000
003000
003000
00E000
01C000
038000
040000
180000
600000
ENDCHAR
STARTCHAR 30C1
ENCODING 12481
SWIDTH 1008 0
DWIDTH 21 0
BBX 19 19 1 -2
BITMAP
000600
001F00
01E000
1F7800
007000
007000
01FFC0
FF71E0
707000
006000
006000
00E000
00E000
00C000
01C000
010000
020000
040000
080000
ENDCHAR
STARTCHAR 30C2
ENCODING 12482
SWIDTH 1008 0
DWIDTH 21 0
BBX 20 20 1 -2
BITMAP
000040
000630
001E90
01E060
1F7820
007000
007000
01FFC0
FF71E0
707000
006000
006000
00E000
00E000
00C000
01C000
010000
020000
040000
080000
ENDCHAR
STARTCHAR 30C3
ENCODING 12483
SWIDTH 1008 0
DWIDTH 21 0
BBX 14 14 3 -2
BITMAP
0800
0410
870C
470C
6018
6018
6018
0030
0020
0040
0180
0300
0400
1800
ENDCHAR
STARTCHAR 30C4
ENCODING 12484
SWIDTH 1008 0
DWIDTH 21 0
BBX 16 18 3 -2
BITMAP
0404
0702
8303
C383
6386
6386
6006
000C
000C
0008
0018
0030
0020
0040
0180
0300
0C00
3000
ENDCHAR
STARTCHAR 30C5
ENCODING 12485
SWIDTH 1008 0
DWIDTH 21 0
BBX 19 20 2 -2
BITMAP
000080
000260
0401A0
060480
820200
C38300
638600
638600
600600
000C00
000C00
000800
001800
003000
002000
00C000
018000
020000
0C0000
300000
ENDCHAR
STARTCHAR 30C6
ENCODING 12486
SWIDTH 1008 0
DWIDTH 21 0
BBX 19 18 1 -2
BITMAP
000E00
1FFF00
0E0000
000000
000000
01FFC0
FE61E0
707000
007000
006000
00E000
00E000
00C000
01C000
010000
020000
040000
080000
ENDCHAR
STARTCHAR 30C7
ENCODING 12487
SWIDTH 1008 0
DWIDTH 21 0
BBX 21 20 0 -2
BITMAP
000020
000018
000E08
1FFF40
0E0030
000010
000000
01FFC0
FE61E0
707000
007000
006000
00E000
00E000
008000
018000
010000
020000
040000
080000
ENDCHAR
STARTCHAR 30C8
ENCODING 12488
SWIDTH 1008 0
DWIDTH 21 0
BBX 10 20 7 -2
BITMAP
C000
7000
7000
7000
7000
4000
4000
4000
7C00
4780
41C0
41C0
40C0
4000
4000
4000
C000
C000
C000
4000
ENDCHAR
STARTCHAR 30C9
ENCODING 12489
SWIDTH 1008 0
DWIDTH 21 0
BBX 13 20 7 -2
BITMAP
C000
7020
7018
7088
7060
4020
4000
4000
7C00
4780
41C0
41C0
40C0
4000
4000
C000
C000
C000
C000
4000
ENDCHAR
STARTCHAR 30CA
ENCODING 12490
SWIDTH 1008 0
DWIDTH 21 0
BBX 19 19 1 -2
BITMAP
00E000
007000
007000
006000
006000
01FFC0
FF61E0
706000
00E000
00E000
00C000
00C000
00C000
01C000
010000
030000
020000
040000
080000
ENDCHAR
STARTCHAR 30CB
ENCODING 12491
SWIDTH 1008 0
DWIDTH 21 0
BBX 19 13 1 0
BITMAP
100E00
1FFF00
0E0000
000000
000000
000000
000000
000000
000000
000000
83FFC0
FE01E0
700000
ENDCHAR
STARTCHAR 30CC
ENCODING 12492
SWIDTH 1008 0
DWIDTH 21 0
BBX 16 17 2 -1
BITMAP
0006
00FF
3FC6
1C0C
000C
0018
03B0
00E0
00F0
00DC
01DC
038E
0607
0C03
1803
2000
C000
ENDCHAR
STARTCHAR 30CD
ENCODING 12493
SWIDTH 1008 0
DWIDTH 21 0
BBX 17 20 2 -2
BITMAP
038000
01E000
00E000
000C00
00FE00
3FCC00
181800
003000
00E000
01C000
03B800
07FE00
05CE00
09C380
31C180
C1C000
01C000
01C000
01C000
01C000
ENDCHAR
STARTCHAR 30CE
ENCODING 12494
SWIDTH 1008 0
DWIDTH 21 0
BBX 16 18 2 -2
BITMAP
0006
0003
0003
0006
0006
000C
0008
0018
0030
0020
0020
00C0
0180
0200
0400
0800
3000
C000
ENDCHAR
STARTCHAR 30CF
ENCODING 12495
SWIDTH 1008 0
DWIDTH 21 0
BBX 20 13 0 1
BITMAP
000800
040400
030200
030300
020180
060080
0400C0
0400E0
0C0060
080060
100070
200030
C00030
ENDCHAR
STARTCHAR 30D0
ENCODING 12496
SWIDTH 1008 0
DWIDTH 21 0
BBX 20 16 0 1
BITMAP
000040
000230
000190
000880
040400
030200
030300
020180
060080
0400C0
0400E0
0C0060
080060
100070
200030
C00030
ENDCHAR
STARTCHAR 30D1
ENCODING 12497
SWIDTH 1008 0
DWIDTH 21 0
BBX 20 16 0 1
BITMAP
000060
000090
000090
000860
040400
030200
030300
020180
060080
0400C0
0400E0
0C0060
080060
100070
200030
C00030
ENDCHAR
STARTCHAR 30D2
ENCODING 12498
SWIDTH 1008 0
DWIDTH 21 0
BBX 14 18 3 -1
BITMAP
C000
6000
6000
6000
4000
4018
41FC
7FC0
4000
4000
4000
4000
4000
4000
4000
6000
3FFC
0FF8
ENDCHAR
STARTCHAR 30D3
ENCODING 12499
SWIDTH 1008 0
DWIDTH 21 0
BBX 18 19 3 -1
BITMAP
000100
C000C0
600440
600300
600100
400000
401800
41FC00
7FC000
400000
400000
400000
400000
400000
400000
400000
600000
3FFC00
0FF800
ENDCHAR
STARTCHAR 30D4
ENCODING 12500
SWIDTH 1008 0
DWIDTH 21 0
BBX 18 18 3 -1
BITMAP
C00180
600240
600240
600180
400000
401800
41FC00
7FC000
400000
400000
400000
400000
400000
400000
400000
600000
3FFC00
0FF800
ENDCHAR
STARTCHAR 30D5
ENCODING 12501
SWIDTH 1008 0
DWIDTH 21 0
BBX 17 17 3 -2
BITMAP
000300
807F80
FFC300
700300
000200
000600
000600
000400
000400
000C00
001800
001000
002000
004000
018000
070000
180000
ENDCHAR
STARTCHAR 30D6
ENCODING 12502
SWIDTH 1008 0
DWIDTH 21 0
BBX 19 20 2 -2
BITMAP
000080
000260
0001A0
000280
80FF00
FFC300
700300
000200
000600
000600
000400
000400
000C00
001800
001000
002000
00C000
018000
060000
180000
ENDCHAR
STARTCHAR 30D7
ENCODING 12503
SWIDTH 1008 0
DWIDTH 21 0
BBX 19 20 2 -2
BITMAP
0000C0
000120
000120
0002C0
80FF00
FFC300
700300
000200
000600
000600
000400
000400
000C00
001800
001000
002000
00C000
018000
060000
180000
ENDCHAR
STARTCHAR 30D8
ENCODING 12504
SWIDTH 1008 0
DWIDTH 21 0
BBX 19 12 1 2
BITMAP
020000
070000
04C000
086000
181000
301800
E00C00
C00E00
400600
000380
0001E0
0000E0
ENDCHAR
STARTCHAR 30D9
ENCODING 12505
SWIDTH 1008 0
DWIDTH 21 0
BBX 19 15 1 2
BITMAP
000080
000060
000220
020180
070080
04C000
086000
181000
301800
E00C00
C00E00
400600
000380
0001E0
0000E0
ENDCHAR
STARTCHAR 30DA
ENCODING 12506
SWIDTH 1008 0
DWIDTH 21 0
BBX 19 14 1 2
BITMAP
000180
000240
020240
070180
04C000
086000
181000
301800
E00C00
C00E00
400600
000380
0001E0
0000E0
ENDCHAR
STARTCHAR 30DB
ENCODING 12507
SWIDTH 1008 0
DWIDTH 21 0
BBX 18 19 1 -2
BITMAP
01C000
00E000
00E000
00E000
00C000
00FF80
FFC3C0
70C000
00C000
00C400
10C600
10C200
18C100
30C180
20C0C0
40C0C0
82E000
01E000
01C000
ENDCHAR
STARTCHAR 30DC
ENCODING 12508
SWIDTH 1008 0
DWIDTH 21 0
BBX 20 20 1 -2
BITMAP
000040
01C130
00E0D0
00E040
00E000
00C000
00FF80
FFC3C0
70C000
00C000
00C400
10C600
10C200
18C100
30C180
20C0C0
40C0C0
82E000
01E000
01C000
ENDCHAR
STARTCHAR 30DD
ENCODING 12509
SWIDTH 1008 0
DWIDTH 21 0
BBX 19 20 1 -2
BITMAP
0000C0
01C120
00E120
00E0C0
00E000
00C000
00FF80
FFC3C0
70C000
00C000
00C400
10C600
10C200
18C100
30C180
20C0C0
40C0C0
82E000
01E000
01C000
ENDCHAR
STARTCHAR 30DE
ENCODING 12510
SWIDTH 1008 0
DWIDTH 21 0
BBX 19 14 1 0
BITMAP
0000C0
007FE0
FFE0C0
700180
000300
000400
000800
061000
067000
01C000
00F000
007800
001C00
000C00
ENDCHAR
STARTCHAR 30DF
ENCODING 12511
SWIDTH 1008 0
DWIDTH 21 0
BBX 12 19 4 -3
BITMAP
3000
0F00
03E0
0070
0030
0000
3000
0F00
03C0
03E0
00E0
0060
0000
E000
1E00
0780
00E0
0070
0030
ENDCHAR
STARTCHAR 30E0
ENCODING 12512
SWIDTH 1008 0
DWIDTH 21 0
BBX 18 16 1 0
BITMAP
01C000
00E000
00E000
01C000
01C000
010000
030000
020000
020800
060E00
040600
040300
080180
08FFC0
FFC0C0
7800C0
ENDCHAR
STARTCHAR 30E1
ENCODING 12513
SWIDTH 1008 0
DWIDTH 21 0
BBX 16 18 2 -2
BITMAP
0006
0003
0003
0006
0006
000C
0608
01D8
0030
0038
0038
00CC
0186
0206
0400
0800
3000
C000
ENDCHAR
STARTCHAR 30E2
ENCODING 12514
SWIDTH 1008 0
DWIDTH 21 0
BBX 19 16 1 -1
BITMAP
000E00
3FFF00
1D0000
01C000
01C000
0103C0
017FE0
FFE000
F10000
710000
010000
010000
010000
01C000
00FFC0
007F80
ENDCHAR
STARTCHAR 30E3
ENCODING 12515
SWIDTH 1008 0
DWIDTH 21 0
BBX 16 15 2 -2
BITMAP
0C00
0C00
0600
060E
02FF
0F86
0A04
FA0C
6390
0380
0180
0180
01C0
01C0
01C0
ENDCHAR
STARTCHAR 30E4
ENCODING 12516
SWIDTH 1008 0
DWIDTH 21 0
BBX 19 19 1 -2
BITMAP
060000
0E0000
060000
0600C0
0307E0
0378C0
03C180
FD0300
71C600
01C800
01C800
00C000
00E000
00E000
00E000
006000
007000
007000
007000
ENDCHAR
STARTCHAR 30E5
ENCODING 12517
SWIDTH 1008 0
DWIDTH 21 0
BBX 15 11 3 -1
BITMAP
0060
3FF0
1820
1820
0020
0060
0040
0040
0FFC
F81E
6000
ENDCHAR
STARTCHAR 30E6
ENCODING 12518
SWIDTH 1008 0
DWIDTH 21 0
BBX 19 13 1 1
BITMAP
000E00
1FFF00
0E0600
000400
000C00
000800
000800
001800
001000
001000
01FFC0
FE03E0
700000
ENDCHAR
STARTCHAR 30E7
ENCODING 12519
SWIDTH 1008 0
DWIDTH 21 0
BBX 14 13 3 -1
BITMAP
0018
7FFC
3818
0018
0010
0010
3FF0
1830
0020
0020
0060
FFF0
6010
ENDCHAR
STARTCHAR 30E8
ENCODING 12520
SWIDTH 1008 0
DWIDTH 21 0
BBX 17 15 2 0
BITMAP
000300
7FFF80
380300
000300
000300
000200
3FFE00
180600
180600
000600
000400
000400
000C00
FFFE00
600600
ENDCHAR
STARTCHAR 30E9
ENCODING 12521
SWIDTH 1008 0
DWIDTH 21 0
BBX 17 19 2 -2
BITMAP
001C00
3FFE00
1C0000
000000
000300
803F80
FFE300
700300
000300
000600
000400
000400
000C00
000800
001000
002000
00C000
038000
0C0000
ENDCHAR
STARTCHAR 30EA
ENCODING 12522
SWIDTH 1008 0
DWIDTH 21 0
BBX 12 19 5 -2
BITMAP
0060
C030
6030
6030
6030
6030
6030
6030
6030
6020
6020
2060
0060
0040
00C0
0080
0100
0600
1C00
ENDCHAR
STARTCHAR 30EB
ENCODING 12523
SWIDTH 1008 0
DWIDTH 21 0
BBX 20 17 0 -1
BITMAP
007000
003800
0C3800
063800
063800
043800
063800
043800
0C3010
0C3020
0C3020
083040
103080
103300
203600
407C00
803800
ENDCHAR
STARTCHAR 30EC
ENCODING 12524
SWIDTH 1008 0
DWIDTH 21 0
BBX 15 18 4 -2
BITMAP
C000
6000
6000
6000
6000
6000
6000
6002
4004
4008
4008
4010
4060
40C0
4780
5E00
F800
6000
ENDCHAR
STARTCHAR 30ED
ENCODING 12525
SWIDTH 1008 0
DWIDTH 21 0
BBX 17 14 2 0
BITMAP
800100
C1FF80
FF8300
C00300
400300
400300
600200
600200
600600
600600
600600
600600
7FFE00
600200
ENDCHAR
STARTCHAR 30EE
ENCODING 12526
SWIDTH 1008 0
DWIDTH 21 0
BBX 14 14 3 -2
BITMAP
C018
63FC
7F18
6018
6018
6010
6010
0030
0030
0060
0040
0180
0300
0C00
ENDCHAR
STARTCHAR 30EF
ENCODING 12527
SWIDTH 1008 0
DWIDTH 21 0
BBX 16 18 3 -2
BITMAP
8006
C1FF
FF86
C006
C006
C006
C004
C00C
4008
4008
0008
0010
0010
0020
0040
0180
0700
1800
ENDCHAR
STARTCHAR 30F0
ENCODING 12528
SWIDTH 1008 0
DWIDTH 21 0
BBX 19 19 1 -2
BITMAP
007000
001800
001800
001000
007F00
3FD380
181000
041000
061000
061000
041FC0
0CFFC0
FF10E0
701000
001000
007000
007000
007000
001000
ENDCHAR
STARTCHAR 30F1
ENCODING 12529
SWIDTH 1008 0
DWIDTH 21 0
BBX 19 14 1 0
BITMAP
001F00
3FE380
1C0600
01CC00
00D000
00E000
00C000
00C000
00C000
00C000
00C000
01FFC0
FE01E0
700000
ENDCHAR
STARTCHAR 30F2
ENCODING 12530
SWIDTH 1008 0
DWIDTH 21 0
BBX 15 18 4 -2
BITMAP
000C
00FE
FF8C
700C
0008
0008
03FC
FF10
6010
6010
0030
0060
0040
0080
0300
0600
1800
6000
ENDCHAR
STARTCHAR 30F3
ENCODING 12531
SWIDTH 1008 0
DWIDTH 21 0
BBX 17 16 2 -1
BITMAP
600000
180000
0C0000
0C0080
000100
000200
000600
000C00
000800
001800
003000
00E000
03C000
8E0000
7C0000
700000
ENDCHAR
STARTCHAR 30F4
ENCODING 12532
SWIDTH 1008 0
DWIDTH 21 0
BBX 19 20 2 -2
BITMAP
000080
038260
01C1A0
01C280
818300
C1FF00
FF8300
C00300
C00200
C00600
400600
400400
000400
000C00
000800
001000
002000
00C000
038000
0C0000
ENDCHAR
STARTCHAR 30F5
ENCODING 12533
SWIDTH 1008 0
DWIDTH 21 0
BBX 14 15 4 -2
BITMAP
0700
0380
0300
0308
07FC
FF8C
E608
6608
0E18
0818
1810
1030
2330
40E0
8040
ENDCHAR
STARTCHAR 30F6
ENCODING 12534
SWIDTH 1008 0
DWIDTH 21 0
BBX 15 15 2 -2
BITMAP
0400
0600
0C00
0C0C
18FE
1FC0
10E0
30E0
40E0
80C0
01C0
0180
0200
0400
1800
ENDCHAR
STARTCHAR 30F7
ENCODING 12535
SWIDTH 1008 0
DWIDTH 21 0
BBX 19 20 2 -2
BITMAP
000080
000260
0001A0
800680
C1FF00
FF8600
C00600
C00600
C00400
C00C00
400800
400800
000800
001000
001000
002000
00C000
018000
060000
180000
ENDCHAR
STARTCHAR 30F8
ENCODING 12536
SWIDTH 1008 0
DWIDTH 21 0
BBX 20 20 1 -2
BITMAP
000040
007130
0018D0
001840
001000
007F00
3FD380
181000
041000
061000
061000
041FC0
0CFFC0
FF10E0
701000
001000
007000
007000
007000
001000
ENDCHAR
STARTCHAR 30F9
ENCODING 12537
SWIDTH 1008 0
DWIDTH 21 0
BBX 20 18 1 0
BITMAP
000040
000130
0000D0
000040
001F00
3FE380
1C0600
01CC00
00D000
00E000
00C000
00C000
00C000
00C000
00C000
01FFC0
FE01E0
700000
ENDCHAR
STARTCHAR 30FA
ENCODING 12538
SWIDTH 1008 0
DWIDTH 21 0
BBX 19 20 2 -2
BITMAP
000080
000060
000D20
01FEC0
FF8C40
700C00
000800
000800
03FC00
FE1000
601000
601000
003000
00E000
00C000
018000
020000
040000
180000
600000
ENDCHAR
STARTCHAR 30FB
ENCODING 12539
SWIDTH 1008 0
DWIDTH 21 0
BBX 5 5 8 5
BITMAP
70
F8
F8
F0
70
ENDCHAR
STARTCHAR 30FC
ENCODING 12540
SWIDTH 1008 0
DWIDTH 21 0
BBX 18 4 2 6
BITMAP
800780
FFFFC0
780000
780000
ENDCHAR
STARTCHAR 30FD
ENCODING 12541
SWIDTH 1008 0
DWIDTH 21 0
BBX 10 10 6 2
BITMAP
C000
2000
1C00
0E00
0300
0380
0380
01C0
01C0
0080
ENDCHAR
STARTCHAR 30FE
ENCODING 12542
SWIDTH 1008 0
DWIDTH 21 0
BBX 11 13 5 2
BITMAP
0080
0060
0620
C180
2080
1C00
0E00
0700
0780
0780
01C0
01C0
0080
ENDCHAR
STARTCHAR 30FF
ENCODING 12543
SWIDTH 1008 0
DWIDTH 21 0
BBX 13 18 5 -1
BITMAP
07F0
FC18
0018
0018
0018
0018
0018
0018
0018
0018
0018
0018
0018
0018
0018
0018
0018
0018
ENDCHAR
STARTCHAR 31F0
ENCODING 12784
SWIDTH 1008 0
DWIDTH 21 0
BBX 14 14 3 -2
BITMAP
0C00
0718
047C
0B88
1018
2010
2010
4030
8060
01C0
0380
0400
1800
6000
ENDCHAR
STARTCHAR 31F1
ENCODING 12785
SWIDTH 1008 0
DWIDTH 21 0
BBX 15 14 2 -2
BITMAP
1000
0C00
0600
8602
6004
7008
3008
3010
0020
00C0
0380
4E00
3C00
3000
ENDCHAR
STARTCHAR 31F2
ENCODING 12786
SWIDTH 1008 0
DWIDTH 21 0
BBX 15 14 3 -2
BITMAP
0018
3FFC
1C18
0030
0030
0020
0060
01C0
0320
0418
080C
1006
2006
C004
ENDCHAR
STARTCHAR 31F3
ENCODING 12787
SWIDTH 1008 0
DWIDTH 21 0
BBX 9 17 7 -3
BITMAP
C000
7000
7000
4000
4000
4000
7C00
4700
4700
4180
4080
4000
4000
4000
C000
C000
4000
ENDCHAR
STARTCHAR 31F4
ENCODING 12788
SWIDTH 1008 0
DWIDTH 21 0
BBX 14 15 3 -2
BITMAP
0018
01FC
3F18
1C18
0030
0030
0720
0760
01C0
03A0
0718
080C
100C
2000
C000
ENDCHAR
STARTCHAR 31F5
ENCODING 12789
SWIDTH 1008 0
DWIDTH 21 0
BBX 16 10 2 0
BITMAP
1820
0C10
0808
080C
1804
1006
3006
2003
4003
8003
ENDCHAR
STARTCHAR 31F6
ENCODING 12790
SWIDTH 1008 0
DWIDTH 21 0
BBX 12 15 5 -2
BITMAP
C000
6000
6000
6000
4060
41F0
4100
7F00
4000
4000
4000
4000
6000
3FF0
0FE0
ENDCHAR
STARTCHAR 31F7
ENCODING 12791
SWIDTH 1008 0
DWIDTH 21 0
BBX 14 14 3 -2
BITMAP
0018
81FC
FF18
7018
0010
0010
0030
0020
0060
0040
0180
0300
0C00
3000
ENDCHAR
STARTCHAR 31F8
ENCODING 12792
SWIDTH 1008 0
DWIDTH 21 0
BBX 17 10 2 -1
BITMAP
020000
078000
0FC000
08C000
183000
301800
E00C00
400700
000380
000180
ENDCHAR
STARTCHAR 31F9
ENCODING 12793
SWIDTH 1008 0
DWIDTH 21 0
BBX 14 16 3 -2
BITMAP
0700
0380
0380
0300
03F8
FF1C
6300
6320
0320
2310
3308
230C
430C
8B00
0780
0300
ENDCHAR
STARTCHAR 31FA
ENCODING 12794
SWIDTH 1008 0
DWIDTH 21 0
BBX 15 14 3 -1
BITMAP
0700
0380
0380
0300
0700
0400
0400
0400
0830
0818
100C
13FE
FF06
7006
ENDCHAR
STARTCHAR 31FB
ENCODING 12795
SWIDTH 1008 0
DWIDTH 21 0
BBX 14 16 3 -2
BITMAP
0070
7FF8
3000
0018
81FC
FF18
7018
7010
0010
0030
0020
0040
0180
0300
0C00
3000
ENDCHAR
STARTCHAR 31FC
ENCODING 12796
SWIDTH 1008 0
DWIDTH 21 0
BBX 11 16 5 -2
BITMAP
00C0
C060
6060
6060
6060
6060
6060
6060
6060
6040
20C0
0080
0100
0100
0600
1C00
ENDCHAR
STARTCHAR 31FD
ENCODING 12797
SWIDTH 1008 0
DWIDTH 21 0
BBX 17 14 2 -1
BITMAP
00E000
003000
183000
0C3000
0C3000
082000
082000
182000
182080
102100
202200
202C00
40F800
803000
ENDCHAR
STARTCHAR 31FE
ENCODING 12798
SWIDTH 1008 0
DWIDTH 21 0
BBX 13 14 5 -1
BITMAP
C000
6000
6000
6000
6000
4008
4010
4010
4060
40C0
4780
5E00
FC00
6000
ENDCHAR
STARTCHAR 31FF
ENCODING 12799
SWIDTH 1008 0
DWIDTH 21 0
BBX 15 11 3 0
BITMAP
8004
C3FE
7F0C
400C
4008
4008
4008
6008
6018
7FF8
6008
ENDCHAR
STARTCHAR 3231
ENCODING 12849
SWIDTH 1008 0
DWIDTH 21 0
BBX 21 21 0 -3
BITMAP
170740
267620
667630
467610
DFF698
C67FD8
C6E618
CE8618
CF0658
CEFFF8
CE8F18
CE8E98
CE8E98
D63E98
D63658
E63658
C67658
466610
668630
260620
160640
ENDCHAR
STARTCHAR 3232
ENCODING 12850
SWIDTH 1008 0
DWIDTH 21 0
BBX 21 21 0 -3
BITMAP
100040
20F020
60E030
40E0D0
FFFFF8
C18018
C30318
C7FF98
C70318
CB0318
D3FF18
E30318
E30318
C30318
C30318
C3FF18
C30318
430310
630330
230F20
130240
ENDCHAR
STARTCHAR 3239
ENCODING 12857
SWIDTH 1008 0
DWIDTH 21 0
BBX 21 21 0 -3
BITMAP
13BC40
233B20
6339B0
433990
C63818
C63998
CC3FD8
CEF818
D63818
E63818
C63818
C63C18
C60C18
C60C18
C60698
C60698
C60398
460390
6601B0
2600A0
100040
ENDCHAR
STARTCHAR 3251
ENCODING 12881
SWIDTH 1008 0
DWIDTH 21 0
BBX 19 19 1 -2
BITMAP
03F800
0C0600
100100
200480
4E0440
530C40
B37C20
B30C20
860C20
840C20
840C20
8C0C20
890C20
5B0C40
5F7F40
200080
100100
0C0600
03F800
ENDCHAR
STARTCHAR 3252
ENCODING 12882
SWIDTH 1008 0
DWIDTH 21 0
BBX 19 19 1 -2
BITMAP
03F800
0C0600
100100
200080
4E0E40
531340
B37320
B37320
860620
840420
840420
8C0C20
890920
5B1B40
5F1F40
200080
100100
0C0600
03F800
ENDCHAR
STARTCHAR 3253
ENCODING 12883
SWIDTH 1008 0
DWIDTH 21 0
BBX 19 19 1 -2
BITMAP
03F800
0C0600
100100
200080
4E0C40
531240
B37320
B37320
860620
840220
847320
8C7320
897320
5B1240
5F0C40
200080
100100
0C0600
03F800
ENDCHAR
STARTCHAR 3254
ENCODING 12884
SWIDTH 1008 0
DWIDTH 21 0
BBX 19 19 1 -2
BITMAP
03F800
0C0600
100100
200080
470240
49C640
99CE20
99D620
831620
866620
8467A0
847FA0
88C620
5FC640
5F1F40
200080
100100
0C0600
03F800
ENDCHAR
STARTCHAR 3255
ENCODING 12885
SWIDTH 1008 0
DWIDTH 21 0
BBX 19 19 1 -2
BITMAP
03F800
0C0600
100100
200080
4E7F40
537E40
B37020
B37C20
867220
846320
846320
8C0320
897320
5B7240
5F1C40
200080
100100
0C0600
03F800
ENDCHAR
STARTCHAR 3256
ENCODING 12886
SWIDTH 1008 0
DWIDTH 21 0
BBX 19 19 1 -2
BITMAP
03F800
0C0600
100100
200080
4E0E40
531340
A37320
B37020
B67E20
847320
847320
8C7320
897320
5B7340
5F1E40
200080
100100
0C0600
03F800
ENDCHAR
STARTCHAR 3257
ENCODING 12887
SWIDTH 1008 0
DWIDTH 21 0
BBX 19 19 1 -2
BITMAP
03F800
0C0600
100100
200080
4E1F40
531F40
B37220
B36220
860420
840420
840420
8C0C20
890C20
5B0C40
5F0C40
200080
100100
0C0600
03F800
ENDCHAR
STARTCHAR 3258
ENCODING 12888
SWIDTH 1008 0
DWIDTH 21 0
BBX 19 19 1 -2
BITMAP
03F800
0C0600
100100
200080
4E1E40
537340
B37320
B31A20
860C20
841620
841720
8C7320
897320
5B7340
5F1E40
200080
100100
0C0600
03F800
ENDCHAR
STARTCHAR 3259
ENCODING 12889
SWIDTH 1008 0
DWIDTH 21 0
BBX 19 19 1 -2
BITMAP
03F800
0C0600
100100
200080
4E1E40
537340
B37320
B37320
867320
841F20
841F20
8C0320
897320
5B7240
5F1C40
200080
100100
0C0600
03F800
ENDCHAR
STARTCHAR 325A
ENCODING 12890
SWIDTH 1008 0
DWIDTH 21 0
BBX 19 19 1 -2
BITMAP
03F800
0C0600
100100
200080
4E0C40
531240
B37320
B37320
867320
837320
B37320
B37320
B37320
531240
4E0C40
200080
100100
0C0600
03F800
ENDCHAR
STARTCHAR 325B
ENCODING 12891
SWIDTH 1008 0
DWIDTH 21 0
BBX 19 19 1 -2
BITMAP
03F800
0C0600
100100
200480
4E0440
530C40
B37C20
B30C20
860C20
830C20
B30C20
B30C20
B30C20
530C40
4E7F40
200080
100100
0C0600
03F800
ENDCHAR
STARTCHAR 325C
ENCODING 12892
SWIDTH 1008 0
DWIDTH 21 0
BBX 19 19 1 -2
BITMAP
03F800
0C0600
100100
200080
4E0E40
531340
B37320
B37320
860620
830420
B30420
B30C20
B30920
531B40
4E1F40
200080
100100
0C0600
03F800
ENDCHAR
STARTCHAR 325D
ENCODING 12893
SWIDTH 1008 0
DWIDTH 21 0
BBX 19 19 1 -2
BITMAP
03F800
0C0600
100100
200080
4E0E40
531340
B37320
B37320
860620
830320
B37320
B37320
B37320
531340
4E0E40
200080
100100
0C0600
03F800
ENDCHAR
STARTCHAR 325E
ENCODING 12894
SWIDTH 1008 0
DWIDTH 21 0
BBX 19 19 1 -2
BITMAP
03F800
0C0600
100100
200080
4E0240
530640
B30E20
B31620
861620
836620
B367A0
B37FA0
B30620
530640
4E1F40
200080
100100
0C0600
03F800
ENDCHAR
STARTCHAR 325F
ENCODING 12895
SWIDTH 1008 0
DWIDTH 21 0
BBX 19 19 1 -2
BITMAP
03F800
0C0600
100100
200080
4E7F40
537E40
B37020
B37C20
867220
836320
B36320
B30320
B37320
537240
4E1C40
200080
100100
0C0600
03F800
ENDCHAR
STARTCHAR 32A4
ENCODING 12964
SWIDTH 1008 0
DWIDTH 21 0
BBX 19 19 1 -2
BITMAP
03F800
0C0600
100100
20F080
40E040
40E040
80E420
80FE20
80E020
80E020
80E020
80E020
80E020
40E640
4FFF40
200080
100100
0C0600
03F800
ENDCHAR
STARTCHAR 32A5
ENCODING 12965
SWIDTH 1008 0
DWIDTH 21 0
BBX 19 19 1 -2
BITMAP
03F800
0C0600
100100
20F080
40E040
48E640
8FFF20
8CE620
8CE620
8CE620
8CE620
8FFE20
8CE620
40E040
40E040
20E080
100100
0C0600
03F800
ENDCHAR
STARTCHAR 32A6
ENCODING 12966
SWIDTH 1008 0
DWIDTH 21 0
BBX 19 19 1 -2
BITMAP
03F800
0C0600
100100
200080
400640
4FFF40
80E020
80E020
80F820
80E620
80E620
80E620
80E020
40E040
40E040
20E080
100100
0C0600
03F800
ENDCHAR
STARTCHAR 32A7
ENCODING 12967
SWIDTH 1008 0
DWIDTH 21 0
BBX 19 19 1 -2
BITMAP
03F800
0C0600
100100
200080
41E040
41C640
8FFF20
830020
830420
87FE20
867020
867020
8C7020
587240
43FF40
200080
100100
0C0600
03F800
ENDCHAR
STARTCHAR 32A8
ENCODING 12968
SWIDTH 1008 0
DWIDTH 21 0
BBX 19 19 1 -2
BITMAP
03F800
0C0600
100100
200080
41E040
41C640
9FFF20
830020
830420
87FE20
870C20
8F0C20
9B0C20
43FC40
430C40
200080
100100
0C0600
03F800
ENDCHAR
STARTCHAR 32B1
ENCODING 12977
SWIDTH 1008 0
DWIDTH 21 0
BBX 19 19 1 -2
BITMAP
03F800
0C0600
100100
200080
4E0E40
531340
B37320
B37020
867E20
837320
B37320
B37320
B37320
537340
4E1E40
200080
100100
0C0600
03F800
ENDCHAR
STARTCHAR 32B2
ENCODING 12978
SWIDTH 1008 0
DWIDTH 21 0
BBX 19 19 1 -2
BITMAP
03F800
0C0600
100100
200080
4E1F40
531F40
B37220
B36220
860420
830420
B30420
B30C20
B30C20
530C40
4E0C40
200080
100100
0C0600
03F800
ENDCHAR
STARTCHAR 32B3
ENCODING 12979
SWIDTH 1008 0
DWIDTH 21 0
BBX 19 19 1 -2
BITMAP
03F800
0C0600
100100
200080
4E1E40
537340
B37320
B31A20
860C20
831620
B31720
B37320
B37320
537340
4E1E40
200080
100100
0C0600
03F800
ENDCHAR
STARTCHAR 32B4
ENCODING 12980
SWIDTH 1008 0
DWIDTH 21 0
BBX 19 19 1 -2
BITMAP
03F800
0C0600
100100
200080
4E1E40
537340
B37320
B37320
867320
831F20
B31F20
B30320
B37320
537240
4E1C40
200080
100100
0C0600
03F800
ENDCHAR
STARTCHAR 32B5
ENCODING 12981
SWIDTH 1008 0
DWIDTH 21 0
BBX 19 19 1 -2
BITMAP
03F800
0C0600
100100
220080
460C40
461240
8E7320
967320
967320
A67320
A67320
BFF320
867320
461240
5FCC40
200080
100100
0C0600
03F800
ENDCHAR
STARTCHAR 32B6
ENCODING 12982
SWIDTH 1008 0
DWIDTH 21 0
BBX 19 19 1 -2
BITMAP
03F800
0C0600
100100
220480
460440
460C40
8E7C20
960C20
960C20
A60C20
A7CC20
BFCC20
860C20
460C40
5F7F40
200080
100100
0C0600
03F800
ENDCHAR
STARTCHAR 32B7
ENCODING 12983
SWIDTH 1008 0
DWIDTH 21 0
BBX 19 19 1 -2
BITMAP
03F800
0C0600
100100
220080
460E40
461340
8E7320
967320
960620
A60420
A7C420
BFCC20
860920
461B40
5FDF40
200080
100100
0C0600
03F800
ENDCHAR
STARTCHAR 32B8
ENCODING 12984
SWIDTH 1008 0
DWIDTH 21 0
BBX 19 19 1 -2
BITMAP
03F800
0C0600
100100
220080
460E40
461340
8E7320
967320
960620
A60320
A77320
BF7320
867320
461340
5F0E40
200080
100100
0C0600
03F800
ENDCHAR
STARTCHAR 32B9
ENCODING 12985
SWIDTH 1008 0
DWIDTH 21 0
BBX 19 19 1 -2
BITMAP
03F800
0C0600
100100
220280
460640
460640
8E0E20
961620
961620
A66620
A767A0
BF7FA0
860620
460640
5FDF40
200080
100100
0C0600
03F800
ENDCHAR
STARTCHAR 32BA
ENCODING 12986
SWIDTH 1008 0
DWIDTH 21 0
BBX 19 19 1 -2
BITMAP
03F800
0C0600
100100
220080
467F40
467E40
8E7020
967C20
967220
A66320
A76320
BF0320
867320
467240
5F1C40
200080
100100
0C0600
03F800
ENDCHAR
STARTCHAR 32BB
ENCODING 12987
SWIDTH 1008 0
DWIDTH 21 0
BBX 19 19 1 -2
BITMAP
03F800
0C0600
100100
220080
460E40
461340
8E7320
967020
967E20
A67320
A77320
BF7320
867320
467340
5F1E40
200080
100100
0C0600
03F800
ENDCHAR
STARTCHAR 32BC
ENCODING 12988
SWIDTH 1008 0
DWIDTH 21 0
BBX 19 19 1 -2
BITMAP
03F800
0C0600
100100
220080
461F40
461F40
8E7220
966220
960420
A60420
A7C420
BFCC20
860C20
460C40
5FCC40
200080
100100
0C0600
03F800
ENDCHAR
STARTCHAR 32BD
ENCODING 12989
SWIDTH 1008 0
DWIDTH 21 0
BBX 19 19 1 -2
BITMAP
03F800
0C0600
100100
220080
461E40
467340
8E7320
961A20
960C20
A61620
A71720
BF7320
867320
467340
5F1E40
200080
100100
0C0600
03F800
ENDCHAR
STARTCHAR 32BE
ENCODING 12990
SWIDTH 1008 0
DWIDTH 21 0
BBX 19 19 1 -2
BITMAP
03F800
0C0600
100100
220080
461E40
467340
8E7320
967320
967320
A61F20
A71F20
BF0320
867320
467240
5F1C40
200080
100100
0C0600
03F800
ENDCHAR
STARTCHAR 32BF
ENCODING 12991
SWIDTH 1008 0
DWIDTH 21 0
BBX 19 19 1 -2
BITMAP
03F800
0C0600
100100
200080
5FCC40
5F1240
987320
9E7320
9B7320
937320
937320
837320
9B7320
5B1240
4E0C40
200080
100100
0C0600
03F800
ENDCHAR
STARTCHAR 32D0
ENCODING 13008
SWIDTH 1008 0
DWIDTH 21 0
BBX 19 19 1 -2
BITMAP
03F800
0C0600
100100
200080
400640
5FFF40
8C0220
80C420
806820
806020
806020
80E020
80C020
41C040
410040
220080
100100
0C0600
03F800
ENDCHAR
STARTCHAR 32D1
ENCODING 13009
SWIDTH 1008 0
DWIDTH 21 0
BBX 19 19 1 -2
BITMAP
03F800
0C0600
100100
200880
400C40
401840
807020
80E020
81C020
86E020
9EE020
98E020
80E020
40E040
40E040
20E080
10C100
0C0600
03F800
ENDCHAR
STARTCHAR 32D2
ENCODING 13010
SWIDTH 1008 0
DWIDTH 21 0
BBX 19 19 1 -2
BITMAP
03F800
0C0600
100100
20E080
407040
406240
98FF20
8FC620
8C0620
8C0620
880420
880420
800C20
400840
401040
20E080
130100
0C0600
03F800
ENDCHAR
STARTCHAR 32D3
ENCODING 13011
SWIDTH 1008 0
DWIDTH 21 0
BBX 19 19 1 -2
BITMAP
03F800
0C0600
100100
200080
400C40
4FFE40
84C020
80E020
80E020
80C020
80C020
80C020
83FE20
5C0340
480040
200080
100100
0C0600
03F800
ENDCHAR
STARTCHAR 32D4
ENCODING 13012
SWIDTH 1008 0
DWIDTH 21 0
BBX 19 19 1 -2
BITMAP
03F800
0C0600
107100
201880
401840
401340
9FFFA0
8C7020
80F020
81D020
811020
831020
841020
581040
417040
20F080
106100
0C0600
03F800
ENDCHAR
STARTCHAR 32D5
ENCODING 13013
SWIDTH 1008 0
DWIDTH 21 0
BBX 19 19 1 -2
BITMAP
03F800
0C0600
100100
20E080
407040
406240
80FF20
9FF320
8CC320
81C220
810220
810620
830420
420C40
44C840
287880
101100
0C0600
03F800
ENDCHAR
STARTCHAR 32D6
ENCODING 13014
SWIDTH 1008 0
DWIDTH 21 0
BBX 19 19 1 -2
BITMAP
03F800
0C0600
11C100
20E080
40E040
406640
807C20
8FE020
867320
801FA0
801020
81F020
9E1020
4C1840
401840
201880
101900
0C0600
03F800
ENDCHAR
STARTCHAR 32D7
ENCODING 13015
SWIDTH 1008 0
DWIDTH 21 0
BBX 19 19 1 -2
BITMAP
03F800
0C0600
100100
230080
41C640
411F40
82E220
840620
880420
800C20
800820
801820
807020
40E040
430040
2C0080
100100
0C0600
03F800
ENDCHAR
STARTCHAR 32D8
ENCODING 13016
SWIDTH 1008 0
DWIDTH 21 0
BBX 19 19 1 -2
BITMAP
03F800
0C0600
100100
220080
430040
420640
861F20
87F020
8C1820
901820
901020
807020
806020
40C040
410040
260080
100100
0C0600
03F800
ENDCHAR
STARTCHAR 32D9
ENCODING 13017
SWIDTH 1008 0
DWIDTH 21 0
BBX 19 19 1 -2
BITMAP
03F800
0C0600
100100
200080
400640
5FFF40
8E0620
800420
800420
800C20
800820
800820
800C20
5FFC40
4C0C40
200080
100100
0C0600
03F800
ENDCHAR
STARTCHAR 32DA
ENCODING 13018
SWIDTH 1008 0
DWIDTH 21 0
BBX 19 19 1 -2
BITMAP
03F800
0C0600
100100
201880
460C40
430D40
A37FA0
BFEC20
9B0C20
830C20
830820
810820
801820
401040
406040
20C080
130100
0C0600
03F800
ENDCHAR
STARTCHAR 32DB
ENCODING 13019
SWIDTH 1008 0
DWIDTH 21 0
BBX 19 19 1 -2
BITMAP
03F800
0C0600
100100
220080
41C040
40E040
90E0A0
8C0120
860220
860420
860820
800820
807020
51E040
4F0040
2C0080
100100
0C0600
03F800
ENDCHAR
STARTCHAR 32DC
ENCODING 13020
SWIDTH 1008 0
DWIDTH 21 0
BBX 19 19 1 -2
BITMAP
03F800
0C0600
100100
200080
400C40
4FFE40
860C20
801820
801020
807020
804820
80C820
810C20
420640
4C0640
300480
100100
0C0600
03F800
ENDCHAR
STARTCHAR 32DD
ENCODING 13021
SWIDTH 1008 0
DWIDTH 21 0
BBX 19 19 1 -2
BITMAP
03F800
0C0600
100100
260080
430040
430040
830720
827FA0
83E220
BE0420
BA0C20
9A0820
820020
430040
41FC40
20FC80
100100
0C0600
03F800
ENDCHAR
STARTCHAR 32DE
ENCODING 13022
SWIDTH 1008 0
DWIDTH 21 0
BBX 19 19 1 -2
BITMAP
03F800
0C0600
100100
200080
480440
440340
860320
860620
840620
800C20
800820
800820
801020
406040
41C040
260080
100100
0C0600
03F800
ENDCHAR
STARTCHAR 32DF
ENCODING 13023
SWIDTH 1008 0
DWIDTH 21 0
BBX 19 19 1 -2
BITMAP
03F800
0C0600
100100
230080
41C640
431F40
82E620
860620
850C20
88EC20
98E820
907820
801820
407040
40E040
210080
120100
0C0600
03F800
ENDCHAR
STARTCHAR 32E0
ENCODING 13024
SWIDTH 1008 0
DWIDTH 21 0
BBX 19 19 1 -2
BITMAP
03F800
0C0600
100100
201880
407C40
41C040
8EF020
80E020
83FF20
BEE3A0
B8E3A0
98E020
80C020
41C040
410040
210080
120100
0C0600
03F800
ENDCHAR
STARTCHAR 32E1
ENCODING 13025
SWIDTH 1008 0
DWIDTH 21 0
BBX 19 19 1 -2
BITMAP
03F800
0C0600
100100
210080
40C440
50E340
88E320
8C0620
8C0620
800C20
800820
800820
801020
406040
40C040
230080
100100
0C0600
03F800
ENDCHAR
STARTCHAR 32E2
ENCODING 13026
SWIDTH 1008 0
DWIDTH 21 0
BBX 19 19 1 -2
BITMAP
03F800
0C0600
100100
201880
4FFC40
470040
800020
80FF20
BF63A0
9C7020
9C7020
807020
80E020
40E040
40C040
210080
120100
0C0600
03F800
ENDCHAR
STARTCHAR 32E3
ENCODING 13027
SWIDTH 1008 0
DWIDTH 21 0
BBX 19 19 1 -2
BITMAP
03F800
0C0600
100100
21C080
40E040
40E040
80C020
80C020
80F020
80DC20
80DE20
80C620
80C220
40C040
41C040
21C080
10C100
0C0600
03F800
ENDCHAR
STARTCHAR 32E5
ENCODING 13029
SWIDTH 1008 0
DWIDTH 21 0
BBX 19 19 1 -2
BITMAP
03F800
0C0600
100100
200080
4018C0
4FFC40
870020
800020
800020
800020
80FF20
80FF20
BF03A0
5C0040
400040
200080
100100
0C0600
03F800
ENDCHAR
STARTCHAR 32E9
ENCODING 13033
SWIDTH 1008 0
DWIDTH 21 0
BBX 19 19 1 -2
BITMAP
03F800
0C0600
100100
200080
461040
430840
820420
860420
840620
8C0220
880320
880320
900320
600340
400040
200080
100100
0C0600
03F800
ENDCHAR
STARTCHAR 32EC
ENCODING 13036
SWIDTH 1008 0
DWIDTH 21 0
BBX 19 19 1 -2
BITMAP
03F800
0C0600
100100
200080
410040
43C040
846020
8C1020
B80C20
900620
9007A0
8003A0
8001A0
400040
400040
200080
100100
0C0600
03F800
ENDCHAR
STARTCHAR 32ED
ENCODING 13037
SWIDTH 1008 0
DWIDTH 21 0
BBX 19 19 1 -2
BITMAP
03F800
0C0600
11C100
20E080
40C040
40FE40
9FC720
8CC020
80C020
84CC20
86CE20
86C220
8CC320
50C340
42C040
21E080
10C100
0C0600
03F800
ENDCHAR
STARTCHAR 32FA
ENCODING 13050
SWIDTH 1008 0
DWIDTH 21 0
BBX 19 19 1 -2
BITMAP
03F800
0C0600
100100
200080
500240
587F40
9FC620
980620
880620
880420
880420
880420
8C0C20
4FFC40
4C0440
200080
100100
0C0600
03F800
ENDCHAR
STARTCHAR 3303
ENCODING 13059
SWIDTH 1008 0
DWIDTH 21 0
BBX 19 19 1 -2
BITMAP
870000
790000
020000
1411E0
100E00
100000
200000
400000
000000
100000
180000
080000
480000
280000
280000
290000
490000
4A0000
8C0000
ENDCHAR
STARTCHAR 330D
ENCODING 13069
SWIDTH 1008 0
DWIDTH 21 0
BBX 19 20 1 -2
BITMAP
100000
080000
8F08E0
790F20
110820
110440
2204C0
4A0740
840000
000000
040000
460000
420000
220000
220000
2211E0
240E00
040000
080000
300000
ENDCHAR
STARTCHAR 3314
ENCODING 13076
SWIDTH 1008 0
DWIDTH 21 0
BBX 18 19 2 -1
BITMAP
200000
100000
9E0000
700000
100000
178000
980000
680000
080000
080000
000000
000000
000000
0011C0
001E40
001040
000880
000980
000E80
ENDCHAR
STARTCHAR 3318
ENCODING 13080
SWIDTH 1008 0
DWIDTH 21 0
BBX 19 20 1 -2
BITMAP
0505C0
250200
1E11E0
220E20
C40040
040040
080080
100100
600600
000000
000000
100000
100000
080000
100000
100000
140000
220000
AE0000
710000
ENDCHAR
STARTCHAR 3322
ENCODING 13090
SWIDTH 1008 0
DWIDTH 21 0
BBX 20 20 1 -2
BITMAP
400000
200000
270C00
B90210
620010
240020
200040
200980
1E0600
000000
040000
060000
0E0000
700000
080000
9F0000
680000
080000
080000
300000
ENDCHAR
ENDFONT
